<?xml version="1.0" standalone="no"?>
<!DOCTYPE svg PUBLIC "-//W3C//DTD SVG 20010904//EN"
 "http://www.w3.org/TR/2001/REC-SVG-20010904/DTD/svg10.dtd">
<svg version="1.0" xmlns="http://www.w3.org/2000/svg"
 width="512.000000pt" height="512.000000pt" viewBox="0 0 512.000000 512.000000"
 preserveAspectRatio="xMidYMid meet">
<metadata>
Created by potrace 1.14, written by Peter Selinger 2001-2017
</metadata>
<g transform="translate(0.000000,512.000000) scale(0.100000,-0.100000)"
fill="#000000" stroke="none">
<path d="M3946 5103 c-3 -4 -12 -8 -19 -9 -11 -1 -92 -27 -437 -135 -52 -17
-139 -43 -194 -59 -54 -16 -103 -36 -110 -45 -16 -22 -15 -1311 1 -1340 7 -13
75 -47 185 -94 95 -40 273 -123 396 -184 195 -96 225 -108 238 -95 12 12 14
148 14 978 0 693 -3 967 -11 977 -12 14 -51 18 -63 6z"/>
<path d="M300 4244 c0 -6 77 -45 175 -88 425 -188 525 -235 900 -426 193 -97
431 -223 529 -279 99 -55 183 -101 188 -101 4 0 8 -4 8 -9 0 -5 8 -11 18 -14
9 -3 28 -13 42 -21 14 -9 102 -61 195 -117 250 -149 667 -431 850 -574 77 -60
290 -230 295 -235 3 -3 37 -32 75 -65 90 -76 357 -341 413 -409 24 -29 53 -63
65 -77 47 -51 136 -178 197 -279 222 -368 270 -714 140 -1005 -25 -55 -34 -95
-23 -95 11 0 56 49 72 78 6 11 17 26 23 34 35 36 199 295 243 383 45 88 90
221 101 295 2 14 7 50 12 81 23 153 -4 355 -69 517 -99 248 -277 472 -539 679
-8 6 -35 28 -60 49 -132 109 -341 257 -465 329 -27 16 -63 38 -80 48 -16 9
-38 20 -47 23 -10 4 -18 10 -18 15 0 5 -4 9 -8 9 -5 0 -66 32 -136 70 -255
141 -673 334 -1074 496 -103 41 -196 79 -207 84 -55 26 -843 310 -859 310 -4
0 -111 36 -239 79 -468 161 -717 235 -717 215z"/>
<path d="M880 3623 c0 -9 59 -47 320 -210 338 -211 527 -347 773 -555 73 -62
137 -117 143 -123 6 -5 53 -48 104 -95 156 -142 361 -349 460 -465 101 -119
290 -368 290 -384 0 -5 4 -11 8 -13 20 -8 152 -246 152 -274 0 -34 -72 -231
-112 -306 -42 -78 -129 -179 -203 -235 -141 -107 -378 -154 -570 -112 -222 48
-388 179 -511 405 -29 54 -55 89 -72 98 -42 20 -779 16 -793 -4 -10 -16 -8
-30 23 -160 35 -150 99 -306 173 -425 14 -22 28 -47 32 -55 22 -48 169 -237
238 -306 164 -166 339 -267 585 -338 173 -50 510 -69 720 -40 237 33 458 117
649 246 96 65 118 84 226 193 162 163 267 332 360 581 21 55 51 133 67 174 39
97 41 176 7 243 -42 83 -239 318 -398 477 -132 131 -328 302 -461 400 -18 14
-45 35 -59 46 -29 24 -227 171 -261 194 -12 8 -41 29 -64 46 -93 70 -591 391
-681 440 -11 6 -78 44 -150 86 -278 161 -692 367 -907 452 -69 27 -88 31 -88
19z"/>
</g>
</svg>
