<svg viewBox="0 0 32 36" fill="none" xmlns="http://www.w3.org/2000/svg">
<path d="M4.13524 10.4077C4.44994 10.521 4.76951 10.6188 5.07656 10.7504C5.61009 10.9805 6.13807 11.226 6.66326 11.4772C7.30516 11.7833 7.94568 12.0929 8.57994 12.4165C9.19614 12.7303 9.80956 13.0498 10.4146 13.3903C11.1154 13.7815 11.8101 14.1847 12.4987 14.5998C13.3157 15.0923 14.1278 15.5968 14.9302 16.1161C15.6506 16.5812 16.3641 17.0596 17.0643 17.5578C17.8792 18.1368 18.6885 18.7279 19.4798 19.3442C20.9387 20.4791 22.3836 21.6345 23.6515 23.0164C24.3295 23.7544 24.9492 24.5573 25.5709 25.3523C26.0607 25.9785 26.0961 26.6723 25.7752 27.4188C25.4841 28.0957 25.2611 28.807 24.9721 29.4846C24.3678 30.8989 23.4725 32.1664 22.3461 33.2025C21.3444 34.1246 20.175 34.8403 18.9032 35.3098C17.1956 35.955 15.4248 36.0746 13.629 35.9627C12.5893 35.8983 11.5643 35.6812 10.5862 35.3182C8.97453 34.7201 7.59902 33.74 6.5271 32.2814C5.79627 31.2858 5.11408 30.2565 4.64793 29.0941C4.37005 28.3961 4.20541 27.6376 4.04771 26.8925C3.96574 26.5055 4.06994 26.4352 4.44508 26.4345C6.05123 26.4345 7.65807 26.4514 9.26422 26.4218C9.66784 26.4141 9.87 26.5956 10.0333 26.939C10.6369 28.2054 11.5102 29.1729 12.7426 29.7386C13.7673 30.2079 14.819 30.2853 15.9042 30.0637C16.4933 29.9434 17.0664 29.7822 17.5791 29.4304C18.3849 28.8718 19.038 28.159 19.4409 27.2155C19.6486 26.7158 19.8301 26.2055 19.9848 25.6865C20.0344 25.5204 20.0241 25.3419 19.9557 25.1828C19.6778 24.6536 19.3825 24.1273 19.0526 23.6348C17.9259 21.9252 16.6217 20.3427 15.1622 18.9143C14.053 17.8247 12.9051 16.7786 11.7186 15.7762C10.7537 14.9565 9.74843 14.184 8.71471 13.4698C7.53372 12.6536 6.29854 11.9261 5.08837 11.1578C4.7577 10.9467 4.43049 10.7307 4.1019 10.5175L4.13524 10.4077Z" fill="#E87042"/>
<path d="M28.6779 32.8176C28.8169 32.4658 28.9801 32.1196 29.0948 31.758C29.4171 30.7666 29.5262 29.7597 29.3421 28.7078C29.1379 27.5961 28.7466 26.5283 28.1854 25.5507C27.5853 24.4974 26.8772 23.5112 26.0728 22.6083C25.0024 21.3886 23.8359 20.2591 22.5847 19.231C21.5913 18.4134 20.5791 17.619 19.5426 16.8654C18.4269 16.0542 17.2849 15.2823 16.133 14.5323C15.198 13.9237 14.2372 13.3594 13.2764 12.7979C12.2307 12.1881 11.1773 11.5926 10.1162 11.0114C9.34234 10.5893 8.55107 10.2016 7.76537 9.80334C6.95395 9.39103 6.14324 8.9759 5.32558 8.57766C4.67673 8.26104 4.02023 7.96341 3.36374 7.66297C2.60096 7.32243 1.83563 6.98282 1.06776 6.64415C0.712763 6.48725 0.354297 6.33949 0 6.10941C0.168812 6.10941 0.34735 6.07141 0.505047 6.11645C0.889912 6.2255 1.26297 6.37819 1.64505 6.50272C2.32864 6.72084 3.01709 6.92489 3.69928 7.14301C4.38148 7.36112 5.07757 7.6102 5.76741 7.84309C6.39264 8.05418 7.01787 8.25822 7.6431 8.47634C8.32252 8.71134 8.99915 8.95479 9.67649 9.19613C10.3066 9.42058 10.9401 9.63659 11.5661 9.87441C12.3393 10.1685 13.1083 10.4767 13.8766 10.7891C14.663 11.1064 15.4508 11.4223 16.2296 11.7587C17.1619 12.1639 18.0879 12.5847 19.0084 13.0125C19.6545 13.3108 20.2985 13.6162 20.9306 13.9469C21.6948 14.3458 22.4493 14.7588 23.1926 15.1958C23.9637 15.6489 24.7439 16.0936 25.4698 16.6213C26.4882 17.3615 27.4844 18.1467 28.4466 18.965C29.2801 19.6846 30.0056 20.5235 30.6002 21.4551C31.6186 23.0192 32.1744 24.7325 31.9507 26.6617C31.8231 27.8515 31.4377 28.998 30.8218 30.0194C30.3105 30.8503 29.7499 31.6468 29.199 32.4517C29.0816 32.6234 28.9211 32.7627 28.7821 32.9168L28.6779 32.8176Z" fill="white"/>
<path d="M26.3105 6.99384C26.3105 9.14828 26.3105 11.3027 26.3105 13.4572C26.3125 13.5416 26.3078 13.6261 26.2966 13.7098C26.2598 13.9441 26.1611 14.0496 25.9305 13.9286C25.3052 13.6007 24.6883 13.2665 24.0548 12.9639C23.342 12.622 22.6181 12.3061 21.8956 11.9887C21.4531 11.7938 21.0002 11.6264 20.5618 11.4223C20.475 11.3822 20.409 11.2408 20.3756 11.131C20.3489 11.0075 20.34 10.8807 20.3492 10.7546C20.3492 7.94535 20.3492 5.13608 20.3492 2.32682C20.3492 1.84837 20.2839 1.73931 20.8196 1.59507C21.6247 1.37766 22.4174 1.10255 23.2156 0.855581C24.0895 0.583989 24.9621 0.305361 25.8353 0.0457307C26.2111 -0.065439 26.2945 0.0154757 26.2945 0.436232C26.2945 2.62257 26.2945 4.80867 26.2945 6.99454L26.3105 6.99384Z" fill="#E87042"/>
</svg>
