<svg xmlns="http://www.w3.org/2000/svg" viewBox="0 0 61.8 54.22"><g id="Layer_2" data-name="Layer 2"><g id="Layer_1-2" data-name="Layer 1"><g id="Layer_2-2" data-name="Layer 2"><g id="Layer_1-2-2" data-name="Layer 1-2"><g id="Layer_2-2-2" data-name="Layer 2-2"><g id="Layer_1-2-2-2" data-name="Layer 1-2-2"><path d="M30.88,54.05,8,31.64c-6.34-6.19-9-13.51-7.34-20.08A15,15,0,0,1,11.28.75c6.34-1.78,13.4.3,19.6,5.72,10-8.74,20.75-7.61,26.5-1.72S64.3,21.4,53.82,31.64ZM15.82,4.11a12.75,12.75,0,0,0-3.47.48,11.11,11.11,0,0,0-7.86,8c-1.33,5.16,1,11.08,6.24,16.25L30.88,48.49,51,28.8c8.53-8.34,7.79-16.87,3.5-21.27C50,2.93,41.16,1.92,32.27,10.6L30.88,12,29.5,10.6C25.15,6.36,20.33,4.11,15.82,4.11Z" style="fill:#231f20;stroke:#000;stroke-miterlimit:10;stroke-width:0.25px"/></g></g></g></g></g></g></svg>