<svg viewBox="0 0 75 75" fill="none" xmlns="http://www.w3.org/2000/svg">
<path d="M2.5 27.8333C2.5 18.9658 2.5 14.5321 4.22573 11.1452C5.74373 8.16592 8.16592 5.74373 11.1452 4.22573C14.5321 2.5 18.9658 2.5 27.8333 2.5H47.1667C56.0342 2.5 60.4679 2.5 63.8549 4.22573C66.8341 5.74373 69.2563 8.16592 70.7743 11.1452C72.5 14.5321 72.5 18.9658 72.5 27.8333V47.1667C72.5 56.0342 72.5 60.4679 70.7743 63.8549C69.2563 66.8341 66.8341 69.2563 63.8549 70.7743C60.4679 72.5 56.0342 72.5 47.1667 72.5H27.8333C18.9658 72.5 14.5321 72.5 11.1452 70.7743C8.16592 69.2563 5.74373 66.8341 4.22573 63.8549C2.5 60.4679 2.5 56.0342 2.5 47.1667V27.8333Z" fill="#330000"/>
<path d="M36.4226 46.4907H25.5752L23.3682 53.5224C23.3069 53.7836 23.0664 53.9687 22.8047 53.9559H17.3106C16.9973 53.9559 16.8877 53.7793 16.9819 53.4261L26.3735 25.6845C26.4675 25.3956 26.5614 25.0665 26.6553 24.6972C26.7781 24.0546 26.841 23.4015 26.8431 22.7467C26.8162 22.5532 26.9863 22.3823 27.1719 22.4095H34.6381C34.8569 22.4095 34.9821 22.4898 35.0138 22.6503L45.6735 53.4742C45.7673 53.7955 45.6734 53.9561 45.3916 53.9558H39.287C39.0729 53.9802 38.8684 53.8334 38.8174 53.6187L36.4226 46.4907ZM27.2657 40.4222H34.6851C33.4661 36.2568 32.0905 32.1461 30.9755 27.9482C29.7725 32.1532 28.46 36.3412 27.2657 40.4222Z" fill="#FF9A00"/>
<path d="M52.0122 27.5146C51.5333 27.5343 51.0556 27.4501 50.6106 27.2675C50.1655 27.0849 49.7631 26.808 49.4295 26.455C49.0969 26.0866 48.8385 25.6544 48.6692 25.1833C48.5 24.7122 48.4232 24.2114 48.4433 23.7097C48.4262 23.213 48.5115 22.7182 48.6936 22.2576C48.8756 21.797 49.1504 21.381 49.4999 21.0367C49.846 20.696 50.2545 20.429 50.7019 20.2513C51.1492 20.0736 51.6265 19.9886 52.1061 20.0012C53.2331 20.0012 54.1175 20.3464 54.7593 21.0367C55.0832 21.3955 55.3349 21.8162 55.5001 22.2749C55.6653 22.7336 55.7406 23.2211 55.7218 23.7097C55.7415 24.2134 55.6622 24.7159 55.4888 25.1875C55.3154 25.6591 55.0513 26.0901 54.7123 26.455C54.3579 26.8132 53.9351 27.0923 53.4704 27.2747C53.0057 27.457 52.5092 27.5387 52.0122 27.5146ZM48.772 53.474V30.4524C48.772 30.1635 48.8967 30.0189 49.1477 30.0189H54.9236C55.1738 30.0189 55.2991 30.1634 55.2993 30.4524V53.474C55.2993 53.7954 55.1741 53.9559 54.9236 53.9557H49.1947C48.913 53.9557 48.7721 53.7951 48.772 53.474Z" fill="#FF9A00"/>
</svg>
