<svg viewBox="0 0 75 75" fill="none" xmlns="http://www.w3.org/2000/svg">
<path d="M2.5 27.8333C2.5 18.9658 2.5 14.5321 4.22573 11.1452C5.74373 8.16592 8.16592 5.74373 11.1452 4.22573C14.5321 2.5 18.9658 2.5 27.8333 2.5H47.1667C56.0342 2.5 60.4679 2.5 63.8549 4.22573C66.8341 5.74373 69.2563 8.16592 70.7743 11.1452C72.5 14.5321 72.5 18.9658 72.5 27.8333V47.1667C72.5 56.0342 72.5 60.4679 70.7743 63.8549C69.2563 66.8341 66.8341 69.2563 63.8549 70.7743C60.4679 72.5 56.0342 72.5 47.1667 72.5H27.8333C18.9658 72.5 14.5321 72.5 11.1452 70.7743C8.16592 69.2563 5.74373 66.8341 4.22573 63.8549C2.5 60.4679 2.5 56.0342 2.5 47.1667V27.8333Z" fill="#001E36"/>
<path d="M17.5 53.7906V23.0085C17.5 22.7991 17.5875 22.6795 17.7917 22.6795C20.8057 22.6795 23.8184 22.5 26.8333 22.5C31.7254 22.5 37.0225 24.1727 38.8792 29.2906C39.3167 30.547 39.55 31.8333 39.55 33.1795C39.55 35.7521 38.9667 37.8761 37.8 39.5513C34.541 44.2308 28.8925 44.1581 23.8292 44.1581V53.7607C23.8688 54.045 23.6265 54.1795 23.3917 54.1795H17.85C17.6167 54.1795 17.5 54.0598 17.5 53.7906ZM23.8583 28.453V38.5043C25.866 38.6514 27.9668 38.6673 29.8958 38.0256C32.0254 37.4113 33.1917 35.5679 33.1917 33.359C33.2509 31.4767 32.2252 29.6707 30.4792 28.9915C28.5734 28.199 25.9155 28.1516 23.8583 28.453Z" fill="#31A8FF"/>
<path d="M57.7416 36.5184C56.8591 36.0534 55.9192 35.7131 54.9476 35.507C53.699 35.2132 48.7745 34.1843 48.7726 36.7592C48.8163 38.1968 51.0983 38.9011 52.1066 39.3118C55.6462 40.5271 59.6517 42.6993 59.573 47.066C59.6812 52.502 54.4143 54.6751 49.8996 54.6757C47.5492 54.7 45.1007 54.3359 42.9497 53.3271C42.7444 53.2183 42.6122 52.9859 42.621 52.7491V47.5476C42.5978 47.339 42.8217 47.1568 42.9967 47.3068C45.1042 48.5814 47.6023 49.2002 50.0404 49.2333C51.1167 49.2333 53.2498 49.1289 53.2336 47.5476C53.2336 46.03 50.6819 45.3323 49.6647 44.9468C48.1903 44.4204 46.7922 43.6914 45.5089 42.7795C43.7155 41.5003 42.5904 39.4492 42.621 37.1927C42.6105 32.0742 47.4587 29.7768 51.8249 29.7757C53.866 29.7589 56.0579 29.91 57.958 30.7389C58.2312 30.8194 58.2878 31.1071 58.2867 31.365V36.2294C58.304 36.5314 57.9686 36.6342 57.7416 36.5184Z" fill="#31A8FF"/>
</svg>
