<svg viewBox="0 0 75 75" fill="none" xmlns="http://www.w3.org/2000/svg">
<path d="M2.5 27.8333C2.5 18.9658 2.5 14.5321 4.22573 11.1452C5.74373 8.16592 8.16592 5.74373 11.1452 4.22573C14.5321 2.5 18.9658 2.5 27.8333 2.5H47.1667C56.0342 2.5 60.4679 2.5 63.8549 4.22573C66.8341 5.74373 69.2563 8.16592 70.7743 11.1452C72.5 14.5321 72.5 18.9658 72.5 27.8333V47.1667C72.5 56.0342 72.5 60.4679 70.7743 63.8549C69.2563 66.8341 66.8341 69.2563 63.8549 70.7743C60.4679 72.5 56.0342 72.5 47.1667 72.5H27.8333C18.9658 72.5 14.5321 72.5 11.1452 70.7743C8.16592 69.2563 5.74373 66.8341 4.22573 63.8549C2.5 60.4679 2.5 56.0342 2.5 47.1667V27.8333Z" fill="#00005B"/>
<path d="M17.5 51.9892V20.5199C17.5 20.3058 17.5878 20.1835 17.7925 20.1835C20.8156 20.1835 23.8373 20 26.8612 20C31.7679 20 37.0807 21.7101 38.943 26.9422C39.3818 28.2267 39.6158 29.5417 39.6158 30.9179C39.6158 33.548 39.0307 35.7194 37.8606 37.432C34.5919 42.216 28.9265 42.1417 23.8481 42.1417V51.9586C23.8878 52.2492 23.6448 52.3868 23.4093 52.3868H17.851C17.617 52.3868 17.5 52.2644 17.5 51.9892ZM23.8773 26.0859V36.3616C25.8909 36.5119 27.9981 36.5283 29.9328 35.8723C32.0688 35.2443 33.2385 33.3596 33.2385 31.1014C33.2979 29.1771 32.2692 27.3308 30.5179 26.6364C28.6065 25.8263 25.9406 25.7778 23.8773 26.0859Z" fill="#9999FF"/>
<path d="M43.5813 28.0298H48.7151C48.9982 28.0324 49.2524 28.2368 49.3273 28.5222C49.7036 29.3955 49.7499 30.4487 49.7513 31.3915C50.6317 30.3198 51.6934 29.4269 52.8832 28.7573C54.1594 28.0024 55.6062 27.6198 57.0723 27.6495C57.3156 27.6131 57.5311 27.8383 57.4963 28.0926V34.0504C57.4963 34.2804 57.3387 34.395 57.0253 34.395C54.8524 34.2383 51.4693 34.775 49.8903 36.5615V52.0526C49.8903 52.348 49.7647 52.4957 49.5135 52.4957H44.0053C43.7347 52.5363 43.496 52.2817 43.5342 52.0033V35.1829C43.5342 32.9289 43.5809 30.6072 43.2516 28.3746C43.2009 28.1691 43.3891 27.978 43.5813 28.0298Z" fill="#9999FF"/>
</svg>
