<svg viewBox="0 0 75 75" fill="none" xmlns="http://www.w3.org/2000/svg">
<path d="M2.5 27.8333C2.5 18.9658 2.5 14.5321 4.22573 11.1452C5.74373 8.16592 8.16592 5.74373 11.1452 4.22573C14.5321 2.5 18.9658 2.5 27.8333 2.5H47.1667C56.0342 2.5 60.4679 2.5 63.8549 4.22573C66.8341 5.74373 69.2563 8.16592 70.7743 11.1452C72.5 14.5321 72.5 18.9658 72.5 27.8333V47.1667C72.5 56.0342 72.5 60.4679 70.7743 63.8549C69.2563 66.8341 66.8341 69.2563 63.8549 70.7743C60.4679 72.5 56.0342 72.5 47.1667 72.5H27.8333C18.9658 72.5 14.5321 72.5 11.1452 70.7743C8.16592 69.2563 5.74373 66.8341 4.22573 63.8549C2.5 60.4679 2.5 56.0342 2.5 47.1667V27.8333Z" fill="#470137"/>
<path d="M39.1162 23.0845L30.3819 37.8704L39.7266 53.5714C39.9209 53.9274 39.7266 54.0059 39.4449 54.0059H32.7769C32.3072 54.0059 31.9785 53.989 31.7906 53.6676C31.164 52.4155 30.5379 51.1713 29.9123 49.9351C29.2857 48.6994 28.6205 47.4391 27.9167 46.1543C27.2123 44.8705 26.5157 43.5701 25.827 42.2531C25.2004 43.5377 24.5038 44.8221 23.8312 46.1062C23.1577 47.3908 22.4925 48.6671 21.8355 49.9351C21.1781 51.2038 20.5051 52.4641 19.8164 53.7158C19.6909 54.0048 19.4714 54.0346 19.1588 54.0346H12.7257C12.4729 54.0346 12.4424 53.8446 12.5848 53.6195L21.6477 38.352L12.8195 23.0363C12.6591 22.8178 12.7972 22.5849 13.0543 22.6029H19.6754C19.9621 22.5867 20.2154 22.6949 20.3798 22.9401C20.9433 24.2246 21.5694 25.5089 22.2581 26.793C22.9464 28.0776 23.6429 29.3459 24.3477 30.5978C25.0521 31.8501 25.7487 33.1184 26.3435 34.4027C26.9693 33.0865 27.6033 31.8022 28.2454 30.5497C28.8867 29.2975 29.544 28.0372 30.2175 26.7689C30.8904 25.5009 31.54 24.2407 32.1663 22.9882C32.2495 22.7135 32.4485 22.5742 32.7299 22.6029H38.8814C39.1162 22.6029 39.2133 22.9235 39.1162 23.0845Z" fill="#FF61F6"/>
<path d="M52.5928 54.6313C48.4515 54.6959 44.1138 52.9909 41.9333 49.213C40.8686 47.3994 40.3364 45.1277 40.3367 42.398C40.319 40.1876 40.8698 38.0114 41.9333 36.0887C44.6775 31.1833 50.2059 29.3454 55.4573 29.8276V20.3397C55.4573 20.1154 55.5512 20.0025 55.7391 20.0025H61.6557C61.8174 19.9788 61.9606 20.1256 61.9376 20.2914V48.7554C61.9376 49.9299 62.0539 51.1001 62.1254 52.2713C62.1369 52.4714 62.0212 52.6692 61.8436 52.7529C58.9201 54.0034 55.757 54.6168 52.5928 54.6313ZM55.4572 48.6591V35.5108C51.1684 34.3191 47.0042 37.586 47.0048 42.109C46.9029 46.7853 50.9339 50.016 55.4572 48.6591Z" fill="#FF61F6"/>
</svg>
