<svg viewBox="0 0 75 75" fill="none" xmlns="http://www.w3.org/2000/svg">
<path d="M73.9993 67.5109C66.5898 67.5109 59.1801 67.5088 51.7701 67.5045C50.1851 67.5045 48.6089 67.3956 47.1164 66.7837C45.6746 66.1886 44.5801 65.2251 44.1081 63.7226C43.9256 63.1411 43.9923 62.4827 43.9473 61.8596L44.0373 61.8252C44.1716 61.9854 44.2995 62.1456 44.4394 62.2969C45.2765 63.1876 46.3509 63.6489 47.5064 63.9508C48.8799 64.3096 50.2856 64.4314 51.6985 64.4314C58.9627 64.4421 66.2269 64.4458 73.491 64.4426C73.6607 64.4426 73.8304 64.4546 74.0001 64.461L73.9993 67.5109Z" fill="white"/>
<path d="M73.9986 61.84C73.9262 61.84 73.8531 61.8512 73.7807 61.8512C66.0212 61.848 58.2622 61.8418 50.5037 61.8327C48.9935 61.8327 47.4962 61.6541 46.0632 61.1231C45.3443 60.8564 44.721 60.464 44.249 59.8417C43.8252 59.281 44.0512 58.6611 43.9844 58.042C45.9144 58.7708 47.9127 58.7436 49.8829 58.754C57.9244 58.7949 65.9603 58.782 73.9986 58.7893V61.84Z" fill="white"/>
<path d="M1 58.8571V53.8481H1.46239C11.4998 53.8481 21.5375 53.8439 31.5755 53.8353C33.9879 53.8297 36.3835 53.6175 38.7115 52.9135C40.8313 52.2727 42.7009 51.2628 44.0615 49.2949C44.0615 49.7546 44.0422 50.1095 44.0615 50.4611C44.2481 53.3348 42.7065 55.2666 40.5032 56.7795C38.8587 57.9104 36.9593 58.4278 34.9955 58.6216C33.4379 58.7778 31.865 58.8411 30.2993 58.8443C20.6993 58.8667 11.1012 58.871 1.50501 58.8571H1Z" fill="white"/>
<path d="M1.00781 30.9794V25.9824H1.40989C11.4216 25.9824 21.4335 25.9824 31.4458 25.9824C33.6926 25.9824 35.916 26.1602 38.0623 26.8827C40.9074 27.8438 42.9829 29.6058 43.9616 32.5099C44.0198 32.6806 44.0512 32.8591 44.0549 33.0393C44.0645 33.8346 44.0589 34.6307 44.0589 35.4957C43.7959 35.1754 43.5893 34.899 43.3585 34.6436C41.9448 33.0794 40.1049 32.272 38.1122 31.7498C35.5124 31.0683 32.8514 30.9818 30.1849 30.981C20.6358 30.9778 11.086 30.9778 1.53534 30.981L1.00781 30.9794Z" fill="white"/>
<path d="M44.0583 43.415C44.0583 44.0309 44.1677 44.7526 44.0229 45.4173C43.9152 45.9123 43.5364 46.3889 43.177 46.7789C42.2562 47.7865 41.0275 48.291 39.7456 48.6731C38.0465 49.18 36.2958 49.3867 34.5331 49.466C33.0631 49.5325 31.5907 49.5509 30.1191 49.5517C20.5819 49.5586 11.0447 49.5586 1.50742 49.5517H1.01367V44.5539H1.50501C12.1493 44.5491 22.7936 44.5422 33.4379 44.5331C35.9308 44.5331 38.4276 44.453 40.8988 44.0942C41.9538 43.9396 42.9992 43.6473 44.0583 43.415Z" fill="white"/>
<path d="M44.0584 41.5261C43.7368 41.4083 43.4489 41.2569 43.1457 41.2057C41.8333 40.9654 40.5218 40.6306 39.1973 40.565C35.7724 40.3992 32.3419 40.2942 28.9122 40.2798C19.7747 40.2438 10.6363 40.2678 1.49789 40.2678H1.00977V35.2637H1.41184C11.4369 35.2637 21.462 35.2637 31.4871 35.2637C33.7878 35.2637 36.0861 35.351 38.3506 35.8067C39.8969 36.1183 41.3903 36.5756 42.6632 37.5599C43.2367 37.9946 43.6929 38.5643 43.9909 39.2178C44.0257 39.2811 44.0471 39.3509 44.0536 39.4228C44.06 40.1172 44.0584 40.806 44.0584 41.5261Z" fill="white"/>
<path d="M18.0578 7.48926V12.4453H1.00977V7.48926H18.0578Z" fill="white"/>
<path d="M1.00195 21.7382V16.7861H18.05V21.7382H1.00195Z" fill="white"/>
</svg>
