<svg viewBox="0 0 75 75" fill="none" xmlns="http://www.w3.org/2000/svg">
<path d="M66.7367 54.9999C67.2075 54.1544 67.5001 53.2018 67.5001 52.3464V22.6532C67.5001 21.7978 67.2079 20.8454 66.7369 20L37.5 37.4999L66.7367 54.9999Z" fill="#7F3A86"/>
<path d="M40.0985 71.8584L64.9024 57.0118C65.6169 56.5841 66.2664 55.8456 66.7371 55L37.5004 37.5L8.26367 55.0002C8.73446 55.8456 9.38407 56.5843 10.0984 57.0118L34.9024 71.8584C36.3312 72.7138 38.6696 72.7138 40.0985 71.8584Z" fill="#662579"/>
<path d="M66.737 19.9999C66.266 19.1543 65.6164 18.4158 64.9021 17.9881L40.0981 3.14156C38.6693 2.28615 36.3309 2.28615 34.902 3.14156L10.098 17.9881C8.66902 18.8433 7.5 20.9428 7.5 22.6534V52.3466C7.5 53.202 7.79235 54.1546 8.26334 55L37.5001 37.5001L66.737 19.9999Z" fill="#9A5196"/>
<path d="M37.5963 57.5001C26.5152 57.5001 17.5 48.5281 17.5 37.5001C17.5 26.472 26.5152 17.5 37.5963 17.5C44.6145 17.5 51.1687 21.1892 54.7977 27.1545L46.1914 32.3162C44.3731 29.34 41.0998 27.5 37.5963 27.5C32.0556 27.5 27.5482 31.9859 27.5482 37.5001C27.5482 43.014 32.0556 47.5001 37.5963 47.5001C41.0904 47.5001 44.3553 45.6703 46.1768 42.7081L54.8014 47.8398C51.173 53.8086 44.6169 57.5001 37.5963 57.5001Z" fill="white"/>
<path fill-rule="evenodd" clip-rule="evenodd" d="M60.0002 30V32.4934H54.9999V30H52.5001V32.4934H50V35H52.5001V39.9869H50V42.5H52.5001V45H54.9999L55 42.5H60.0002V45H62.4999V42.5H65V39.9999H62.4999V35H65V32.4934H62.4999V30H60.0002ZM60.0002 39.9999V35H54.9999V39.9869L60.0002 39.9999Z" fill="white"/>
</svg>
