<svg viewBox="0 0 75 75" fill="none" xmlns="http://www.w3.org/2000/svg">
<circle cx="37.5" cy="37.5" r="35" fill="#1794D4"/>
<path d="M42.7699 14.5312H37.6989V19.5496H42.7699V14.5312Z" fill="white"/>
<path d="M22.4858 22.0588H27.5568V27.0772H22.4858V22.0588Z" fill="white"/>
<path d="M12.3477 39.4761C12.781 46.756 17.1619 57.1875 32.6278 57.1875C49.8693 57.1875 57.5604 44.6416 59.2507 38.3686C61.3636 38.3686 66.0966 37.114 68.125 32.0956C66.8572 30.841 61.7862 30.841 59.2507 32.0956C59.2507 30.0883 57.983 25.8226 55.4474 24.568C53.7571 26.2408 51.1371 30.5901 54.1797 34.6048C52.912 37.1139 49.5314 37.1139 47.841 37.1139H14.7345C13.392 37.1139 12.2687 38.1499 12.3477 39.4761Z" fill="white"/>
<path d="M19.9503 29.5864H14.8793V34.6048H19.9503V29.5864Z" fill="white"/>
<path d="M22.4858 29.5864H27.5568V34.6048H22.4858V29.5864Z" fill="white"/>
<path d="M35.1634 29.5864H30.0923V34.6048H35.1634V29.5864Z" fill="white"/>
<path d="M37.6989 29.5864H42.7699V34.6048H37.6989V29.5864Z" fill="white"/>
<path d="M50.3764 29.5864H45.3054V34.6048H50.3764V29.5864Z" fill="white"/>
<path d="M35.1634 22.0588H30.0923V27.0772H35.1634V22.0588Z" fill="white"/>
<path d="M37.6989 22.0588H42.7699V27.0772H37.6989V22.0588Z" fill="white"/>
</svg>
