<svg viewBox="0 0 75 75" fill="none" xmlns="http://www.w3.org/2000/svg">
<path fill-rule="evenodd" clip-rule="evenodd" d="M37.5 37.4997C37.5 31.0564 42.7233 25.833 49.1667 25.833C55.61 25.833 60.8333 31.0564 60.8333 37.4997C60.8333 43.943 55.61 49.1663 49.1667 49.1663C42.7233 49.1663 37.5 43.943 37.5 37.4997Z" fill="#1ABCFE"/>
<path fill-rule="evenodd" clip-rule="evenodd" d="M14.166 60.8337C14.166 54.3903 19.3894 49.167 25.8327 49.167H37.4993V60.8337C37.4993 67.277 32.276 72.5003 25.8327 72.5003C19.3894 72.5003 14.166 67.277 14.166 60.8337Z" fill="#0ACF83"/>
<path fill-rule="evenodd" clip-rule="evenodd" d="M37.5 2.5V25.8333H49.1667C55.61 25.8333 60.8333 20.61 60.8333 14.1667C60.8333 7.72335 55.61 2.5 49.1667 2.5H37.5Z" fill="#FF7262"/>
<path fill-rule="evenodd" clip-rule="evenodd" d="M14.166 14.1667C14.166 20.61 19.3894 25.8333 25.8327 25.8333H37.4994V2.5H25.8327C19.3894 2.5 14.166 7.72335 14.166 14.1667Z" fill="#F24E1E"/>
<path fill-rule="evenodd" clip-rule="evenodd" d="M14.166 37.4997C14.166 43.943 19.3894 49.1663 25.8327 49.1663H37.4993V25.833H25.8327C19.3894 25.833 14.166 31.0564 14.166 37.4997Z" fill="#A259FF"/>
</svg>
