<svg viewBox="0 0 75 75" fill="none" xmlns="http://www.w3.org/2000/svg">
<path d="M37.6166 19.7827C53.0575 7.79548 45.1328 0 45.1328 0C46.3121 12.3923 32.3742 15.3183 28.6381 23.834C26.0888 29.6448 30.3838 34.7328 37.6114 41.1454C36.9725 39.7252 35.987 38.3451 34.9893 36.948C31.5866 32.1827 28.0418 27.2184 37.6166 19.7827Z" fill="#E76F00"/>
<path d="M40.0816 43.7743C40.0816 43.7743 44.7271 40.0262 41.0482 35.8611C28.5776 21.7309 54.6875 15.3183 54.6875 15.3183C38.7463 22.998 41.1261 27.5565 45.1329 33.0941C49.4229 39.0322 40.0816 43.7743 40.0816 43.7743Z" fill="#E76F00"/>
<path d="M53.7587 54.9503C68.0679 47.6384 61.4519 40.6117 56.834 41.5583C55.7021 41.79 55.1975 41.9907 55.1975 41.9907C55.1975 41.9907 55.6176 41.3435 56.4202 41.0633C65.5559 37.9049 72.5818 50.3785 53.4711 55.3188C53.4711 55.319 53.6925 55.1244 53.7587 54.9503Z" fill="#5382A1"/>
<path d="M23.9837 45.6957C15.0307 44.52 28.8925 41.2824 28.8925 41.2824C28.8925 41.2824 23.5094 40.9254 16.8889 44.0724C9.0604 47.7962 36.2533 49.4898 50.3296 45.8493C51.7931 44.8667 53.8159 44.0148 53.8159 44.0148C53.8159 44.0148 48.0556 45.0266 42.319 45.5024C35.2996 46.0808 27.7639 46.1934 23.9837 45.6957Z" fill="#5382A1"/>
<path d="M27.3899 52.6774C22.3974 52.1696 25.6664 49.7901 25.6664 49.7901C12.7476 54.0066 32.8541 58.788 50.906 53.5972C48.9872 52.9319 47.7669 51.7154 47.7669 51.7154C38.9445 53.386 33.846 53.3324 27.3899 52.6774Z" fill="#5382A1"/>
<path d="M29.5652 60.2321C24.5765 59.6681 27.491 58.0014 27.491 58.0014C15.7639 61.2237 34.6241 67.8806 49.5545 61.5881C47.1091 60.653 45.358 59.5733 45.358 59.5733C38.6978 60.8129 35.6089 60.9101 29.5652 60.2321Z" fill="#5382A1"/>
<path d="M60.7937 64.075C60.7937 64.075 62.9506 65.8226 58.4184 67.1745C49.8003 69.7418 22.549 70.5171 14.9788 67.2768C12.2574 66.1127 17.3607 64.4971 18.966 64.1581C20.6401 63.8011 21.5969 63.8676 21.5969 63.8676C18.5705 61.7711 2.03552 67.9842 13.1979 69.7635C43.6394 74.6181 68.6898 67.5774 60.7937 64.075Z" fill="#5382A1"/>
<path d="M65.625 67.8933C65.1255 74.2842 44.0337 75.6285 30.2986 74.7639C21.3383 74.1989 19.5425 72.7868 19.5162 72.7661C28.0919 74.1565 42.5505 74.4095 54.2737 72.2401C64.6648 70.316 65.625 67.8933 65.625 67.8933Z" fill="#5382A1"/>
</svg>
