<svg viewBox="0 0 75 75" fill="none" xmlns="http://www.w3.org/2000/svg">
<rect x="2.5" y="2.5" width="70" height="70" fill="#FFCA28"/>
<path d="M45 60.7192L50.1538 57.3089C50.5577 58.5778 53.1154 61.5915 56.3462 61.5915C59.5769 61.5915 61.0769 59.8269 61.0769 58.6571C61.0769 55.4691 57.7779 54.3451 56.1934 53.8053C55.9351 53.7173 55.7224 53.6448 55.5769 53.5814C55.5024 53.5489 55.3895 53.5058 55.2447 53.4505C53.4824 52.7772 46.9808 50.2932 46.9808 43.0929C46.9808 35.162 54.6346 34.25 56.3654 34.25C57.4977 34.25 62.9423 34.3888 65.6538 39.4844L60.6538 42.9739C59.5577 40.7533 57.7365 40.0197 56.6154 40.0197C53.8462 40.0197 53.2692 42.0499 53.2692 42.9739C53.2692 45.567 56.2779 46.7292 58.8183 47.7105C59.483 47.9673 60.1156 48.2116 60.6538 48.466C63.4231 49.7746 67.5 51.9159 67.5 58.6571C67.5 62.0336 64.668 67.5 57.5385 67.5C47.9615 67.5 45.4231 61.7502 45 60.7192Z" fill="#3E3E3E"/>
<path d="M20 61.3964L25.3717 57.9878C25.7926 59.2561 27.4282 61.5945 29.8013 61.5945C32.1745 61.5945 33.3891 59.157 33.3891 57.9878V35H39.9955V57.9878C40.1024 61.1586 38.3439 67.5 30.583 67.5C23.4475 67.5 20.481 63.2592 20 61.3964Z" fill="#3E3E3E"/>
</svg>
