<svg viewBox="0 0 75 75" fill="none" xmlns="http://www.w3.org/2000/svg">
<path d="M40.5571 1.77881C38.7065 0.738059 36.2941 0.742739 34.4419 1.77881C25.1655 6.89805 15.8892 12.0189 6.61126 17.1358C4.8059 18.0855 3.58823 20.0243 3.60765 22.0366V52.9676C3.59461 55.0192 4.87507 56.9767 6.72699 57.9134C9.39193 59.3312 11.981 60.8929 14.6941 62.2163C17.8281 63.7562 21.749 64.0968 24.9213 62.4909C27.4963 61.1597 28.64 58.1994 28.6368 55.4789C28.6576 45.2708 28.64 35.0625 28.6448 24.8544C28.706 24.4007 28.3655 23.9158 27.8706 23.9268C26.6852 23.908 25.4981 23.9158 24.3126 23.9236C23.8646 23.8813 23.4275 24.2533 23.4613 24.7036C23.4453 34.8459 23.4645 44.9913 23.4517 55.1352C23.4775 56.5383 22.5296 57.8869 21.1773 58.3609C18.0541 59.4555 9.13972 53.6675 9.13972 53.6675C8.81258 53.516 8.60484 53.1612 8.6369 52.8087C8.6369 42.6038 8.6385 32.3986 8.6369 22.1952C8.59194 21.7839 8.84548 21.4134 9.22326 21.2455C18.469 16.1564 27.71 11.0545 36.9557 5.96234C37.2767 5.74801 37.7245 5.74865 38.0449 5.9639C47.2906 11.0545 56.5332 16.1517 65.7805 21.241C66.1596 21.4087 66.4023 21.7855 66.3637 22.1952C66.3621 32.3986 66.3669 42.6038 66.3605 52.8072C66.3879 53.1683 66.2014 53.5183 65.8641 53.6769C56.7046 58.7383 47.441 63.6365 38.3645 68.845C37.9685 69.0723 37.5199 69.3297 37.0762 69.0793C34.6893 67.7591 32.3314 66.3874 29.9524 65.0544C29.6938 64.8929 29.3645 64.8238 29.0947 65.0042C28.0279 65.5663 27.0249 66.0216 25.8 66.5064C24.0796 67.1874 24.3546 67.466 25.9059 68.3698C28.6882 69.9443 31.475 71.5126 34.257 73.0886C36.0884 74.2316 38.5493 74.313 40.4398 73.2566C49.7177 68.1439 58.9925 63.0249 68.272 57.9121C70.1191 56.9702 71.406 55.0205 71.3929 52.9673V22.0366C71.4108 20.0651 70.2396 18.1609 68.4888 17.1971C59.1803 12.0529 49.8672 6.91989 40.5571 1.77881Z" fill="#8CC84B"/>
<path d="M54.5558 25.002C50.9145 23.0539 46.5825 22.9502 42.536 23.2047C39.6127 23.4935 36.538 24.3003 34.4081 26.3958C32.2236 28.5025 31.7482 31.9042 32.7858 34.6544C33.5294 36.5976 35.401 37.8614 37.3364 38.5298C39.8298 39.4099 42.4483 39.6821 45.0678 39.9543C47.457 40.2026 49.847 40.451 52.1433 41.1609C53.0814 41.4718 54.1738 41.9474 54.4611 42.9678C54.7264 44.1765 54.4356 45.5815 53.4541 46.4213C50.3369 48.8885 41.6662 48.5105 38.5863 46.5687C37.3412 45.7414 36.8046 44.2769 36.5865 42.8815C36.5623 42.4466 36.2122 42.0477 35.7399 42.0807C34.5576 42.0667 33.3753 42.0698 32.193 42.0792C31.7804 42.0446 31.3515 42.3381 31.3289 42.7591C31.086 49.1509 36.9563 51.9375 42.4639 52.5511C45.6107 52.8508 48.8263 52.8337 51.9249 52.1585C54.2541 51.6281 56.5895 50.6516 58.1929 48.8574C60.1701 46.6771 60.5588 43.4309 59.6721 40.715C58.9942 38.6887 57.0569 37.3887 55.0765 36.72C52.3834 35.7965 49.1917 35.3002 46.7525 35.0679C43.207 34.7301 38.9938 34.8681 37.9904 32.5383C37.5902 31.3185 37.9308 29.8038 39.0519 29.0534C42.018 27.0414 48.0547 27.3086 51.1265 28.8116C52.5371 29.518 53.3544 30.9685 53.6917 32.433C53.7542 32.8633 54.0437 33.3121 54.5417 33.2933C55.7158 33.3167 56.8901 33.2996 58.0641 33.3011C58.4674 33.3295 58.9091 33.1017 58.9878 32.6889C58.9381 29.628 57.3751 26.4949 54.5558 25.002Z" fill="#8CC84B"/>
</svg>
