<svg viewBox="0 0 75 75" fill="none" xmlns="http://www.w3.org/2000/svg">
<path d="M44.0186 37.4419C44.0186 33.9514 41.1003 31.1216 37.5 31.1216C33.9 31.1216 30.9814 33.9514 30.9814 37.4419C30.9814 40.9327 33.9 43.7625 37.5 43.7625C41.1003 43.7625 44.0186 40.9327 44.0186 37.4419Z" fill="#53C1DE"/>
<path fill-rule="evenodd" clip-rule="evenodd" d="M58.6709 25.7079C60.0476 20.2842 61.7779 10.2265 55.6779 6.81658C49.6066 3.42156 41.7059 9.92702 37.5339 13.8319C33.3741 9.96594 25.2514 3.48828 19.1566 6.90898C13.0876 10.3154 14.9592 20.2063 16.3663 25.664C10.7049 27.2231 1 30.5811 1 37.4419C1 44.2832 10.6948 47.9366 16.3226 49.4942C14.9103 54.9821 13.1325 64.7318 19.2093 68.1305C25.3267 71.5506 33.4242 65.2271 37.6347 61.2796C41.8334 65.2074 49.6584 71.5722 55.7309 68.164C61.8227 64.7449 60.236 54.8219 58.8289 49.3325C64.2843 47.7716 74 44.1978 74 37.4419C74 30.647 64.2431 27.2617 58.6709 25.7079ZM57.9795 46.4235C57.0555 43.5877 55.8085 40.5721 54.2829 37.4569C55.739 34.4153 56.9376 31.4386 57.8358 28.621C61.9206 29.7693 70.8817 32.3937 70.8817 37.4419C70.8817 42.5374 62.2826 45.1867 57.9795 46.4235ZM54.1682 65.5472C49.6376 68.09 42.9072 62.0033 39.8064 59.1107C41.8634 56.9293 43.9191 54.3933 45.9254 51.5772C49.4546 51.2737 52.7887 50.7772 55.8124 50.0997C56.8027 53.9825 58.7192 62.9928 54.1682 65.5472ZM20.7675 65.5108C16.2361 62.9776 18.3073 54.2775 19.3463 50.235C22.3363 50.8762 25.6462 51.3376 29.1838 51.6158C31.2033 54.3713 33.3185 56.9042 35.4501 59.1223C32.8165 61.5924 25.32 68.0559 20.7675 65.5108ZM4.11829 37.4419C4.11829 32.3272 13.0257 29.7219 17.2037 28.5765C18.1173 31.4574 19.3156 34.4695 20.7617 37.5155C19.2968 40.6069 18.0815 43.6669 17.1594 46.5817C13.1757 45.4761 4.11829 42.5598 4.11829 37.4419ZM20.719 9.5258C25.2689 6.97232 32.3285 13.1911 35.3487 15.9902C33.228 18.1982 31.1323 20.712 29.1302 23.4516C25.6969 23.7601 22.4103 24.2557 19.3889 24.9194C18.2554 20.5176 16.1741 12.0765 20.719 9.5258ZM48.1562 26.7381C50.4855 27.0232 52.717 27.4022 54.8124 27.8661C54.1834 29.821 53.3993 31.8652 52.476 33.9608C51.1374 31.4981 49.7005 29.0851 48.1562 26.7381ZM37.5349 18.1509C38.9732 19.6617 40.4138 21.3488 41.8308 23.1791C38.9564 23.0474 36.0773 23.0467 33.2028 23.1772C34.6211 21.3638 36.074 19.6792 37.5349 18.1509ZM22.5508 33.9586C21.6427 31.8703 20.8657 29.817 20.2312 27.8341C22.314 27.3821 24.5351 27.0128 26.8493 26.7325C25.3008 29.0743 23.8663 31.4865 22.5508 33.9586ZM26.9158 48.3671C24.5251 48.1084 22.2704 47.7579 20.1882 47.3184C20.8327 45.3005 21.6268 43.203 22.5544 41.0699C23.888 43.5675 25.3442 46.0032 26.9158 48.3671ZM37.6211 56.9465C36.1431 55.4 34.6689 53.6897 33.229 51.8501C36.1199 51.9602 39.0163 51.9604 41.9067 51.8353C40.4852 53.7085 39.0498 55.4213 37.6211 56.9465ZM52.5057 40.9612C53.4814 43.1175 54.3039 45.2037 54.9572 47.1875C52.8404 47.6558 50.5553 48.0329 48.1475 48.3129C49.7032 45.9216 51.1628 43.471 52.5057 40.9612ZM44.185 48.6794C39.7633 48.9857 35.3138 48.9825 30.8906 48.7045C28.3771 45.1447 26.1398 41.4011 24.2085 37.5146C26.1304 33.6361 28.3515 29.8998 30.8531 26.3456C35.2797 26.0212 39.7334 26.0204 44.1598 26.3475C46.6398 29.9015 48.8576 33.6281 50.8241 37.4716C48.8809 41.3482 46.6482 45.092 44.185 48.6794ZM54.1204 9.4359C58.6715 11.981 56.6457 21.0202 55.6515 24.9508C52.623 24.2732 49.3341 23.7689 45.8908 23.4557C43.8849 20.6863 41.8065 18.1681 39.7201 15.9886C42.7792 13.1292 49.6133 6.91568 54.1204 9.4359Z" fill="#53C1DE"/>
</svg>
