<svg viewBox="0 0 75 75" fill="none" xmlns="http://www.w3.org/2000/svg">
<circle cx="37.5" cy="37.5" r="35" fill="#028CB0"/>
<path d="M13.6385 37.5C13.6385 46.9558 19.1385 55.1 27.0923 58.9712L15.7115 27.7904C14.3449 30.845 13.6385 34.1536 13.6385 37.5ZM37.5 61.3615C40.2712 61.3615 42.9365 60.875 45.4327 60.0077L45.2635 59.6904L37.9231 39.5942L30.7731 60.3885C32.8885 61.0231 35.1519 61.3615 37.5 61.3615ZM40.7788 26.3096L49.4096 51.9692L51.8 44.0154C52.8154 40.7154 53.5981 38.3462 53.5981 36.2942C53.5981 33.3327 52.5404 31.3019 51.6519 29.7365C50.425 27.7481 49.3038 26.0769 49.3038 24.1308C49.3038 21.9308 50.9538 19.9 53.3231 19.9H53.6192C49.2225 15.8637 43.4685 13.6285 37.5 13.6385C33.5481 13.6377 29.6579 14.6194 26.1796 16.4952C22.7012 18.371 19.7437 21.0821 17.5731 24.3846L19.0962 24.4269C21.5923 24.4269 25.4423 24.1096 25.4423 24.1096C26.7538 24.0462 26.9019 25.9288 25.6115 26.0769C25.6115 26.0769 24.3212 26.2462 22.8615 26.3096L31.5769 52.1596L36.8019 36.5058L33.0788 26.3096C32.2449 26.2636 31.4125 26.1931 30.5827 26.0981C29.2923 26.0135 29.4404 24.0462 30.7308 24.1096C30.7308 24.1096 34.6654 24.4269 37.0135 24.4269C39.5096 24.4269 43.3596 24.1096 43.3596 24.1096C44.65 24.0462 44.8192 25.9288 43.5288 26.0769C43.5288 26.0769 42.2385 26.225 40.7788 26.3096ZM49.4942 58.125C53.104 56.0261 56.0998 53.0166 58.1823 49.3973C60.2648 45.778 61.361 41.6756 61.3615 37.5C61.3615 33.3538 60.3038 29.4615 58.4423 26.0558C58.8203 29.8027 58.2531 33.5846 56.7923 37.0558L49.4942 58.125ZM37.5 65C30.2065 65 23.2118 62.1027 18.0546 56.9454C12.8973 51.7882 10 44.7935 10 37.5C10 30.2065 12.8973 23.2118 18.0546 18.0546C23.2118 12.8973 30.2065 10 37.5 10C44.7935 10 51.7882 12.8973 56.9454 18.0546C62.1027 23.2118 65 30.2065 65 37.5C65 44.7935 62.1027 51.7882 56.9454 56.9454C51.7882 62.1027 44.7935 65 37.5 65Z" fill="white"/>
</svg>
