<svg viewBox="0 0 26 26" fill="none" xmlns="http://www.w3.org/2000/svg">
<path d="M19.144 14.067V11.933L17.55 13L19.144 14.067ZM20.42 15.261C20.4198 15.2888 20.4178 15.3165 20.414 15.344L20.409 15.372L20.398 15.425L20.388 15.456C20.383 15.472 20.378 15.487 20.371 15.503L20.357 15.533C20.3504 15.5475 20.3434 15.5619 20.336 15.576L20.317 15.606C20.2942 15.6422 20.2673 15.6758 20.237 15.706L20.211 15.731C20.1994 15.7415 20.1874 15.7515 20.175 15.761L20.146 15.783L20.136 15.791L13.354 20.313C13.2492 20.383 13.126 20.4204 13 20.4204C12.874 20.4204 12.7508 20.383 12.646 20.313L5.864 15.79L5.854 15.782C5.83115 15.7662 5.80943 15.7488 5.789 15.73L5.763 15.705L5.731 15.671L5.71 15.643C5.68371 15.6089 5.66124 15.572 5.643 15.533L5.629 15.502C5.62273 15.4866 5.61706 15.4709 5.612 15.455L5.602 15.425C5.598 15.407 5.594 15.389 5.592 15.371L5.586 15.343C5.58217 15.3155 5.58016 15.2878 5.58 15.26V10.739C5.58 10.711 5.582 10.684 5.586 10.656L5.591 10.629L5.602 10.575L5.612 10.545C5.63571 10.4648 5.67667 10.3907 5.732 10.328L5.763 10.294L5.789 10.269C5.80948 10.2502 5.83119 10.2329 5.854 10.217L5.864 10.209L12.646 5.688C12.7508 5.61809 12.874 5.58078 13 5.58078C13.126 5.58078 13.2492 5.61809 13.354 5.688L20.136 10.209L20.146 10.217L20.176 10.239L20.211 10.269C20.221 10.277 20.228 10.285 20.237 10.294C20.2675 10.3241 20.2944 10.3576 20.317 10.394L20.336 10.424C20.3435 10.4381 20.3505 10.4524 20.357 10.467L20.371 10.497C20.378 10.513 20.383 10.529 20.388 10.544L20.398 10.575C20.402 10.593 20.406 10.611 20.408 10.629L20.414 10.656C20.4179 10.6835 20.4199 10.7112 20.42 10.739V15.261ZM13 1C6.373 1 1 6.372 1 13C1 19.627 6.373 25 13 25C19.628 25 25 19.628 25 13C25 6.373 19.628 1 13 1ZM13 11.492L10.745 13L13 14.51L15.255 13L13 11.492ZM13.638 15.616V18.591L18.634 15.261L16.402 13.768L13.638 15.616ZM7.366 15.26L12.362 18.59V15.616L9.598 13.767L7.366 15.26ZM18.634 10.74L13.638 7.41V10.384L16.402 12.234L18.634 10.74ZM12.362 10.384V7.41L7.366 10.74L9.598 12.233L12.362 10.384ZM6.856 11.933V14.067L8.45 13L6.856 11.933Z" fill="white" fill-opacity="0.67"/>
</svg>
