<svg viewBox="0 0 26 26" fill="none" xmlns="http://www.w3.org/2000/svg">
<path d="M13 25C6.385 25 1 19.615 1 13C1 6.385 6.385 1 13 1C19.615 1 25 6.385 25 13C25 19.615 19.615 25 13 25ZM23.12 14.642C22.77 14.532 19.95 13.689 16.736 14.204C18.076 17.888 18.623 20.888 18.728 21.512C21.028 19.957 22.664 17.492 23.123 14.642H23.12ZM17.005 22.45C16.852 21.55 16.255 18.418 14.815 14.68L14.749 14.7C8.959 16.715 6.889 20.725 6.709 21.1C8.439 22.458 10.629 23.266 12.999 23.266C14.419 23.266 15.769 22.976 16.999 22.452L17.005 22.45ZM5.385 19.87C5.617 19.47 8.43 14.815 13.717 13.105C13.852 13.06 13.987 13.021 14.122 12.985C13.862 12.4 13.582 11.818 13.29 11.245C8.17 12.775 3.206 12.71 2.756 12.7L2.752 13.012C2.752 15.645 3.75 18.049 5.386 19.867L5.385 19.87ZM2.965 10.915C3.425 10.923 7.648 10.941 12.442 9.667C10.744 6.649 8.912 4.109 8.642 3.739C5.774 5.089 3.632 7.729 2.966 10.909L2.965 10.915ZM10.6 3.052C10.882 3.432 12.745 5.966 14.422 9.052C18.067 7.687 19.612 5.612 19.795 5.35C17.985 3.74 15.605 2.764 13 2.764C12.175 2.764 11.37 2.864 10.6 3.049V3.052ZM20.935 6.535C20.717 6.825 19 9.028 15.211 10.575C15.451 11.065 15.681 11.56 15.891 12.061C15.971 12.241 16.041 12.421 16.111 12.591C19.521 12.161 22.911 12.851 23.251 12.921C23.231 10.501 22.371 8.281 20.941 6.541L20.935 6.535Z" fill="white" fill-opacity="0.67"/>
</svg>
