<svg viewBox="0 0 26 26" fill="none" xmlns="http://www.w3.org/2000/svg">
<path d="M13 1.29688C6.37 1.29688 1 6.66988 1 13.2969C1 18.5999 4.438 23.0969 9.205 24.6819C9.805 24.7949 10.025 24.4239 10.025 24.1049C10.025 23.8199 10.015 23.0649 10.01 22.0649C6.672 22.7889 5.968 20.4549 5.968 20.4549C5.422 19.0699 4.633 18.6999 4.633 18.6999C3.546 17.9559 4.717 17.9709 4.717 17.9709C5.922 18.0549 6.555 19.2069 6.555 19.2069C7.625 21.0419 9.364 20.5119 10.05 20.2049C10.158 19.4289 10.467 18.8999 10.81 18.5999C8.145 18.2999 5.344 17.2679 5.344 12.6699C5.344 11.3599 5.809 10.2899 6.579 9.44987C6.444 9.14687 6.039 7.92688 6.684 6.27388C6.684 6.27388 7.689 5.95188 9.984 7.50388C10.944 7.23688 11.964 7.10488 12.984 7.09888C14.004 7.10488 15.024 7.23688 15.984 7.50388C18.264 5.95188 19.269 6.27388 19.269 6.27388C19.914 7.92688 19.509 9.14687 19.389 9.44987C20.154 10.2899 20.619 11.3599 20.619 12.6699C20.619 17.2799 17.814 18.2949 15.144 18.5899C15.564 18.9499 15.954 19.6859 15.954 20.8099C15.954 22.4159 15.939 23.7059 15.939 24.0959C15.939 24.4109 16.149 24.7859 16.764 24.6659C21.565 23.0919 25 18.5919 25 13.2969C25 6.66988 19.627 1.29688 13 1.29688" fill="white" fill-opacity="0.67"/>
</svg>
