<svg viewBox="0 0 26 26" fill="none" xmlns="http://www.w3.org/2000/svg">
<path d="M21.447 21.452H17.893V15.883C17.893 14.555 17.866 12.846 16.041 12.846C14.188 12.846 13.905 14.291 13.905 15.785V21.452H10.351V10H13.765V11.561H13.811C14.288 10.661 15.448 9.711 17.181 9.711C20.782 9.711 21.448 12.081 21.448 15.166V21.452H21.447ZM6.337 8.433C5.193 8.433 4.274 7.507 4.274 6.368C4.274 5.23 5.194 4.305 6.337 4.305C7.477 4.305 8.401 5.23 8.401 6.368C8.401 7.507 7.476 8.433 6.337 8.433ZM8.119 21.452H4.555V10H8.119V21.452ZM23.225 1H2.771C1.792 1 1 1.774 1 2.729V23.271C1 24.227 1.792 25 2.771 25H23.222C24.2 25 25 24.227 25 23.271V2.729C25 1.774 24.2 1 23.222 1H23.225Z" fill="white" fill-opacity="0.67"/>
</svg>
