<svg width="29" height="26" viewBox="0 0 29 26" fill="none" xmlns="http://www.w3.org/2000/svg">
<path d="M28.3934 6.29279C28.2296 5.65602 27.9065 5.07484 27.4565 4.60745C27.0065 4.14006 26.4454 3.80286 25.8293 3.62963C23.5685 3 14.5 3 14.5 3C14.5 3 5.43146 3 3.16946 3.62963C2.5537 3.80317 1.9929 4.14049 1.54314 4.60785C1.09337 5.07521 0.770423 5.65623 0.606583 6.29279C0 8.64176 0 13.5417 0 13.5417C0 13.5417 0 18.4416 0.606583 20.7905C0.770416 21.4273 1.09351 22.0085 1.54351 22.4759C1.99352 22.9433 2.55463 23.2805 3.17067 23.4537C5.43146 24.0833 14.5 24.0833 14.5 24.0833C14.5 24.0833 23.5685 24.0833 25.8305 23.4537C26.4466 23.2806 27.0078 22.9434 27.4578 22.476C27.9078 22.0086 28.2309 21.4274 28.3946 20.7905C29 18.4416 29 13.5417 29 13.5417C29 13.5417 29 8.64176 28.3934 6.29279ZM11.5335 17.9902V9.0931L19.1134 13.5417L11.5335 17.9902Z" fill="white" fill-opacity="0.67"/>
</svg>
