<svg xmlns="http://www.w3.org/2000/svg" viewBox="0 0 864.66 835.37"><path d="M860.18,830.73c-6.32,6.15-7.68.53-16.5.53s-8.82,2.17-17.63,2.17-8.82.34-17.63.34-8.82-1.39-17.64-1.39-8.81-1.6-17.63-1.6-8.82,1.33-17.63,1.33-8.82.13-17.64.13-8.81.19-17.63.19-8.82-1.58-17.64-1.58-8.82,0-17.64,0-12.51,8.38-18.83,2.22c-6.15-6,0-9.8,0-18.39s1.25-8.59,1.25-17.17-5.22-10.15.93-16.14c6.31-6.16,7.81-2.23,16.62-2.23s8.82,1.57,17.64,1.57,8.81-2.22,17.63-2.22,8.81,1.63,17.63,1.63,8.82,1.63,17.63,1.63,8.82-.7,17.64-.7,8.81,1.08,17.63,1.08,8.82-3.08,17.64-3.08,8.81,2.65,17.63,2.65,8.82-.63,17.64-.63,12.55-8.15,18.87-2c6.15,6-3,9.85-3,18.43s-.1,8.79,1.46,17.24S866.33,824.74,860.18,830.73Z" style="fill:#00c95a"/><path d="M617.08,832.14c-6.05,6.07-8.81-.81-17.38-.81s-8.57,1.89-17.13,1.89S574,832,565.43,832s-8.57-.28-17.13-.28-8.57,1.09-17.14,1.09H514c-8.57,0-8.57-.09-17.14-.09s-11.8,5.93-17.85-.14.44-9.29.44-17.88,1.53-8.59,1.53-17.17-8.17-11.94-2.1-18,9.4.33,18,.33,8.57-.65,17.13-.65,8.57,1.77,17.14,1.77,8.57-1.81,17.13-1.81,8.57,1.68,17.14,1.68,8.57-1.3,17.14-1.3,8.57,1.73,17.14,1.73,11.28-7.16,17.34-1.1,0,8.78,0,17.36-1.79,8.74.07,17.13C619.07,823.75,623.15,826.06,617.08,832.14Z" style="fill:#ff0a53"/><path d="M405.61,832c-6.05,6.07-8.72,1.17-17.28,1.17s-8.57-1.8-17.14-1.8-8.57-.26-17.14-.26-8.56-.12-17.13-.12-8.57.67-17.14.67-8.57.2-17.14.2-8.57.32-17.14.32-11.76,6.41-17.81.34,1.65-9.25,1.65-17.84-.79-8.59-.79-17.17-6.76-11.61-.7-17.68,9.08-.32,17.64-.32,8.57,2,17.14,2,8.57-1.65,17.14-1.65,8.56-.58,17.13-.58,8.57.65,17.14.65,8.57.95,17.14.95,8.57-.4,17.14-.4,10.38-5.52,16.44.54.94,7.89.94,16.47-2.28,8.83-.44,17.22C407.23,823.79,411.67,826,405.61,832Z" style="fill:#00b6df"/><path d="M391,403.44c-12.52,0-12.52.82-25,.82s-12.52,1.5-25,1.5-12.52-3.5-25-3.5-12.52-.37-25-.37-12.52,2.27-25.05,2.27-12.52,1.82-25,1.82-12.53-1.29-25.05-1.29-12.52,1.7-25,1.7-12.52-2.63-25.05-2.63-12.52-.11-25.05-.11" style="fill:none;stroke:#007cbb;stroke-miterlimit:10;stroke-width:2px"/><text/><text transform="translate(323.51 41.13)" style="font-size:26px;font-family:FrederickatheGreat-Regular, Fredericka the Great">Løse tråde</text><rect x="319.29" y="14.33" width="139.7" height="37.25" style="fill:#fff200"/><text transform="translate(323.51 41.13)" style="font-size:26px;fill:#231f20;font-family:FrederickatheGreat-Regular, Fredericka the Great">Løse tråde</text><path d="M297.07,742.42c-6.06,6.06-9.1-.14-17.66-.14s-8.57-1.73-17.14-1.73H245.13c-8.56,0-8.56,1.09-17.13,1.09s-8.57.34-17.14.34-8.57-1.36-17.14-1.36-8.57,1-17.14,1-11.56,6.8-17.61.74.68-9.06.68-17.65.85-8.59.85-17.17-6.72-10.69-.65-16.77,8.16-1.38,16.73-1.38,8.56.54,17.13.54l17.14,0c8.56,0,8.56.42,17.13.42s8.57-1.28,17.14-1.28,8.57,1,17.14,1,8.57.94,17.14.94,10.25-5.92,16.31.15.47,7.75.47,16.33-2.64,9.06-.72,17.43C297.57,734.18,303.13,736.34,297.07,742.42Z" style="fill:#ff9855"/><text transform="translate(190.08 722.9)" style="font-size:16px;fill:#fff;font-family:FrederickatheGreat-Regular, Fredericka the Great">Udfør det</text><text transform="translate(414.44 721.36)" style="font-size:16px;fill:#fff;font-family:FrederickatheGreat-Regular, Fredericka the Great">Udfør</text><text transform="translate(514.19 811.75)" style="font-size:16px;fill:#fff;font-family:FrederickatheGreat-Regular, Fredericka the Great">Kalender</text><text transform="translate(284.8 813.31)" style="font-size:16px;fill:#fff;font-family:FrederickatheGreat-Regular, Fredericka the Great">Venter på-liste</text><text transform="translate(675.76 812.26)" style="font-size:16px;fill:#fff;font-family:FrederickatheGreat-Regular, Fredericka the Great">Næste handlinger-liste</text><path d="M506.62,741.33c-6.05,6.06-8,1-16.57,1s-8.57-.86-17.14-.86-8.56.26-17.13.26-8.57.65-17.14.65-8.56-.66-17.13-.66-8.57-.09-17.14-.09-8.57.26-17.14.26-10.86,5.84-16.91-.23-1.15-8.35-1.15-16.94,1.68-8.59,1.68-17.17-6.09-10.36,0-16.44,7.82-1,16.39-1,8.57-.61,17.13-.61,8.57,1.63,17.14,1.63,8.57-1.18,17.13-1.18,8.57-.87,17.14-.87,8.57.83,17.14.83l17.14,0c8.57,0,11.94-6.42,18-.35s-1.62,9.44-1.62,18,.15,8.54,1.83,17C510,733.19,512.68,735.25,506.62,741.33Z" style="fill:#ff9855"/><text/><path d="M715.26,741.67c-6,6.07-8.35.72-16.92.72s-8.56.53-17.13.53S672.64,741,664.07,741s-8.57,1.44-17.13,1.44-8.57.35-17.14.35-8.57-1.62-17.14-1.62-8.57,1.47-17.14,1.47-10.64,4.86-16.7-1.2-1.27-8.14-1.27-16.73.18-8.59.18-17.17-6.08-11.76,0-17.84,9.22.19,17.79.19,8.57,1.72,17.14,1.72,8.57-1.8,17.13-1.8,8.57-.12,17.14-.12,8.57,1,17.14,1,8.57.46,17.13.46,8.58.12,17.15.12,10.27-6.15,16.32-.09.39,7.78.39,16.36-2.49,9-.74,17.42C716.15,733.81,721.32,735.59,715.26,741.67Z" style="fill:#ff9855"/><text transform="translate(604.73 722.42)" style="font-size:16px;fill:#fff;font-family:FrederickatheGreat-Regular, Fredericka the Great">Udsæt det</text><text transform="translate(389.18 721.36)" style="font-size:16px;fill:#fff;font-family:FrederickatheGreat-Regular, Fredericka the Great">Uddeleger det</text><path d="M829,400.45c-6.42,6.19-8.26.13-17.18.13s-8.92,1.8-17.84,1.8-8.91-1.72-17.83-1.72-8.92-.05-17.84-.05-8.92.15-17.84.15-8.92.51-17.84.51-10.94,5.55-17.37-.63c-6.18-6,.41-8.09.41-16.68s-2-8.59-2-17.18-5.58-11.73.61-17.69c6.42-6.18,9.42.33,18.33.33s8.92.45,17.84.45,8.92-.1,17.83-.1,8.92-.71,17.84-.71,8.92.51,17.84.51,8.92,0,17.84,0,12.19-6.91,18.62-.73c6.19,6-.74,9.4-.74,18s-2.24,8.86-.55,17.28C830.81,392.71,835.14,394.49,829,400.45Z" style="fill:#978aff"/><text transform="translate(732.89 380.51)" style="font-size:16px;fill:#fff;font-family:FrederickatheGreat-Regular, Fredericka the Great">Reference</text><path d="M144.31,431.42c-6.43,6.19-8.09.74-17,.74s-8.92-.68-17.83-.68-8.92-.2-17.84-.2-8.92.16-17.84.16-8.92.46-17.84.46-8.92-.58-17.84-.58-10.93,6.65-17.35.46c-6.19-5.95-.86-8.08-.86-16.67s.8-8.58.8-17.17-6.89-11.51-.71-17.46c6.43-6.19,9.2.22,18.12.22s8.91-.44,17.83-.44,8.92,1.24,17.84,1.24,8.91-.45,17.83-.45,8.92-1.16,17.84-1.16,8.93,1.43,17.85,1.43,11.33-6.66,17.76-.47c6.19,5.95.59,8.5.59,17.09s-1.9,8.69-.26,17.12S150.49,425.47,144.31,431.42Z" style="fill:#c2b59b"/><text transform="translate(41.99 413.47)" style="font-size:16px;fill:#fff;font-family:FrederickatheGreat-Regular, Fredericka the Great">Projekt-liste</text><path d="M829.55,307.92c-6.43,6.19-8.86.81-17.78.81s-8.92-.88-17.84-.88-8.91.7-17.83.7-8.92-1.6-17.84-1.6-8.92.2-17.84.2-8.92,1.22-17.84,1.22-10.86,5.22-17.28-1c-6.19-5.95-.47-8-.47-16.59s-.86-8.59-.86-17.17-5.23-11,1-17c6.42-6.19,8.73-1.24,17.64-1.24s8.92,1.36,17.84,1.36,8.92-.54,17.83-.54,8.92.83,17.84.83,8.92-.5,17.84-.5,8.92.43,17.84.43,11.18-6.48,17.61-.29c6.18,6,.73,8.34.73,16.92s-3.37,9-1.55,17.41C830.48,300,835.73,302,829.55,307.92Z" style="fill:#978aff"/><text transform="translate(726.89 287.36)" style="font-size:16px;fill:#fff;font-family:FrederickatheGreat-Regular, Fredericka the Great">Påmindelse</text><path d="M830.08,221.62c-6.43,6.19-9.39-.14-18.31-.14s-8.92.5-17.84.5-8.91-.58-17.83-.58-8.92-1.4-17.84-1.4-8.92,1.17-17.84,1.17-8.92-.16-17.84-.16-11.66,6.56-18.09.38c-6.18-6,.82-8.84.82-17.43s-1.19-8.59-1.19-17.18-5.72-11.37.46-17.33c6.43-6.19,9.08.18,18,.18s8.92.09,17.84.09,8.92-1.32,17.83-1.32,8.92,2.44,17.84,2.44,8.92-1.22,17.84-1.22,8.92.57,17.84.57,11.63-7,18-.8c6.19,6,0,8.81,0,17.39s-2,8.78-.06,17.15C831.85,213.14,836.26,215.66,830.08,221.62Z" style="fill:#978aff"/><text transform="translate(742.01 200.29)" style="font-size:16px;fill:#fff;font-family:FrederickatheGreat-Regular, Fredericka the Great">Affald</text><path d="M704.74,375.2c-8.91,0-8.91-2.09-17.83-2.09s-8.91-.05-17.83-.05-8.91,1.24-17.83,1.24-8.91.85-17.83.85-11.84,5.84-18.15-.46-.28-9.22-.28-18.12-.58-8.9-.58-17.79,2.42-8.9,2.42-17.8-2.38-8.9-2.38-17.8,1-8.9,1-17.8,1.05-8.9,1.05-17.8-1.41-8.9-1.41-17.8-.43-8.9-.43-17.8,2.25-8.9,2.25-17.8-8.25-12.19-2-18.48,9.58-1,18.49-1,8.92,1.72,17.83,1.72,8.92-.49,17.83-.49,8.92,2,17.83,2,8.92-1.62,17.84-1.62" style="fill:none;stroke:#007cbb;stroke-miterlimit:10;stroke-width:2px"/><path d="M708.06,283.73c-8.91,0-8.91-.73-17.83-.73s-8.91-1.14-17.83-1.14-8.92,1.5-17.83,1.5-8.92-2.91-17.83-2.91-8.92.54-17.84.54-8.92,1.45-17.83,1.45-8.92-.09-17.83-.09-8.92-.33-17.84-.33-8.92,1.28-17.84,1.28-8.92.85-17.84.85-8.92-2.74-17.84-2.74" style="fill:none;stroke:#007cbb;stroke-miterlimit:10;stroke-width:2px"/><path d="M645.58,690.37c0-9.29,2.24-9.29,2.24-18.59s4.91-10.9-2.44-16.58c-9.5-7.35-10.47-1.39-22.48-1.39s-12-2.93-24-2.93-12,4-24,4-14.36,5.76-22.38-3.19c-9-10-.17-11.93-.17-25.33s-2.72-13.41-2.72-26.82.89-13.41.89-26.82,10.73-18,2.08-28.28c-7.3-8.65-13,3.28-24.37,3.28s-11.32-3-22.64-3-11.32,3.66-22.64,3.66-11.32-.49-22.64-.49-11.32-1-22.64-1-11.32-1.78-22.64-1.78-11.33-1.54-22.65-1.54" style="fill:none;stroke:#007cbb;stroke-miterlimit:10;stroke-width:2px"/><path d="M432.63,690.37c0-16.53-10.33-20.55-.35-33.74,7.55-10,13.39.27,25.9.27s12.51-.35,25-.35,12.51.59,25,.59,12.51.8,25,.8,12.51-1.67,25-1.67" style="fill:none;stroke:#007cbb;stroke-miterlimit:10;stroke-width:2px"/><line x1="405.46" y1="806.13" x2="287.55" y2="806.13" style="fill:none"/><path d="M405.46,806.41c9.68,0,9.68-.4,19.36-.4s13.33,7.7,19.55.29c6.9-8.21-1.2-10.85-1.89-21.56s-.2-10.74-.89-21.44-1-10.69-1.66-21.4" style="fill:none;stroke:#007cbb;stroke-miterlimit:10;stroke-width:2px"/><path d="M640.78,741.89c0,10.71-.79,10.71-.79,21.41s1,10.71,1,21.42-.89,10.71-.89,21.41" style="fill:none;stroke:#007cbb;stroke-miterlimit:10;stroke-width:2px"/><path d="M616.84,806.48c12.62,0,12.62-.41,25.24-.41s12.63.52,25.25.52" style="fill:none;stroke:#007cbb;stroke-miterlimit:10;stroke-width:2px"/><path d="M225.48,690.37c0-11.85,2.73-11.85,2.73-23.69s8.26-11.85,8.26-23.7-8.77-11.84-8.77-23.69.77-11.85.77-23.69.45-11.85.45-23.7.18-11.85.18-23.7c0-.88,1.25-3.47,2.13-3.54,11.33-.88,11.5,4.94,22.87,4.94s11.37,1.52,22.73,1.52,11.37.6,22.74.6,11.37-5.4,22.73-5.4,11.37,3.93,22.74,3.93,11.37-2.09,22.74-2.09,12.63,3.63,23.2-.56c8.38-3.32-4.54-10.19-4.53-19.2s2.95-23.46,2.95-23.51c.24,0,1.36,2.58,1.56,2.58,12.26,0,12.26.86,24.51.86s12.25,5.05,24.5,5.05S452.22,505,464.48,505s18.21,16.39,26.88,7.73.22-14.61.22-26.84,5.28-15-3.39-23.66-11.51-6.32-23.8-6.32-12.3,8.56-24.6,8.56-12.3-7.44-24.6-7.44-19.28,16.54-28.06,7.92c-8.61-8.45,4.41-15.58,4.42-27.65s2.78-12.06,2.79-24.12-4.9-12.07-4.89-24.13,3.25-12.07,3.26-24.13-6.39-12.07-6.38-24.13S392,328.75,392,316.68s-4-12.06-4-24.13-1-12.06-1-24.13-2.61-12.06-2.6-24.13,7.12-12,7.13-24.12,2.52-12.06,2.53-24.12,2.44-12.07,2.45-24.13-6.25-12.07-6.24-24.14-.54-12.06-.53-24.13,5.85-12.06,5.87-24.13-3.23-12.07-3.21-24.13-3.22-12.07-3.2-24.14" style="fill:none;stroke:#007cbb;stroke-miterlimit:10;stroke-width:2px"/><path d="M512.1,428.33c-6.27,6.13-7.09,2.37-15.86,2.37s-8.77-2.62-17.54-2.62-8.77,1.61-17.54,1.61-8.78.58-17.55.58-8.77.25-17.54.25-8.77-.42-17.54-.42-8.78.91-17.55.91-8.77-2.16-17.54-2.16-8.78-1-17.55-1-8.77,1-17.54,1-8.78,3.35-17.55,3.35-8.77-4.52-17.55-4.52-8.77.11-17.55.11-10.75,7.85-17,1.71-.62-8-.62-16.63.53-8.59.53-17.18-6.08-10.66.05-16.67,8.28.07,17.05.07,8.77-2.54,17.54-2.54,8.77,2.57,17.54,2.57,8.78-.19,17.55-.19,8.77.72,17.54.72,8.77-2,17.54-2,8.78-.82,17.55-.82,8.77.84,17.54.84,8.78,1.1,17.55,1.1,8.77,1.62,17.54,1.62,8.77-2.42,17.55-2.42,8.77,2.21,17.55,2.21,8.77-.54,17.55-.54,10.12-6.09,16.4.05.25,7.41.25,16-1,8.79.39,17.26C514.63,421.11,518.24,422.32,512.1,428.33Z" style="fill:#ff7f9c"/><text transform="translate(284.8 413.47)" style="font-size:16px;fill:#fff;font-family:FrederickatheGreat-Regular, Fredericka the Great">Hvad er den næste handling?</text><path d="M513.17,307.36c-6.4,6.18-8.29-.48-17.19-.48s-8.9,1.42-17.79,1.42-8.9,2.14-17.8,2.14-8.9-3.69-17.8-3.69-8.9,2.68-17.8,2.68-8.89-.77-17.79-.77-8.9-3.16-17.8-3.16-8.9.81-17.8.81S362.5,308,353.6,308s-8.9-1.88-17.8-1.88-8.9,3.63-17.8,3.63-8.9-3.37-17.81-3.37-8.9,2.32-17.8,2.32-10.58,4.63-17-1.55c-6.18-6-.08-7.73-.08-16.32s.59-8.59.59-17.17-7.62-11.34-1.44-17.3c6.4-6.18,9,1.68,17.91,1.68s8.9.84,17.8.84,8.89-.21,17.79-.21,8.9-1.29,17.8-1.29,8.9,0,17.8,0,8.9-.73,17.8-.73,8.89,1.19,17.79,1.19,8.9-.43,17.8-.43,8.9-1.94,17.8-1.94,8.9,2.9,17.8,2.9,8.9.47,17.8.47,8.91-4.64,17.81-4.64,8.9,0,17.8,0,10.88-3.31,17.28,2.87c6.19,6-1.89,8-1.89,16.62s1.68,8.57,3.37,17C516.47,299.29,519.35,301.39,513.17,307.36Z" style="fill:#6acaff"/><text transform="translate(296.54 287.87)" style="font-size:16px;fill:#fff;font-family:FrederickatheGreat-Regular, Fredericka the Great">Kan der handles på det?</text><path d="M512.58,129.89c-6.41,6.18-7.7,1.22-16.6,1.22s-8.9,2.16-17.79,2.16-8.9-1.67-17.8-1.67-8.9,2-17.8,2-8.9-4.2-17.8-4.2-8.89.14-17.79.14-8.9.71-17.8.71-8.9.05-17.8.05-8.9-.29-17.8-.29-8.9,2.73-17.8,2.73-8.9,0-17.8,0-8.9-3.48-17.81-3.48-8.9-.12-17.8-.12-11.87,8.74-18.28,2.56c-6.18-6-1.95-9.07-1.95-17.66s3.44-8.59,3.44-17.18-7.13-11.14-1-17.1c6.4-6.18,8.83,2,17.73,2s8.9-1.39,17.8-1.39,8.89.24,17.79.24,8.9-1.85,17.8-1.85,8.9,1.24,17.8,1.24,8.9.49,17.8.49,8.89-2.5,17.79-2.5S398.06,79,407,79s8.9,1.13,17.8,1.13,8.9,1.17,17.8,1.17,8.9.61,17.8.61S469.27,80,478.17,80s8.9,1.4,17.8,1.4,9.69-6.21,16.1,0c6.18,6,2.25,6.81,2.25,15.39s-.37,8.41,1.18,16.86S518.76,123.92,512.58,129.89Z" style="fill:#6acaff"/><text transform="translate(359.14 110.29)" style="font-size:16px;fill:#fff;font-family:FrederickatheGreat-Regular, Fredericka the Great">Indbakke</text><path d="M512.59,219.9c-6.4,6.18-7.71-1.19-16.61-1.19s-8.9,0-17.79,0-8.9,1.75-17.8,1.75-8.9,3-17.8,3-8.9-3.17-17.8-3.17S415.9,221.8,407,221.8s-8.9-3.1-17.8-3.1-8.9,2.78-17.8,2.78-8.9-2.31-17.8-2.31-8.9,1.45-17.8,1.45-8.9,1.53-17.8,1.53-8.9-3.07-17.81-3.07-8.9,3.9-17.8,3.9-10.29,3.18-16.69-3c-6.18-6-2-7.43-2-16s-.33-8.59-.33-17.18-4.74-11,1.44-16.93c6.41-6.18,8.67,2,17.57,2s8.9-1.85,17.8-1.85,8.89.28,17.79.28,8.9.11,17.8.11,8.9-3,17.8-3,8.9,3.92,17.8,3.92,8.89-2,17.79-2,8.9,2.59,17.8,2.59,8.9-2.45,17.8-2.45,8.9-2.2,17.8-2.2,8.9.87,17.8.87,8.91,2.3,17.81,2.3,8.9-2.25,17.8-2.25,11.37-4.69,17.78,1.49c6.18,6-1.9,8.56-1.9,17.14s-.76,8.94.8,17.39S518.77,213.94,512.59,219.9Z" style="fill:#6acaff"/><text transform="translate(339.96 200.79)" style="font-size:16px;fill:#fff;font-family:FrederickatheGreat-Regular, Fredericka the Great">Hvad er det?</text><a href="https://joachimdanielsen.dk/projects/studybuddy/articles/getting-things-done/getting-things-done.html#workflowdiagram"><text transform="translate(0.94 88.7)" style="font-size:48px;font-family:FrederickatheGreat-Regular, Fredericka the Great">Klik her<tspan x="0" y="57.6">for at</tspan><tspan x="0" y="115.2">komme </tspan><tspan x="0" y="172.8">tilbage</tspan></text></a><text transform="translate(296.23 508.7)" style="font-size:26px;font-family:FrederickatheGreat-Regular, Fredericka the Great">&gt; 2 minutter ?</text><rect x="292.23" y="481.9" width="170.32" height="37.25" style="fill:#fff200"/><text transform="translate(296.23 508.7)" style="font-size:26px;fill:#231f20;font-family:FrederickatheGreat-Regular, Fredericka the Great">&gt; 2 minutter ?</text><text transform="translate(541.66 270.08)" style="font-size:26px;font-family:FrederickatheGreat-Regular, Fredericka the Great">Nej</text><text transform="translate(563.81 607.11)" style="font-size:26px;font-family:FrederickatheGreat-Regular, Fredericka the Great">Nej</text><text transform="translate(343.42 351.25)" style="font-size:26px;font-family:FrederickatheGreat-Regular, Fredericka the Great">Ja</text><text transform="translate(190.21 613.55)" style="font-size:26px;font-family:FrederickatheGreat-Regular, Fredericka the Great">Ja</text></svg>