<svg xmlns="http://www.w3.org/2000/svg" viewBox="0 0 847.24 835.37"><path d="M842.76,830.73c-6.32,6.15-7.68.53-16.5.53s-8.81,2.17-17.63,2.17-8.82.34-17.63.34-8.82-1.39-17.63-1.39-8.82-1.6-17.64-1.6-8.81,1.33-17.63,1.33-8.82.13-17.63.13-8.82.19-17.64.19-8.82-1.58-17.64-1.58-8.82,0-17.64,0-12.5,8.38-18.82,2.22c-6.16-6,0-9.8,0-18.39s1.25-8.59,1.25-17.17-5.22-10.15.93-16.14c6.32-6.16,7.81-2.23,16.62-2.23s8.82,1.57,17.64,1.57,8.81-2.22,17.63-2.22,8.82,1.63,17.63,1.63,8.82,1.63,17.64,1.63,8.81-.7,17.63-.7,8.82,1.08,17.63,1.08,8.82-3.08,17.64-3.08,8.82,2.65,17.64,2.65,8.82-.63,17.64-.63,12.54-8.15,18.86-2c6.15,6-3,9.85-3,18.43s-.1,8.79,1.45,17.24S848.91,824.74,842.76,830.73Z" style="fill:#00c95a"/><path d="M599.67,832.14c-6,6.07-8.82-.81-17.39-.81s-8.56,1.89-17.13,1.89S556.58,832,548,832s-8.57-.28-17.13-.28-8.57,1.09-17.14,1.09H496.6c-8.57,0-8.57-.09-17.14-.09s-11.79,5.93-17.85-.14.45-9.29.45-17.88,1.53-8.59,1.53-17.17-8.18-11.94-2.11-18,9.4.33,18,.33,8.57-.65,17.14-.65,8.57,1.77,17.13,1.77,8.57-1.81,17.14-1.81,8.57,1.68,17.14,1.68,8.57-1.3,17.14-1.3,8.57,1.73,17.14,1.73,11.27-7.16,17.33-1.1,0,8.78,0,17.36-1.78,8.74.07,17.13C601.65,823.75,605.73,826.06,599.67,832.14Z" style="fill:#ff0a53"/><path d="M388.19,832c-6.05,6.07-8.71,1.17-17.28,1.17s-8.57-1.8-17.14-1.8-8.57-.26-17.13-.26-8.57-.12-17.14-.12-8.57.67-17.14.67-8.57.2-17.14.2-8.57.32-17.14.32-11.75,6.41-17.81.34,1.65-9.25,1.65-17.84-.79-8.59-.79-17.17-6.76-11.61-.7-17.68,9.08-.32,17.65-.32,8.56,2,17.13,2,8.57-1.65,17.14-1.65,8.56-.58,17.13-.58,8.57.65,17.14.65,8.57.95,17.14.95,8.57-.4,17.14-.4,10.38-5.52,16.44.54,1,7.89,1,16.47-2.29,8.83-.45,17.22C389.81,823.79,394.26,826,388.19,832Z" style="fill:#00b6df"/><path d="M373.55,403.44c-12.52,0-12.52.82-25.05.82s-12.52,1.5-25,1.5-12.52-3.5-25-3.5-12.52-.37-25-.37-12.52,2.27-25,2.27-12.52,1.82-25,1.82-12.52-1.29-25-1.29-12.52,1.7-25,1.7-12.53-2.63-25-2.63-12.53-.11-25.05-.11" style="fill:none;stroke:#007cbb;stroke-miterlimit:10;stroke-width:2px"/><text/><text transform="translate(306.1 41.13)" style="font-size:26px;font-family:FrederickatheGreat-Regular, Fredericka the Great">Løse tråde</text><rect x="301.87" y="14.33" width="139.7" height="37.25" style="fill:#fff200"/><text transform="translate(306.1 41.13)" style="font-size:26px;fill:#231f20;font-family:FrederickatheGreat-Regular, Fredericka the Great">Løse tråde</text><path d="M279.65,742.42c-6,6.06-9.09-.14-17.66-.14s-8.57-1.73-17.14-1.73H227.72c-8.57,0-8.57,1.09-17.14,1.09s-8.56.34-17.13.34-8.57-1.36-17.14-1.36-8.57,1-17.15,1-11.56,6.8-17.61.74.68-9.06.68-17.65.85-8.59.85-17.17-6.71-10.69-.65-16.77,8.16-1.38,16.73-1.38,8.57.54,17.13.54l17.14,0c8.57,0,8.57.42,17.13.42s8.57-1.28,17.14-1.28,8.57,1,17.14,1,8.57.94,17.14.94,10.25-5.92,16.31.15.47,7.75.47,16.33S276.12,716.6,278,725C280.15,734.18,285.71,736.34,279.65,742.42Z" style="fill:#ff9855"/><text transform="translate(172.66 722.9)" style="font-size:16px;fill:#fff;font-family:FrederickatheGreat-Regular, Fredericka the Great">Udfør det</text><text transform="translate(397.02 721.36)" style="font-size:16px;fill:#fff;font-family:FrederickatheGreat-Regular, Fredericka the Great">Udfør</text><text transform="translate(496.77 811.75)" style="font-size:16px;fill:#fff;font-family:FrederickatheGreat-Regular, Fredericka the Great">Kalender</text><text transform="translate(267.39 813.31)" style="font-size:16px;fill:#fff;font-family:FrederickatheGreat-Regular, Fredericka the Great">Venter på-liste</text><text transform="translate(658.34 812.26)" style="font-size:16px;fill:#fff;font-family:FrederickatheGreat-Regular, Fredericka the Great">Næste handlinger-liste</text><path d="M489.2,741.33c-6.05,6.06-8,1-16.57,1s-8.57-.86-17.13-.86-8.57.26-17.14.26-8.57.65-17.13.65-8.57-.66-17.14-.66-8.57-.09-17.14-.09-8.57.26-17.14.26-10.86,5.84-16.91-.23-1.15-8.35-1.15-16.94,1.68-8.59,1.68-17.17-6.08-10.36,0-16.44,7.82-1,16.39-1,8.57-.61,17.14-.61,8.56,1.63,17.13,1.63,8.57-1.18,17.14-1.18,8.56-.87,17.13-.87,8.57.83,17.14.83,8.57,0,17.15,0,11.94-6.42,18-.35S489,699,489,707.54s.16,8.54,1.83,17C492.55,733.19,495.26,735.25,489.2,741.33Z" style="fill:#ff9855"/><text/><path d="M697.84,741.67c-6.05,6.07-8.35.72-16.91.72s-8.57.53-17.14.53S655.22,741,646.65,741s-8.56,1.44-17.13,1.44-8.57.35-17.14.35-8.57-1.62-17.14-1.62-8.57,1.47-17.14,1.47-10.64,4.86-16.69-1.2-1.28-8.14-1.28-16.73.18-8.59.18-17.17-6.08-11.76,0-17.84,9.23.19,17.79.19,8.57,1.72,17.14,1.72,8.57-1.8,17.14-1.8,8.56-.12,17.13-.12,8.57,1,17.14,1,8.57.46,17.14.46,8.57.12,17.14.12,10.27-6.15,16.33-.09.38,7.78.38,16.36-2.49,9-.74,17.42C698.73,733.81,703.9,735.59,697.84,741.67Z" style="fill:#ff9855"/><text transform="translate(587.32 722.42)" style="font-size:16px;fill:#fff;font-family:FrederickatheGreat-Regular, Fredericka the Great">Udsæt det</text><text transform="translate(371.76 721.36)" style="font-size:16px;fill:#fff;font-family:FrederickatheGreat-Regular, Fredericka the Great">Uddeleger det</text><path d="M811.53,400.45c-6.42,6.19-8.26.13-17.18.13s-8.92,1.8-17.83,1.8-8.92-1.72-17.84-1.72-8.92-.05-17.84-.05-8.92.15-17.84.15-8.92.51-17.84.51-10.94,5.55-17.36-.63c-6.19-6,.4-8.09.4-16.68s-2-8.59-2-17.18-5.58-11.73.6-17.69c6.43-6.18,9.42.33,18.34.33s8.91.45,17.83.45,8.92-.1,17.84-.1,8.92-.71,17.83-.71,8.92.51,17.84.51,8.93,0,17.85,0,12.19-6.91,18.61-.73c6.19,6-.74,9.4-.74,18s-2.23,8.86-.55,17.28C813.39,392.71,817.72,394.49,811.53,400.45Z" style="fill:#978aff"/><text transform="translate(715.47 380.51)" style="font-size:16px;fill:#fff;font-family:FrederickatheGreat-Regular, Fredericka the Great">Reference</text><path d="M126.89,431.42c-6.43,6.19-8.09.74-17,.74s-8.92-.68-17.84-.68-8.92-.2-17.83-.2-8.92.16-17.84.16-8.92.46-17.84.46-8.92-.58-17.85-.58S9.77,438,3.34,431.78c-6.19-5.95-.86-8.08-.86-16.67s.81-8.58.81-17.17-6.9-11.51-.71-17.46c6.42-6.19,9.19.22,18.11.22s8.92-.44,17.84-.44,8.91,1.24,17.83,1.24,8.92-.45,17.84-.45,8.92-1.16,17.84-1.16,8.92,1.43,17.84,1.43,11.33-6.66,17.76-.47c6.19,5.95.6,8.5.6,17.09s-1.9,8.69-.27,17.12S133.07,425.47,126.89,431.42Z" style="fill:#c2b59b"/><text transform="translate(24.57 413.47)" style="font-size:16px;fill:#fff;font-family:FrederickatheGreat-Regular, Fredericka the Great">Projekt-liste</text><path d="M812.13,307.92c-6.42,6.19-8.86.81-17.78.81s-8.92-.88-17.83-.88-8.92.7-17.84.7-8.92-1.6-17.84-1.6-8.92.2-17.84.2-8.92,1.22-17.84,1.22-10.85,5.22-17.28-1c-6.19-5.95-.46-8-.46-16.59s-.87-8.59-.87-17.17-5.23-11,1-17c6.42-6.19,8.73-1.24,17.65-1.24s8.91,1.36,17.83,1.36,8.92-.54,17.84-.54,8.92.83,17.83.83,8.92-.5,17.84-.5,8.93.43,17.85.43,11.17-6.48,17.6-.29c6.19,6,.73,8.34.73,16.92s-3.37,9-1.55,17.41C813.06,300,818.32,302,812.13,307.92Z" style="fill:#978aff"/><text transform="translate(709.47 287.36)" style="font-size:16px;fill:#fff;font-family:FrederickatheGreat-Regular, Fredericka the Great">Påmindelse</text><path d="M812.66,221.62c-6.42,6.19-9.39-.14-18.31-.14s-8.92.5-17.83.5-8.92-.58-17.84-.58-8.92-1.4-17.84-1.4-8.92,1.17-17.84,1.17-8.92-.16-17.84-.16-11.66,6.56-18.08.38c-6.19-6,.81-8.84.81-17.43s-1.18-8.59-1.18-17.18-5.73-11.37.46-17.33c6.42-6.19,9.07.18,18,.18s8.91.09,17.83.09,8.92-1.32,17.84-1.32,8.92,2.44,17.83,2.44,8.92-1.22,17.84-1.22,8.93.57,17.85.57,11.62-7,18-.8c6.18,6,0,8.81,0,17.39s-2,8.78-.05,17.15C814.43,213.14,818.85,215.66,812.66,221.62Z" style="fill:#978aff"/><text transform="translate(724.59 200.29)" style="font-size:16px;fill:#fff;font-family:FrederickatheGreat-Regular, Fredericka the Great">Affald</text><path d="M687.32,375.2c-8.91,0-8.91-2.09-17.82-2.09s-8.92-.05-17.83-.05-8.92,1.24-17.83,1.24-8.92.85-17.84.85-11.83,5.84-18.15-.46-.27-9.22-.27-18.12-.59-8.9-.59-17.79,2.43-8.9,2.43-17.8-2.39-8.9-2.39-17.8,1-8.9,1-17.8,1-8.9,1-17.8-1.41-8.9-1.41-17.8-.43-8.9-.43-17.8,2.25-8.9,2.25-17.8-8.25-12.19-2-18.48,9.58-1,18.49-1,8.92,1.72,17.83,1.72,8.92-.49,17.83-.49,8.92,2,17.84,2,8.91-1.62,17.83-1.62" style="fill:none;stroke:#007cbb;stroke-miterlimit:10;stroke-width:2px"/><path d="M690.65,283.73c-8.92,0-8.92-.73-17.83-.73s-8.92-1.14-17.84-1.14-8.91,1.5-17.83,1.5-8.92-2.91-17.83-2.91-8.92.54-17.84.54-8.91,1.45-17.83,1.45-8.92-.09-17.83-.09S556.9,282,548,282s-8.92,1.28-17.84,1.28-8.92.85-17.84.85-8.92-2.74-17.84-2.74" style="fill:none;stroke:#007cbb;stroke-miterlimit:10;stroke-width:2px"/><path d="M628.16,690.37c0-9.29,2.25-9.29,2.25-18.59s4.9-10.9-2.45-16.58c-9.5-7.35-10.46-1.39-22.48-1.39s-12-2.93-24-2.93-12,4-24,4-14.36,5.76-22.37-3.19c-8.95-10-.17-11.93-.17-25.33s-2.73-13.41-2.73-26.82.89-13.41.89-26.82,10.73-18,2.08-28.28c-7.3-8.65-13,3.28-24.37,3.28s-11.32-3-22.64-3-11.32,3.66-22.64,3.66-11.32-.49-22.64-.49-11.32-1-22.64-1-11.32-1.78-22.64-1.78-11.32-1.54-22.65-1.54" style="fill:none;stroke:#007cbb;stroke-miterlimit:10;stroke-width:2px"/><path d="M415.22,690.37c0-16.53-10.34-20.55-.36-33.74,7.55-10,13.39.27,25.91.27s12.51-.35,25-.35,12.51.59,25,.59,12.52.8,25,.8,12.51-1.67,25-1.67" style="fill:none;stroke:#007cbb;stroke-miterlimit:10;stroke-width:2px"/><line x1="388.04" y1="806.13" x2="270.13" y2="806.13" style="fill:none"/><path d="M388,806.41c9.68,0,9.68-.4,19.36-.4s13.33,7.7,19.56.29c6.9-8.21-1.21-10.85-1.9-21.56s-.2-10.74-.88-21.44-1-10.69-1.66-21.4" style="fill:none;stroke:#007cbb;stroke-miterlimit:10;stroke-width:2px"/><path d="M623.36,741.89c0,10.71-.79,10.71-.79,21.41s1,10.71,1,21.42-.89,10.71-.89,21.41" style="fill:none;stroke:#007cbb;stroke-miterlimit:10;stroke-width:2px"/><path d="M599.42,806.48c12.62,0,12.62-.41,25.25-.41s12.62.52,25.24.52" style="fill:none;stroke:#007cbb;stroke-miterlimit:10;stroke-width:2px"/><path d="M208.06,690.37c0-11.85,2.74-11.85,2.74-23.69s8.25-11.85,8.25-23.7-8.77-11.84-8.77-23.69.77-11.85.77-23.69.45-11.85.45-23.7.18-11.85.18-23.7c0-.88,1.25-3.47,2.13-3.54,11.33-.88,11.51,4.94,22.87,4.94s11.37,1.52,22.74,1.52,11.36.6,22.73.6,11.37-5.4,22.73-5.4,11.37,3.93,22.74,3.93,11.37-2.09,22.74-2.09,12.63,3.63,23.2-.56c8.38-3.32-4.54-10.19-4.53-19.2s3-23.46,3-23.51c.24,0,1.36,2.58,1.57,2.58,12.25,0,12.25.86,24.5.86s12.25,5.05,24.5,5.05S434.81,505,447.06,505s18.21,16.39,26.88,7.73.23-14.61.23-26.84,5.27-15-3.4-23.66-11.5-6.32-23.8-6.32-12.3,8.56-24.6,8.56-12.3-7.44-24.6-7.44-19.28,16.54-28,7.92c-8.61-8.45,4.41-15.58,4.42-27.65s2.77-12.06,2.78-24.12S372,401.13,372,389.07s3.26-12.07,3.27-24.13-6.4-12.07-6.38-24.13,5.63-12.06,5.65-24.13-4-12.06-4-24.13-1-12.06-1-24.13S367,256.36,367,244.29s7.11-12,7.12-24.12,2.52-12.06,2.53-24.12,2.44-12.07,2.46-24.13-6.26-12.07-6.25-24.14-.54-12.06-.53-24.13,5.86-12.06,5.87-24.13S375,87.45,375,75.39s-3.21-12.07-3.2-24.14" style="fill:none;stroke:#007cbb;stroke-miterlimit:10;stroke-width:2px"/><path d="M494.68,428.33c-6.26,6.13-7.09,2.37-15.86,2.37s-8.77-2.62-17.54-2.62-8.77,1.61-17.54,1.61-8.77.58-17.54.58-8.78.25-17.55.25-8.77-.42-17.54-.42-8.77.91-17.55.91-8.77-2.16-17.54-2.16-8.77-1-17.55-1-8.77,1-17.54,1-8.77,3.35-17.55,3.35-8.77-4.52-17.55-4.52-8.77.11-17.55.11-10.75,7.85-17,1.71-.62-8-.62-16.63.53-8.59.53-17.18-6.08-10.66.06-16.67,8.27.07,17,.07,8.77-2.54,17.54-2.54,8.77,2.57,17.54,2.57,8.77-.19,17.54-.19,8.77.72,17.54.72,8.78-2,17.55-2,8.77-.82,17.54-.82,8.77.84,17.54.84,8.78,1.1,17.55,1.1,8.77,1.62,17.54,1.62,8.78-2.42,17.55-2.42,8.78,2.21,17.55,2.21,8.78-.54,17.55-.54,10.13-6.09,16.4.05.25,7.41.25,16-1,8.79.39,17.26C497.22,421.11,500.82,422.32,494.68,428.33Z" style="fill:#ff7f9c"/><text transform="translate(267.39 413.47)" style="font-size:16px;fill:#fff;font-family:FrederickatheGreat-Regular, Fredericka the Great">Hvad er den næste handling?</text><path d="M495.76,307.36c-6.41,6.18-8.3-.48-17.2-.48s-8.89,1.42-17.79,1.42-8.9,2.14-17.8,2.14-8.9-3.69-17.79-3.69-8.9,2.68-17.8,2.68-8.9-.77-17.8-.77-8.9-3.16-17.8-3.16-8.9.81-17.8.81-8.9,1.67-17.8,1.67-8.9-1.88-17.8-1.88-8.9,3.63-17.8,3.63-8.9-3.37-17.8-3.37-8.91,2.32-17.81,2.32-10.58,4.63-17-1.55c-6.19-6-.09-7.73-.09-16.32s.59-8.59.59-17.17-7.62-11.34-1.44-17.3c6.4-6.18,9,1.68,17.91,1.68s8.9.84,17.8.84,8.9-.21,17.79-.21,8.9-1.29,17.8-1.29,8.9,0,17.8,0,8.9-.73,17.8-.73,8.9,1.19,17.8,1.19,8.9-.43,17.8-.43,8.9-1.94,17.8-1.94,8.9,2.9,17.79,2.9,8.91.47,17.81.47,8.9-4.64,17.8-4.64,8.9,0,17.81,0,10.87-3.31,17.28,2.87c6.18,6-1.89,8-1.89,16.62s1.67,8.57,3.36,17C499.06,299.29,501.94,301.39,495.76,307.36Z" style="fill:#6acaff"/><text transform="translate(279.12 287.87)" style="font-size:16px;fill:#fff;font-family:FrederickatheGreat-Regular, Fredericka the Great">Kan der handles på det?</text><path d="M495.16,129.89c-6.4,6.18-7.7,1.22-16.6,1.22s-8.89,2.16-17.79,2.16-8.9-1.67-17.8-1.67-8.9,2-17.79,2-8.9-4.2-17.8-4.2-8.9.14-17.8.14-8.9.71-17.8.71-8.9.05-17.8.05-8.9-.29-17.8-.29-8.9,2.73-17.8,2.73-8.9,0-17.8,0-8.9-3.48-17.8-3.48-8.91-.12-17.81-.12-11.87,8.74-18.28,2.56c-6.18-6-1.95-9.07-1.95-17.66s3.44-8.59,3.44-17.18-7.13-11.14-1-17.1c6.4-6.18,8.83,2,17.73,2s8.9-1.39,17.8-1.39,8.9.24,17.79.24,8.9-1.85,17.8-1.85,8.9,1.24,17.8,1.24,8.9.49,17.8.49,8.9-2.5,17.8-2.5,8.9,1.08,17.8,1.08,8.9,1.13,17.8,1.13,8.9,1.17,17.79,1.17S434.05,82,443,82s8.9-1.93,17.8-1.93,8.9,1.4,17.81,1.4,9.68-6.21,16.09,0c6.18,6,2.25,6.81,2.25,15.39s-.36,8.41,1.19,16.86S501.34,123.92,495.16,129.89Z" style="fill:#6acaff"/><text transform="translate(341.72 110.29)" style="font-size:16px;fill:#fff;font-family:FrederickatheGreat-Regular, Fredericka the Great">Indbakke</text><path d="M495.18,219.9c-6.41,6.18-7.72-1.19-16.62-1.19s-8.89,0-17.79,0-8.9,1.75-17.8,1.75-8.9,3-17.79,3-8.9-3.17-17.8-3.17-8.9,1.46-17.8,1.46-8.9-3.1-17.8-3.1-8.9,2.78-17.8,2.78-8.9-2.31-17.8-2.31-8.9,1.45-17.8,1.45-8.9,1.53-17.8,1.53-8.9-3.07-17.8-3.07S273.87,223,265,223s-10.28,3.18-16.69-3c-6.18-6-2-7.43-2-16s-.34-8.59-.34-17.18-4.74-11,1.44-16.93c6.41-6.18,8.67,2,17.57,2s8.9-1.85,17.8-1.85,8.9.28,17.79.28,8.9.11,17.8.11,8.9-3,17.8-3,8.9,3.92,17.8,3.92,8.9-2,17.8-2,8.9,2.59,17.8,2.59,8.9-2.45,17.8-2.45,8.9-2.2,17.79-2.2,8.91.87,17.81.87,8.9,2.3,17.8,2.3,8.9-2.25,17.81-2.25,11.36-4.69,17.77,1.49c6.18,6-1.9,8.56-1.9,17.14s-.75,8.94.8,17.39S501.35,213.94,495.18,219.9Z" style="fill:#6acaff"/><text transform="translate(322.54 200.79)" style="font-size:16px;fill:#fff;font-family:FrederickatheGreat-Regular, Fredericka the Great">Hvad er det?</text><text transform="translate(278.81 508.7)" style="font-size:26px;font-family:FrederickatheGreat-Regular, Fredericka the Great">&gt; 2 minutter ?</text><rect x="274.81" y="481.9" width="170.32" height="37.25" style="fill:#fff200"/><text transform="translate(278.81 508.7)" style="font-size:26px;fill:#231f20;font-family:FrederickatheGreat-Regular, Fredericka the Great">&gt; 2 minutter ?</text><text transform="translate(524.24 270.08)" style="font-size:26px;font-family:FrederickatheGreat-Regular, Fredericka the Great">Nej</text><text transform="translate(546.39 607.11)" style="font-size:26px;font-family:FrederickatheGreat-Regular, Fredericka the Great">Nej</text><text transform="translate(326 351.25)" style="font-size:26px;font-family:FrederickatheGreat-Regular, Fredericka the Great">Ja</text><text transform="translate(172.79 613.55)" style="font-size:26px;font-family:FrederickatheGreat-Regular, Fredericka the Great">Ja</text></svg>