<svg xmlns="http://www.w3.org/2000/svg" xmlns:xlink="http://www.w3.org/1999/xlink" width="335" height="142.51" viewBox="0 0 335 142.51">
  <defs>
    <clipPath id="clip-path">
      <path d="M5,.11H148a0,0,0,0,1,0,0v142a0,0,0,0,1,0,0H5a5,5,0,0,1-5-5V5.11a5,5,0,0,1,5-5Z" fill="none"/>
    </clipPath>
  </defs>
  <g id="Layer_2" data-name="Layer 2">
    <g id="Layer_1-2" data-name="Layer 1">
      <rect y="0.11" width="335" height="142" rx="5" fill="#fafafa"/>
      <path d="M173,58.81h.76c2.51,0,5,0,7.53,0,.57,0,.79.12.88.73.76,5.44,1.57,10.86,2.54,16.32.81-5.66,1.63-11.31,2.45-17h9V93.94h-6.69V75h-.12l-2.64,19h-4.24q-1.32-9.57-2.65-19.1h-.15V93.94H173Z"/>
      <path d="M210,58.81h5.58c1.32,0,1.32,0,1.58,1.29q1.53,7.49,3.07,15a1.3,1.3,0,0,0,.33.66V58.85H227V93.93h-6.92q-1.77-8.21-3.55-16.45l-.11,0V93.92H210Z"/>
      <path d="M230.22,93.93V58.87a1.5,1.5,0,0,1,.37,0c3.71,0,7.41,0,11.12.13a15.5,15.5,0,0,1,2.59.41A3,3,0,0,1,246.82,62a20.24,20.24,0,0,1,.42,3.55q.06,10.88,0,21.75a20.78,20.78,0,0,1-.53,3.9,2.61,2.61,0,0,1-2.2,2.19,35.35,35.35,0,0,1-4.91.58c-2.95.1-5.91,0-8.86,0C230.58,94,230.41,94,230.22,93.93Zm7.43-29.41V87.37c0,.15-.05.33,0,.44s.27.45.45.48c1.26.19,1.68-.23,1.68-1.6V66.78a4.58,4.58,0,0,0-.14-1.44,1.52,1.52,0,0,0-.79-.79A3.43,3.43,0,0,0,237.65,64.52Z"/>
      <path d="M266.8,58.84h9c1.51,11.67,3,23.35,4.54,35.14h-4.09c-.8,0-1.66.19-2.37-.68V89.61c.79-.1.8-.68.73-1.36-.26-2.65-.46-5.3-.74-7.94a26.34,26.34,0,0,0-.57-2.77c1,.18,1.71,0,2-.82a3,3,0,0,0,0-.84c0-.34-.05-.68-.05-1a3.18,3.18,0,0,0-1-2.47c-.38-.38-1-.92-.68-1.74,0-.12-.12-.41-.26-.51a3.79,3.79,0,0,0-1.17-.59,1,1,0,0,0-.85.21c-.39.52-.78.82-1.48.49,0,.06,0,.13,0,.19l.71.54c-.87.55-1,1.77-2.11,2.14a1.87,1.87,0,0,0-1.16,2c.06,2.29.15,4.59.31,6.87a1.33,1.33,0,0,0,.76,1c.47.17.34.43.34.71,0,1.54-.14,3.08-.09,4.61.06,1.74.24,3.48.4,5.21,0,.38-.07.55-.45.55h-6.2C263.81,82.24,265.3,70.57,266.8,58.84Z"/>
      <path d="M250.26,58.85H262v5.64h-4.34v7.3H262v5.75h-4.4V94h-7.35Z"/>
      <path d="M282.61,58.85H290V88.22h4.38v5.72H282.61Z"/>
      <path d="M309,88.22v5.7H297.23V58.85h7.33V88.22Z"/>
      <path d="M206.74,94h-7.29V58.86h7.29Z"/>
      <path d="M269.69,49.21a1.61,1.61,0,0,1,2.12.95,25,25,0,0,0,2.36,3.63V49.2h1.47v7.58c-1.2.31-1.39.23-2-.8l-2.42-3.88v4.73h-1.5Z"/>
      <path d="M231.49,56.82V49.2c1.33,0,2.64-.05,3.94,0a1.52,1.52,0,0,1,1.36,1.17,2.93,2.93,0,0,1-1,3.53c.22.47.44.95.67,1.43s.45,1,.7,1.46l-.25.07c-1.41,0-1.41,0-2-1.27a3.29,3.29,0,0,1-.26-.61,1.28,1.28,0,0,0-1.7-1.08v2.9Zm1.5-4.19h1.67c.57,0,.76-.36.77-.86s.09-1.16-.64-1.27a12,12,0,0,0-1.8,0Z"/>
      <path d="M212.61,53c0,.43-.05.87-.11,1.31-.3,2-1.1,2.69-3.14,2.6s-2.81-.68-3-2.85a15.46,15.46,0,0,1,.2-3.19,1.91,1.91,0,0,1,1.75-1.71,10,10,0,0,1,2.32,0,1.73,1.73,0,0,1,1,.41,1.8,1.8,0,0,1,.55.9c.22.81.34,1.66.51,2.48Zm-4.7,0h0a11.45,11.45,0,0,0,0,1.31c.1.88.49,1.2,1.42,1.22s1.51-.27,1.61-1.17a14.8,14.8,0,0,0,0-2.4c-.07-1.12-.52-1.52-1.55-1.5s-1.45.4-1.54,1.52C207.89,52.32,207.91,52.67,207.91,53Z"/>
      <path d="M260.48,53.05c.1-.72.15-1.45.31-2.16a2,2,0,0,1,1.84-1.72,9.31,9.31,0,0,1,2.11,0,2,2,0,0,1,1.82,1.91,18.26,18.26,0,0,1,0,4c-.19,1.38-1.12,1.89-2.85,1.89-2.2,0-3-.74-3.11-2.94,0-.32,0-.64-.06-.95Zm1.55.08a12.83,12.83,0,0,0,.14,1.39c.15.77.53,1,1.44,1s1.42-.25,1.5-1a14.09,14.09,0,0,0,0-2.83c-.08-.92-.56-1.24-1.5-1.22s-1.35.29-1.5,1.22c-.08.45-.08.92-.12,1.44Z"/>
      <path d="M228.69,49.15v1.44h-2.46c-1.08,0-1.08,0-1.07,1.1,0,.19,0,.38,0,.68h3v1.3l-3,.15a1.37,1.37,0,0,0-.07.24c0,1.43,0,1.43,1.41,1.43l1.9,0a.6.6,0,0,1,.19.06v1.32c-1.28,0-2.56,0-3.84,0a1.14,1.14,0,0,1-1.15-1.2c0-1.73,0-3.46,0-5.19a1.27,1.27,0,0,1,1.38-1.32C226.24,49.12,227.43,49.15,228.69,49.15Z"/>
      <path d="M246.38,56.88a2.77,2.77,0,0,0-.5,0c-.82.13-1.36-.11-1.45-1-.05-.54-.37-.75-.9-.67H243c-1.27,0-1.29,0-1.68,1.2-.12.38-.29.52-.67.49s-.68,0-1.12,0c.4-1.17.76-2.27,1.13-3.37.44-1.31.87-2.63,1.35-3.93a.81.81,0,0,1,.62-.41c.44,0,1.18.06,1.26.29C244.78,51.88,245.55,54.34,246.38,56.88Zm-4.23-3.09h1.69c-.27-.83-.51-1.6-.81-2.58Z"/>
      <path d="M216.84,53.88v3h-1.45V49.21c1.32,0,2.63-.05,3.93,0a1.42,1.42,0,0,1,1.36,1.31,6.59,6.59,0,0,1,.06,1.88A1.76,1.76,0,0,1,218.57,54Zm0-1a8.51,8.51,0,0,0,2.22-.52,1.77,1.77,0,0,0,0-1.49,7.73,7.73,0,0,0-2.19-.5Z"/>
      <path d="M253.4,50.56h-2.07v6.28h-1.52V50.56h-2.05V49.2h5.64Z"/>
      <path d="M256.24,49.16h1.38v7.67h-1.38Z"/>
      <path d="M271.21,89h.9c.15,1.61.29,3.24.44,4.93h-2.34a3.31,3.31,0,0,1,.09-.85,5,5,0,0,0,.28-2.64c0-.19.18-.4.27-.61Z"/>
      <path d="M273.11,71.89c.25.38.52.75.74,1.14a.43.43,0,0,1-.11.36.41.41,0,0,1-.16,0,.3.3,0,0,1-.16,0c-.28-.41-.67-.8-.57-1.35Z"/>
      <path d="M323.5,124.11a6.5,6.5,0,1,0,6.5,6.5A6.5,6.5,0,0,0,323.5,124.11Zm1.35,10.07a8.18,8.18,0,0,1-.8.3,2.08,2.08,0,0,1-.69.11,1.39,1.39,0,0,1-.95-.3,1,1,0,0,1-.33-.75,2.17,2.17,0,0,1,0-.36c0-.13,0-.26.08-.42l.42-1.48c0-.14.07-.28.1-.4a2.26,2.26,0,0,0,0-.35.55.55,0,0,0-.11-.39.64.64,0,0,0-.45-.12,1.26,1.26,0,0,0-.33,0l-.29.1.1-.45c.28-.12.54-.21.79-.29a2.35,2.35,0,0,1,.71-.12,1.38,1.38,0,0,1,.93.29,1,1,0,0,1,.33.76c0,.06,0,.18,0,.34a2.63,2.63,0,0,1-.09.44l-.41,1.48a2.15,2.15,0,0,0-.09.4,1.85,1.85,0,0,0,0,.35.49.49,0,0,0,.13.4.72.72,0,0,0,.45.11,1.22,1.22,0,0,0,.35-.06,1.19,1.19,0,0,0,.27-.09Zm-.07-6a1.06,1.06,0,0,1-1.41,0,.88.88,0,0,1-.29-.66.89.89,0,0,1,.29-.66,1.06,1.06,0,0,1,1.41,0,.89.89,0,0,1,.29.66A.88.88,0,0,1,324.78,128.2Z" fill="#030104"/>
      <g clip-path="url(#clip-path)">
        <image width="370" height="356" transform="scale(0.4)" xlink:href="Asset%2011.png"/>
      </g>
      <rect id="card-anchor" width="335" height="142.11" fill="#fff" opacity="0" cursor="pointer"/>
      <a xlink:href="/projects/cityescape/operation-mindfall.html" target="_blank" cursor="pointer"><rect id="info-anchor" x="310.17" y="120.26" width="24.83" height="21.85" fill="#fff" opacity="0"/></a>
    </g>
  </g>
</svg>
