<svg xmlns="http://www.w3.org/2000/svg" xmlns:xlink="http://www.w3.org/1999/xlink" preserveAspectRatio="xMinYMin meet" viewBox="0 0 653 793.21"><defs><clipPath id="a"><rect x="163.99" y="346.66" width="15.3" height="34.13" style="fill:none"/></clipPath><clipPath id="b"><rect x="163.99" y="346.66" width="15.3" height="34.13" style="fill:none"/></clipPath><clipPath id="c"><rect x="179.99" y="336.66" width="15.3" height="34.13" style="fill:none"/></clipPath><clipPath id="d"><rect x="179.99" y="336.66" width="15.3" height="34.13" style="fill:none"/></clipPath><clipPath id="e"><rect x="31.99" y="334.66" width="15.3" height="34.13" style="fill:none"/></clipPath><clipPath id="f"><rect x="31.99" y="334.66" width="15.3" height="34.13" style="fill:none"/></clipPath><clipPath id="g"><rect x="159.85" y="175.71" width="15.3" height="34.13" style="fill:none"/></clipPath><clipPath id="i"><rect x="433.71" y="543.07" width="15.3" height="34.13" style="fill:none"/></clipPath><clipPath id="j"><rect x="433.71" y="543.07" width="15.3" height="34.13" style="fill:none"/></clipPath><clipPath id="k"><rect x="489.71" y="558.76" width="15.3" height="34.13" style="fill:none"/></clipPath><clipPath id="l"><rect x="489.71" y="558.76" width="15.3" height="34.13" style="fill:none"/></clipPath><clipPath id="m"><rect x="511.71" y="550.38" width="15.3" height="34.13" style="fill:none"/></clipPath><clipPath id="o"><rect x="527.71" y="500.76" width="15.3" height="34.13" style="fill:none"/></clipPath><clipPath id="p"><rect x="527.71" y="500.76" width="15.3" height="34.13" style="fill:none"/></clipPath><clipPath id="q"><rect x="480.71" y="448.07" width="15.3" height="34.13" style="fill:none"/></clipPath><clipPath id="r"><rect x="480.71" y="448.07" width="15.3" height="34.13" style="fill:none"/></clipPath><clipPath id="s"><rect x="596.05" y="465.13" width="15.3" height="34.13" style="fill:none"/></clipPath><clipPath id="u"><rect x="603.05" y="455.36" width="15.3" height="34.13" style="fill:none"/></clipPath><clipPath id="v"><rect x="603.05" y="455.36" width="15.3" height="34.13" style="fill:none"/></clipPath><clipPath id="w"><rect x="189.64" y="597.63" width="15.3" height="34.13" style="fill:none"/></clipPath><clipPath id="x"><rect x="189.64" y="597.63" width="15.3" height="34.13" style="fill:none"/></clipPath><clipPath id="y"><rect x="54.42" y="509.26" width="15.3" height="34.13" style="fill:none"/></clipPath><clipPath id="aa"><rect x="276.99" y="418.66" width="15.3" height="34.13" style="fill:none"/></clipPath><clipPath id="ab"><rect x="276.99" y="418.66" width="15.3" height="34.13" style="fill:none"/></clipPath><clipPath id="ac"><rect x="269.99" y="422.97" width="15.3" height="34.13" style="fill:none"/></clipPath><clipPath id="ad"><rect x="269.99" y="422.97" width="15.3" height="34.13" style="fill:none"/></clipPath><clipPath id="ae"><rect x="242.99" y="392.66" width="15.3" height="34.13" style="fill:none"/></clipPath><clipPath id="af"><rect x="242.99" y="392.66" width="15.3" height="34.13" style="fill:none"/></clipPath><clipPath id="ag"><rect x="231.99" y="384.28" width="15.3" height="34.13" style="fill:none"/></clipPath><clipPath id="ai"><rect x="221.99" y="393.35" width="15.3" height="34.13" style="fill:none"/></clipPath></defs><path d="M645.64,535.69l-.77-2.66.74-.37-.51-1,.12-.46.46-.29v-2.3l.77-.83-.34-.87.41-.83h.75l1.68-.19.74-1.13,1.11,1.36.37,1.57.19,4.79.5.37-.17,4.07.91.64-.68,1.11,1.33,1.36-1.71,1h-2.48l-.41-1.9-1.06-.76.09-1-1.53.43-.56-1.11.59.25.09-.89Zm-17.36-14.44,2.66-.83.42.68-2.09,1.64,1.36,2.44L631,525l-1.18-2.08,1.47-1.11.5,1.13-.89,1.13,1.67-.85.57.91-1.38,1.8-.68-.8-.45.23.22,1.6,1.33,3.15.92.83v1.31l1.19,1.13-.36.92,2.94.31.72,1,.07,3.74-1.6,2.24.7,2.6,1,.36-.71.44.44.44-2.21,1.59-4.44,1.32-1.94,2.59-3.61,2.78-3.88-1.31-.95-3.49-2.22.49-1.76-1-2.21-4.3-.45-3.52,3.59-5.49,2.42-2.35,2.19-5,1.6-2.15,2.28-2,.75-1.46h.41l.13-1.25.16-.47.2-1.53,2.31,0,.48.82Zm-87-55.61,1.19.23,1.39-.67,2.77,1.95.32,1.73-2.12,2.51-.38,1.43-1,.6L543,478l.54,1.19,3.94,1.77.92,3.35.27,5.45,2,1.38-1.57.85-.08,1.8.41.72,1-.23,1-.07-.8,3.15,2,4.39-.49,1.54-1.14.91.17.69.95.28-.43.76.16,2.32.5.46-.38,2-.94-.88-1.17.08-1,.93-.9.35-1.09.09-1.59,1.4-1-.21-.09-2.89-1.42.69-.76-2.17-1.32,2.58h0L534,507l-3.72,3.42-4-1.59h0l-2.62.33-.09-3.86-.78.31-.64-1.27,1,.15.74-1.66.86-8.36,2-1.27-.12-3.07,4.89-1.59,1.15.95,2.72-1.22,1.09-1.55,1.55-5.81-2.08-4.81-1.59-.84-.6-1.58.26-2.68-4-6.52.51-4.82,8.12,2Zm44.94-52.37,2.51,1,2.92.42,5,4.57,3.33.44,3.54,1.57,3-.39,5.78.85,5.75,2.85,9.19,8.89,2.49,1.15-.28.57-1-.15.15,1.34-1.09,1.1L626,441.12l-4.54,4.32-2.58,5.64-2.44,8-.69,1.24,0,1.56-.78,1.66,3.52,8.56.38,1.29,3.73,8.36.67,8.92,1.36,1.91,1.21,3.88-.49,3.36,1.22,3.67-2.88,6.73,1,1.21-.36.53-.12,2.28.86.75.7-1.7.63-.21.3-1.26,2.88,1.94-.74.57.54.26-1.4,1.15-2.13-.71-.1.6.94.71-1.43.27.33.75.09,1.76.54,0,.26,1.19-.93,2.89-4.35,3.87.17.76-.1.25-.62,1.48-.74,1.35-.83-.94-.54.38.16,1,.47-.46.73.36-.77,1.22L619,533l-2,1.81.05-1.49-3.1.86-.37-.36-1.75,4,.56,1,.8.19-1.78,3.46-5.91-.89-.36-1.25-.11-.51-4.53-.41-1.62.45.08-.61,1.24-.21,4.78.58-.31-.74-5.54-.24-.61,1.26-.36-.8-1.62.38-.78.9.15.36.67-.61.35.24.6-.38.17.79.79-.32.33.61-5,3h0l-.92-.81h0l-.19-.23h0l-2.5-2.34L583,538.4l-1.35-1.23-4.58,2L576,537.44l-2.74.83-.79,3.21-6.89-2,1-5.23-1.34.07.14-3.76-1.07-5.32L569.1,521l3.68.25,5.36-5.19-5-4.51,1.14-3.08.63-.2-2.56-2.57-5.77.91-2.4-2.34L561.22,503l-2.74-3.17-2.68-1.51h0l-2.19-1.4.67-3.11-1.39-2.29-.72-4.85-.77.16-.92-1.69.35-.47-.4-1.39-1.18-.46.64-3.43,2.45-.51.35-4.31-1.55-2L549.88,469l.23-3.57-1.2-3.73-2.32-4.2-.65-3.22-1,.13-1-.33-1-.93-1.13-.19-1.7-.44-3.78,2.1-.74,1.27-1.51.82-5.89,2-2.7-.8-.68.11,0,.72-1.71-1.08-1.37-5.16,1.66-2.39,5.17-2.8,16-10.64,7.41-7,16.2-12.08,2.33-1.25,12.57-4,1.47.36,1.66-.41Z" style="fill:#c19945;stroke:#fff;stroke-width:0.5px"/><path d="M475.63,709.39l-.66.71-.87-.48-1.32.84,1.89,2.69,2.62,1.57.12,1.06-1.59-.79-3.67.94-.59-2.89,2-.63-.86-1.47-.45.14-1-1-.13-.84Zm-33.42-10.63,4.06,2.7,3.54,5.22,1-.23,2.72.78,1.91,1.25.23,4.54,3,3.38,2.17,1.44,1.46.16,1.49,1.41,1.42.07-.59,1.65.87.64,1.89-1.12,2.35.58.75,1-.66,3.31.53,1.36,1.15-.42,2.31.74,0,1.63,2.59-.44,2.81,1,3.18,0,1.42,1.32,3.44-.74.42-.92-2.33-.84-2.07-2.85.43-1.53,1.31,0,1.39-1.27L490,724.7l2.73-.93,1.28-1.31,1.92-.12-.11-1.44-1.13-1.26.77-4.48-1.69-2.57.12-1.11,3.14.65.54.93,1.2.31,1.64,2.31,3.9,2.84,1.09.49,3-.61.75.8L508,720.61l-.3,1.52,1.73,4.84,1.34.08,2.83,1.82,1.35-.09-1.22,2.77.18,3.27,2.2,1.77.27,1.23,1.26,0,.38.7,1.4.34,1.64,2.27,2.38,1.55.94,1.17-.07,2,0,1.09,1,1.36.14,3.3-2.52,1.77,0,.65-1.83.08L518.56,752l.4,1-.5,1.84,1.13,1-2.18,1,.66,1.5.54,1,2,1.34,2.15,1,.85-.51,1.14,1.18-.22,1.53-2.76.49,1.91,1.86-1.81,1.13,1.22,1.08-1-.06-3.29,1.72,2.35,1.8-1.28.46L519,772l-.26,1.13-1.1-.38-.69.86-2.54-1-4-.67-2.25.22-1.57-.62.73-1.05-1.1-1.88-.76.62.45,1.84-1.69.89-1-2-2.27-1.06-2.48.64-.7-1.14-.64,1,.47.53-.75.65-.28-.63-.81.51-1.29-1.09-1.72-.11-.13.76-1.32.21-1.45-.16-2.33-1.29-1.1.51,1.09.89-.27.29-3.85-.3-.12.77,1.26.92L482,772l-.13,1.4-.92,1.34-3,.28-.72.83H474.5l-4.95,5.71,4.3,2.92,1.25,0,1.14.86,1.7-.16.63-.76.06.93-2.1.42-1.8-.39L467.56,781,462,776.3l-5.33-3-2.38-2.05-1-.16-6.41-7.31-4.74-3.87-3.64-1.58-1.51-.07-3.34-2-12.25-4.94-8.31-2.47-7-3.75-5.55-9.57-1.1-6.48.53-1,.84-.4,2.69,1.92-2.81-1.44-.26.63.86.89v.82l-.89-.37-.57,1,.8,4.06,1.22,2.19.74.11.46-.32h2.41l1.4-1,.72-1.38-.84-1.27-3.11-2,2.21.22,1.94,1.27.76-.35,1.24,1.4,1.1,0,1.06,2.8,3.49-.17,1.35-1.7-1.68-1.71.22-2,2.23,2.58,1.09-.29.82-2.2,1.76-.71-.34-1.49,1.88.33.63-.43-.35-.78-1.17.55-1.51-.64-1.83.42-.11.58-1.05-1.29-.79.41v-3.23h-1.3l-.23-1.89-1.6-1.27.69-2-2.14.43.06-1.85-.6-.35-1.1,1.58-.43-.12-.08-2.71-.79,1.09-.87-.74-.29-2.06,1.68-5.86,4.48-3.56,1.58-2.58,1.57-.82.94.59,2.33-.23,1.23.93.58,1.32,0-1.71-1.14-1.93.8-.61,1.64,1.1.12-1.66,1.8.55,1.88-1.62,1.41.28,2.06-1.42Zm20.34-2.85,2.11,1.43,3.33-.42,2.69,3.06.17.89-.26,1.2-4.94-.39L461.77,707l-.66.17-.43-.92-3.54-2.39-1.24-5.32h-1.18l-.61-2.57,1.12,0,1.1,1.07.34,1-.43.82.69,1.7.84-.11.14-1.39h.42l2.18.7,1.08,1.2.63-.15.33-1.11-.44-2.3Zm59.27,2.18,1.31.54.52.1,3.54,3.23-.57,1.09,2,1.69.18,2.38,2,1.15,1.71.29.41-.41.38-1.06.28-.57.17-3.76,1.11,1,2.56-.93,2.08.19,1.93,1.48-.4.89.4,3.16.92,1.84-.39.94,2.6,2.06,3.67,1,1.84-.16,2.06.9,2-1.14,3,1.13,3.57.42.93,4.68,4,4.77,1.34,3.21-.84,1.37L562.71,731l-1.07,3.47-1.48,1.9-4.88,2.81-5.62,7.55-2.09,6.1-1.33,2.1-3.89,3.4-2.27,4.18-1.3,5.9-.06,3.82L540.49,790l-.47,3.82-7.33-3.6.72-1.28,0-.52-.47.12.13-3.12-3.91-8.16-2.71-3.94-.88-2.76,1.58-5.28.13-2.43,2.92-3.42,1.54-3.06-.52-.75-.69.23-4.44-2,.7-3.48,1.3-1.4-2.31-3L525,742.7l-1.9-2.36-1.62-.8-.79-2.31-2.61-.56-2.18-2.19-.24-.86,1.66-1.32,1.13-2.67-.12-1-1.31-1,.31-1.67-3.18-2.47-3.93-.39.43-1.31-.64-2.06-.59-.34,1-2.49-1.38-1-.89-2.65.45-1.64,1.53-2.06.06-1.86-1.4-2.39-4.94-.07-.68-.58,2.25-2.92,1.16.7,1-.15.48-1.12-1.31-.71,1.81-2.64h3.2l2.27,1.4,2.45,4.43,1.87-.44,1.11-1.4.93-3.63-.92-1.22.07-.79,1,.23Zm36.6-.45-.35,1.32-.74.21.48,1.5-1.1-1.13-2.14,1.28-2.21-1.2Zm-81.09-7.26,4.33.81L484.2,695l-3.43,4.14-.65,2.08-1.84-2.58-1.34-3.42-2.4-2.13.64-1.46Zm84.92.72-2,2.62-.17,1.69-1.23-.39-.47,1.14-.25-1.2,1.83-1.88-.53-1,.63-.75,1.14.54Zm-32.83-.25.56,3-1.69-.93-1.62-3.24,1.21-.85,1.08.74ZM455,681.26l-1.74,1.46-.14-1.34,3-2.46,1.27-.06-.17,1.39Zm121.77-7-2.59,6-2.63-1.61-1.65-.1-.94-1.48,2.43-.48,1.62-2.08,1.05-.45,1.38-.4,1.43.11Zm5.93,3.71,1.38,1.94,3.72,1.8,9.94.11,4.54,1.16,2-.47,3.72.34,8.26,3.64,3.49,6.51.75,3.75,0,1.65-1.62,2.88-4.41.68-5.79-2.08-.82-.87-5.94-1.55-4.57-.75-3.62.22-6,2.64-4.64,3.77-5.31,6.4-1.43,3-3.71,4.08-3.68.73-5.34-.72-2.34-4.28.83-.13.52.5-.34.29,1.38.21,0-.91,1,.1-.18-.39-5.47-.41-14.6-4.74-1.25-2.74.31-2-1.77-1.83.19-1.25,1.16-.62.6.49v2.47l.68,1.64,1,.15-.13.79,1.65.34,1.57-1.37,5.16,0,2.64,2.92-1.77,4,.8-.42.33.73,2.84.81,2.5-1-.89-1.7-.9-.23,1.38-3.76,3.77-2.48-2.27-.94-.83-.95-.35-1.78,3.32-1.71,0-.74,2.48-.77,2.52,1,.32-.73-1.89-2.24-.39-1.59,4.14,1.44.77.71,0,1.7.58,1,3.62-2,3-.73.84-1,2.32-.33,1,.85L582.12,695l-.37,1.84-.77.39.95.49.92-.77,1.48-.17,2.9-3.3,5.46-1.42.4-.32-1.26-.38-4.69.74-1-.56-.53-.23-2,1.5-.78-.87-1.26-3.34,1.62-2.52,0-1.5L581.09,681l-1-.59.23-.56-1.16-1-.91.17-.12.66-1.35-.3-.57-1.21.38-1.6,2.52-1.27,1.19-1.6,1.27,1Zm-.82-5.38-.5.13-.18-1.17-1.33-1.29,0-1.52-1.05-.93,1,.17.91,1.15-.39.32,1.44.83Zm-21.07-15.85-1.78,1-1.88-.49,1.74-.6Zm-54.43-1.5-1.53,3.31-.62-3,1-2.7.42.25-.42.94Zm-76.22-8.06.34,1-2.3,2-1.7,4.42-2.38-4.78,3.53-2.93.58.41,2.2-1.53ZM499.71,645l0,4.22,2.08,1.24.74,1.32.5-.12,1,.78.21,1-.63.1L500,650l-2.89-.93-1.92-3.11.75-.44,1.57.9,1.27-1.36Zm-28.06-3.08-.78,0,.73-1.18,1.61-.39.23.42Zm33.78,2.1-.77,2.85-1.41-.65-2.12.61-.4-.84.86-3.15,1.15-1.39.11-1.88.67-.17,1.2,1.17,2.3.6ZM432,630.29l-1.06.85-.6-.55-.34.77.52-.13-.32,1.24,2.28,2.2.56,3.22,1.27,2.67-.38.91L433,641l-.07.56,1.82,1.17,1.36-2.19-.5,2.95-.61.53-5.13-3.59-.54-7.8L430,630l-.84-1.6.54-.59,1.52.9Zm-27.84-24.13-1.76,1.27,2.25-.27L398,609.75l3.83-3.49,2.28-.53ZM593.38,543.5l.92.81h0l-1.25.76-.33-.72.27-.47Zm-145.9-42.16.56,1-1.88-1.24-1.74-3.8.65-2.52,1.44,1.45-.69,1.3,2,2.22Zm75.23-3.22-.18,2L521,503.24l.37,1.22-3,1.62-1.71-1.87-1.36-.11-2.43-6,.64-.74,1.48,0,1.12-1.67,1.2,1.84,1.27.56,1.5-3.9-.82-1.76.8-.86,2,3.06Zm-94.05-25.7,3.45,4,3.08,1.71.47,2.29-1.55-1.65-6.84-2.25-1.68-1.36-3.87-5.06-4.33-2-.8-3.64,5.11,1.85,1,2.1,3.25,1.61ZM454,449.91l4.58,2.77,5.06,1.33,8.77.34,5.5,2.25,9.59-2.57,2.35,3.93,3.24,1.66,2.51,0,6.88-2.16,2.7-1.47,3.47-3.15,4.48-2.5,1.94,4.87.21,2-.54.23,0-1.13-1.2-.23-3.45,3.23-.84,4,.67,2.92-.23,1.8-2.49,1.51L504,468.35l-.52-2.24-1.43-.44-1.19.73-1.25-.83-.76.67-1.11,4.22.36,3.43,3.21,1.71,2.39,3.24.69,2.44,2.39,3.66.32,3.84-2.58,3.61-.57-1.08-6.54-1.89-2,2.38,1,1.18-1.21.51-.05,1.79-4.91,2.4-.17,1.16,2.93,2,2.76-.3,2.44-.66,1.86-2,1.63-.37,1.24-1.26,2.6-.22,1.45-1.25,1.65,1.79.72,3.72,1.59,2.11-1.08.65-.48-1.93-1.13,1.74.91,1.62,3,1.45,0,1.63-.91-.18-2,1.53-2.23-.12-1.57.85-8.19.45-1.43.78.72,1.45-.67.15v.81l1.54.36.1.91,5.79-.85,1-.65,1.16.5.81-.12,1.35.1,1.72-.75,2.77.61.74-1.37-1.47-.75-.05-.63.41-.34.71.6,1.61,1.78,1.31,2.75-.12,3.2.76.58.8-.25.51,2.64-.63,1L515,523v2.57l-1.82.66-1,1.87.25.6H514l1-.37,1.25-.75.61.65,1-1.15.33-2.12,2.54-1.93.73-.48.51-5.65,2.32-6.05,1.08-.12,1.47-1.46h0l4,1.59,3.73-3.42,6.81,3.72h0l-.09,3.36-.79.82-1.5,4.28-.67.14-2.19,3.85-.73,3.23-.73.18-.37.89-.39,2.07.74,1.45,1.25-3.32,1.54-.7-.43-.56.3-2.37,6.29-.64-.88-1.24,0-1.66-1.41-.81L542.9,519l0-2.15.51,1,1.82-.63-1.54,2.46.4.59.85.37,1.1-1.26.78.76,1.63-.44,1.75,1.17-.39,1.3,1,0,.64.82-.32.82-1.85-1.11-1.82.46-1.33-1.51-2.2-.63-.28,1,1.24,0,.92,2.87-.68,1.41,1.31-.8.8,0,.4.81.79-.16.64-.75.94.82.44-1.08,1.8-.23-.18,1.19.64.5-.78.83,0,1.47,2,.46,1.37,1.35.8-1,.68-3.93-1.23.12-1.18-1.17-.42-1.37,1.18-2.1.88-.29.92,1.32.45-2.07-1.81.38.17-.75.41-.55,1.73.19,1.48-1.74.59-1.53-1.66-.34v-2.1l1.32-.52-.5-.61,1.45-.6.16-.61-.36-.47-1.53.12.43-.65-1.87-2.61.83-1.64-.08-1.41-2.12-2.42.56-3.69h0l2.68,1.51,2.74,3.17,2.93,1.32,2.4,2.34,5.77-.91,2.56,2.58-.63.2L573.75,512l5,4.51-5.36,5.19-3.67-.25-4.85,4.22L566,531l-.14,3.76,1.34-.07-1,5.23,6.89,2,.79-3.21,2.75-.83,1.11,1.75,4.58-2,1.35,1.23,7.09,2.26,2.5,2.34h0l-.82,1.19.35.65-7.73,4-1.34,1.34-3.08,2.47-3.3,4L574,566l-3.13,9.24.8,2.7-.27.78-.28.72.7,2.42,2.18,3.31,1.56,1.07L586,591.67l8.6.88,7.11,6.79,3.91,5.18.33,3.15,1,1-1.3,4,.35,3.53,1,1.57-.36,2.15-1,1.92-1.62.76-2.66,3.24-2.07.87-.46.74-1.43-.44-.95.66-1.18-.34-2.18,4.38-1.79-.57-6,0-3.4-.9-5.46,1.61-4,2.59-1.65.11-3.64,2.92-.22-.58-.63.1L563,642.26l-3.05,2.26-.85,1.82-.24,3.62.81,4.72-1.92,1.54-1.74.19-1.13-1.15,1-3.71-.1-2.2,1.67-2.87-.66-.61-4.14.47-4.35,2.12-2.62,4.31,0,.64,1,.64,1.83,0,.56.62.64,1.67-.85,1.55.19,1.18,1.67-.77.57.31-.46.55,1,.48,1.66-2.36,2.52.06.6.54-.58,1.23,2.13-.15.36-.87,1.35.65,1.71-.6-.41-1.08,1-.11,4.83,1.75,2.22,2.38-.11,2.21-.76.17-.62,1.35v2.77l-2.21,2.74-2.65-1.58-1.67.93-.37-1.32-1-.47-.43-.56-1.4-.59.49,1.58,1.78.18.48,1.43-.55.55,1.44.35L560,672.16l.94.05.24,2,1,1-.43,1.95,2.27.45-.67,1.82,4.42,8.3-.28,2.42-.57-.52-2.43,0-.9.67-2.69-.45L559.17,691l-.71,1.49-1.28.58-2.39,2.69-3.48,1.95-3.69,0-6.55-3.35L538.78,692l-1-2.55-5.74-2-.62.45,1.34.59.14,1.31-3,.18-1.84-1.86-2.81-1.28-1.5-1.92-3.29-2.06-2.72-3.29-4.85-2.4-6.16-1.75-4.24-2-2.68-2-7.49-2-.8-.74,1.88.1,12.34,4.11,3.36.33,10.84,5.53,1.06-1.26-.51-1.72-2.4-2.78-.38-1.58-3.93-2.23-.86-1.31-1,.7.49,1.17,1.11.71-2.5-.2-1.73-2.65,1.14,0,.86-1.57-.9.65-1.8-.44-3.22-4.8-.05-2.73.67-1,1,.81-.45,1.3,2.93-.28,1.46.62.72-.64.46-1.87,1.39-.84,4,.91,1.23-.54.19-1-1.07-3.6-1.19,0-.86-.89-.83.05-.59,1.43-.83.21-1.12-.76.28-1.55-2.87.61-1.53-.57-1.06,1-2.31-1-.46-.66.22-2.48,3.89-2.69-.63-1-1.53.77-.5-.07.06-.59,2.89-3.31-1.28.18L507,640.1l-2.58-1.81-3.74.54-4.33,4.5.16,1.6-2.29,1.21-1.27-1.31-1.53-.12-3.07-1.87-2.28.48-1.27-.61-2.78.1-3.23-1.56-3.39-.76L474,641l-.62-1.78-1.53-.48-1.41.57.13-1.27L469,636.44l-1.22.68L466.42,636l-1.15-.15-.89,2.11-1.24,1,.38.81,1-.19.35-.68,2.34.43.79.61-.37.81,1.08.64.15,1.94-3,.6-4.15-1.15-2.38.28,1.12-1.64.78,1,.54-.49,1.7,1.21.71-.2-.78-.49-.48-3.44-2.18-.62-2.58,2.43-1.38.24-1-.62-1.27-2.23L453,639v1l-.66.37-.89-2.26-1.93.05-.65,2.18.65,1.13-.91.2-2,.5-1.93-1.86-3.29-.22-1.22-.95-.64-.66.83-.28L438.62,636l.13-.51,1.81-.49-2.44-5.13.79-.58,1.12.53-.06.85,3.27.59.66.91.79-.39,1-3.74.51-.92.8-.13,1.16-2.83-.67-2.84-1.41.35-.58,1-.47,4.06,1,.79-2.46,1.65-.9,2-1.24-2-.83-.35-.75.53-1.06-.85.82-3.2-1.09-2.52-.3-3.15-4.8-3.26L430,614.81l-3.32-3.57-2.82-1.35-.17-1.57.89-.55.62,1L427,609l.18.54,2.23-.17,1.27.81,1.16-.32.35-1.24,2.06-1.15.28-1.48-.42-.61-1.09-.24-2.21-2-2.13-.07-1.18,1,.66,1-.48,1.14.75.73-3.09,1.61-.5-1.3-1.87-.15-2-2.64-2.31.35.22-1.25,2.71-4.41.87,1.31,4.26-.68,3.66-2.92,3.43-.74,1.64-2.37.18-1.27-.23-1.32-2.55-3.69,1.29-6.25-.49-2.41-3.21-5.39.06-3.24-.6-1.87-4.49-4.5-.65-1.9-1.32-.72-.54-1.59-1.08,1,.35,1.48.86-.28-1.55,2.72-2.54.37L417,564l1.27-4.75.82-.4,1.21.6,1.49-.81,3.5.12-.16.58.75.49,1.13-.61.42-.94-1.81.82-.11-.54,1.49-2.37.68-2.44-1-6.93-2.85-6.62-2.65-2.77-9.88-6.28-4.19-1.31-9-1-1.42-1.11-.14-1.66,1.16-.85,2.52.54.78.8,3.13.32,1.6-.54,8.09,1.85,1.74.05,2-1,.39,1,.54-.79,1.49-.29.25-.8-.63.27-1.31-.65.18-.54,1,.23-.07-.49h.76l-.15-.59-.77.36-3.44-1.35,1.14,2.45-.47.08-2.1-3.09-5.11-3.78-4.1-6.35-1.43-.76-2.19-.59-5.52.66-2.67-.49L390,510.16l-2.28-1.94,3.88-.15,6.7-1.92,5.72,1.22,2.88,1.14,1.19,1.17,4.19,1.3,4.83-.83,3.75-1.94,2.7-2.23,2.56-.29,1.91.56,2.48-.83.35,1.52-.54.26L433.1,511l2.19-.15.9-1.76-.57-1.23,1.05-.74.75,1.26,4,3.16,1.83-.45,2.2-2,.77-3.38.71-.18,1,2.8.82-2.75,2.65.16,2.85-1,2.94-2.64.92-2.38.75-2.71-.91-2.2.14-6.09-.56-2.61-1.19-2-1.36.26.38-.74.77-.48,1.6,1.3.33,1.09,2.32,1.29,1.82-.58,5.64-3.56,3.24-.3,1.7.72,1.21-.28,3.29-4.48,1.27-4.6-.25-2.94.43-5.12-1.32-3.79-7.65-4.25-11.73-1-5.64-4-3.62-1.48-1.62,0L445.88,449l-1.61-6.61,3.57,5.29Z" style="fill:#c19945;stroke:#fff;stroke-width:0.5px"/><path d="M353.12,709.92l-.44,1.84-1.55,1.36-.7-.25-1.12-2.24.29-.4-.92-.92-.3-2.24,3.63-.91.78.64-.45,1.41Zm-18.82-3.7.31,1-2.34-.64.89-1.85Zm1.84-4.07,1.22,1.85-1.8.18-.43-1.8.72-1ZM358.71,696l2,.53.78-.45,1.81.75.52,2h-1.58l-.6-1.22-.89.07-.29-.88-1.8-.2Zm-23.33-1.41-1,1.81-.66.12-1.22-2,1.86.29.87-.63ZM295,693.36l2.29.62.35,2.17,4,4.08,4,.81,5.79,6,1.67,3.54,3.83,1.27.94,2.45,1.76-.47,3.22-4-.68-1.15-1.59-.69-.13-.8.76,0,2.55,2.82-.18,1.05-.69-.2-.29.5,1.23,1.51.81,3.23,2.26,2.54,1.65,1,1.37-1.16.48-2,2.84,2.71.59-.41-1.18-1v-.81l-2.31-3-1.63-.85.07-.67,2.91-.3-1.79.55,0,.69,1.93.3,6.86,7L339,723l-.44.87,1.75-.47-.85-.73-.09-1.13,1.54,1.81-1.79.71-9.22,1.12-2,1.18-.87,1-.33,1.9-1.9,1.45-3.11-2.89-3.54-2.1-4.07-4.61-3.19-4.83-4.49-2.91-5.74-7.3-1-5.44-3.81-3.94-.75-1.29Zm30-3,2.47,3.4-2,1.87-.77,0L320.24,692l-1,.22-1.16,1.36-1-.22-.6-1.24,1.16-.61.67.35,1.05-1,.58.1.06.8,3,0,.8.94,1.2,0,.56-.61Zm6-6.65,2.14.88,1.42,1.46-2.13-.46-1.1,1.28-1.68-.2-.32-1.61L330.8,683ZM304.48,681l1.4,1,2.12-.13,2.46,1.81,2.78-1.12.38,2.57-1.38.34-2.77-1.34-2-1.92-5.32,0-3-3.18.46-1.5,1.82-.54,2.15,2.17Zm49.41-7.78.8.5-.38,1.07,1.23.82-.62,2.09.88.68,1.65,0,.35,2.21-.42.85-1,.25L354.92,687l-.64.91-.63.06-.1-.6L352.8,689l1.5,2.1,3,.68,1.66-1.66.49-2.27,1.74-.8,1.16.28-.7,2.79.25,2.7-.32.6-.31-.55-2-.07-2.41.56-1.24,1.87-1.45.55L352.38,699l-5-1.78-1.05.17,1.73,1.8-2.42-.32-2.34,1.34.11-.91,1.27-1.08-.28-.49-1.75.31.12-2.41-2.86-2.39-.62-1.25-.16-3.74.67-.94-1.7-.84-.22-1.94,2.41,0,1.65-2.33,4-2,1.88-2.44,1.45-.25,1.13-1.91,2.77-1.78-.65-.55Zm9.66-.14,1,.63,1.29,5.69-1.06,0-1-.9-2.78,1-1.94-.18.38-1.75,3-.11,1.16-.83-4.29-.19-2.34,1.07-.34-.3-.42-2.38L357,674l2.38.44Zm-74.86,1.53,2,.5.75,1.3-1.36,1.47-3.22,1-1.35-.62L284,675.67l-.15-2.24,2.15-1.54-.11,1.92Zm14.73-1.5.12.48-1.67-.56-2.06-1.7-.82-1.26.26-.74,3.16,2.19Zm-58.9,1.53,1.69.72,1.17,2.28,2.26,2.41,2.77,1.65,4,.31,3.18,1.4,2.24,1.69,2.12,2.94.57.48,1.62,1.78,4.08,8.31,2.51,4.41.08,3,.64,2.37,1.27,2.88,1.06.87.72,4-.94.87-3.95-.4-2,.63L265,722l-6.41-.3L254,719.16l-2.5-.16-3.2-2.9.18-.69,4.26-4,2.4,3,1.48.24,3.35,2.12.32,1.4,2.33.17,2.57,2.78,1.08-1L265,717l-1.22-1.38-3.51-2.3-.7-1-4.26-1.69L254,709.16l-2.42-.51-.78.33L250,710.8l-1.16-.26-5.47,2.63-5-2-1.78-2.08.29-1.08-.5-1.14-1.69-.75,0-1.94-.89-1.79.27-2.26-.82-6.65-1.13-1.56,1.2-1.18,1.89,2.89,2.74.83,3.74,6.12,1.31.94-.84.93,1.55.06.69-.33,4.68-1.8-.07-.47-2.7.61L243.83,699l2.9-1.09-.22-.48-2,.35-1.06-.82,1.41-2.19,1.31.3.48-.47-.46-.65-.94.2-3.17-2.61-5.25-.8-.53-1.25.48-.86,2.59-1.17-3.18.77-.6-.61.11-.93,2.14-.88.27-1.6-3.88-.29L225.14,685,222,683l-1.25-1.46-.93-.07-.12-1.77,3.48-.91,1.53-1.4,1.15.37-.1,1.21,1.92.1-1.53-1.48.32-.3-1.62-.16,1.22-.6-.08-.7-1.34.11,0,.51-1.44.93.46.72-1.36,0-2.52-.93h-2.46l-.74-1.32.06-1.61,1.81-.86,2.09-2.67L225,667.9l6.18-1.52,3.32.75,6.72,3.9ZM207.3,659.24l-.64.59-1.95,0L204.6,658l-.85-.29-.11-1.12.61-1.46,1.71.26,1.36,2Zm191.51-8-2.76,15.39-5.45,18.06-.21,3.1-5.12,6.55-3.79,8.49-.5,3.67-1.27,2-.4,5.54L374,727.57l-.24,2.48L371,737.63l-2.61,10.44-2.65,3.87-3.1,1.32-1.11-.43L359,748.94l.38-.48-.51-1.65,1.12-.76.14-1.45-2.19-5.16-.22-4.24-3.17-4.92-4.55-3-1-2,.52-.07.19.73,3,.19,1.65,1.27.43-.72.65.11,0,.76.8-.24,1.74-3.81,1.37-.38-.9-.88,1.12-7.27,1.52-.2.49,1.89,2.22,1.05.52-1.52,3-.24-1.5-1.61-.18-1-.58-1.14-.61-.88-.05-2.44-1.25,2.44-1.58-.91-.86.69-.68-2.94,1-.82.44-2.37,1.88-1.8.64-1.77,1.6-1,.59-.69.59-2.11,4.46-5.18,1.5-.75.36-.93,2.52.28,2.9-3.14.58-2,1.49-1.87.46-2.33,2.68-3.34.31-2.56,1.77-3.61L387.83,662l3.09-5.66.38-3.13,2.68-2.5,1.38-2.75,1.23-1.06,1.74,1.4ZM232.94,620.8l.67,4,.34-.07.81-1-1.08-.49.12-.78.72.17,1.47-1.13-.4,1.7-2.37,3.12-2.78.09-1.92-2.33,1-.73-.84-1.91,2.76-1Zm8.75-13.27,1.39,4-.34,2.32-4,1.34-.51-.72.06-2.9-.74-1.39.8-2.39,2,1.69.18-.92-.85-.14ZM227,600.71l-1.88,1-1.81-1.43,1.44-1.61,1.64-.25,1.65,1.78ZM37.56,575.52l.78,1.25.61-2,2.29-1.83,3.22.22,2,.92L46,581.26l.73,1.4L48,583.72,49.73,581l1-.42,2,1.38-.14,1.23,1.77,5.15-2.6,2.78.19,1.23,2.55,3,.8,5.28,1.35-.19L55.1,603.7l.43.88-3.24-.49-3.5-2.72-7-15.41-3.24-4.11-2.83-2-.44-4.17,4.2-3Zm294.69-1.87-2.5.83-.21-1,.11-1.65,1.1-1.25,1.43-.4L331.06,572Zm-107-2-1.78-.37-.29-1.45-1.52-2.21.53-2.24L224,566l1.65,2.77,1.52.27.17,1.62Zm126-24.77-.48,0-.27-1.49.4-1Zm.23-5.31.3,2.26,1,.12-.75.36.2,1.21L351,543.28Zm-2.6-3.18.8.42,2-.28.32-2-1.35.25-.34,1-.15-.65-.71.24.44-.62,2.14-.49.89,1.19,6.61,11.21,1.45,3.65,3.17,3.68-.33,2.73,1.48,4.14,1.07,1.71,2.49,2.08,1.38,3.25-.23,1.18-1.43.68-1.7.17-1.67-.58-5.45,2.85-1.1,1.93,0,1.3-1.77.94-.94-1-1.69-.32-.18,1,.47.27-1.24.26-1.69-.77-1-1.75-3.58-1.4-.09.88-3.69,1.09.57,1.18-.45,1-1.59-.14.13,1.05,3.8,4.56.64.09.93-1.42-1.12-5.46,1.78-1.65,2.49,1.22,0,1.06,2.6.89,2,1.49,1.27-1.13,1.08.12.34-1.12,1.17-.77.12.79,2.78,2.41,1.89,3.07,1.62,1.73,1.66.48,2.33,4.1,2.89,2.53,1.65,3.88,2.25,3.13L380,611.55l2.91,2.52,1.73,0-.06.47-1.24.24,1.16,1.33-.22.69-3.43,1-.41-.27.42-.57.56.29.24-.41-.91-.81.27-.87-1.08-.71-.51.85-.19-.8-.85-.14-.32-.87-1.1-.65-.48.37-1.05-.53.38,1.92-.62-.55-.88.89-2.73-.4-1.49.78,4.57,0,1.09,1,.49,1.07-.59,3.38,3.82,10.14-.84,2.74.44,3.26L378.3,643l-2.13,4.11-.1,2-.93,2.09.2,1.9-.89,1.61,0,2.75-1.07,2.58.62,2.1-1.43.18-1.18,1-.77,4.38-1,2.26-2.78,1-2.52,1.84.18-1-2.36-.62-.73,1.34-2.26-.13-.55.56-.88-.44-2.12.73-.82-1.14-1.76.07-1.2-.69-.17,2.06-1.07.3-1.1,1.25L340,678.87l-1.85,1.36-3.8-1.12-1.18-1.94-1.33-.74-1.72.53-5-.37-1,.52-4-2.29.35-1.22-2-2.69-.85.29.3,1.16-2.15,2.06-1.18-.19-.08-.55-1.86.35L311,673.6l-.18-2.07-2.92-.94-.29-1.16-1.53-1.11-.11-1-1.35-1-2-.32-2-1.67-.95,0-.87-.79.38-.44-.93-.73L295.57,664l2,1.36.85,2.64-.69,1.13-1.35.49-.21,1.18-1.5-.14,0,.76,2-.2-1.44,1.14-1.08-.79-.25-1.72-1.58-2.19-3.43-.2-4.13-2.52-7.73,3.46-.69-2.53,1.58-3,.26-1.85.77-.54.74.67,1.37-.14,1.76-2.34,1.66-.64.94.24.51-.91.93.29v-.78l1.63.42,2.39-1.56-1.64-1-2.65-5.13-.69.38-.57-.52-.21-3-1.85-2.39-1-3.21-.8-.12-.93,1.7-.83-.38-1.21,2-5.19-.27-4-1-.17-3.37-3.29-1.55-.64.71,1.12,1.65.72.47-1,1.58-.9-.59-.44,2.56,1.3-1-.48,1.53.79,1.82,2,1.37,4.42,6.43-1.34,2.3-1.34.86-2.78-.67-3.6-2.29-.19-.6,1.45-1.43.47-1.52-1.28-4.8.86-8.36-.39-1.26-1-1.64L262,633.87l-5.23-.13-.92-2.34L254,629.52l-3.62-2.22-.43.59-1.69-2.08.91-.45.65.81,1.54.23-.83.68,1.21.55.18-.21.82-1.59-.43-1.06-1.49-.79-.55-1.64.56.09.64-.8.48-8.87-.79-3.54-1.37-2.88.14-1.78,1.21.68,1,.38.56-1.11-2.44-.9-1-1.87.18-1.41-1.82,1.46-3,.15-7.38-3.22.41-2.78,4.06-.38,1.73-.67,1.19-1.26.08-1.69-2.34-2.73-1.21-1.07-3.67-1,1.38-1.13,2.47.91,1.14-.36.46-1.15-.28-1.3L238,582l-2.56.21-4-.87-.47-.65.87-2-3-3.34-1.12-2.25.77-1.2.81,1.78,3.74,3.13,1.25.39.42,1.4,2.35,1.57,4,1.74,1.69-.61-.77-1.4-1.8-.8-.38-1.56-1.09.22-1.91-1.26,0-.65-.75,0,.48-1.11.92.87,1.32.1-.91-1.59-.89.19L236,573l-2.61.6-2.3-1.5-1.71-4.75-3.84-.41-.58-1.49-2.22-1.53-.46-2.15.91-.74,1.75.16,3.54,2.41,3.15.42L233,562.8l1.91-4.67-1.8-3h3.75l3.17-2.27,3.87-.65,1.93,1,.51,1.27-.38,5,2.26,2.81,7,1.07,3.2-.63,7.93-6.46,3.66-1.91,1.74-2.64,5.19-1.15,1-1.23.63-.45,2.8-1.4,2.5-.63,2-.05,2.21-1.65,3.41-1.3,2.11.14.3-.44-1-1.51,1.13.22.69,1,1.15-2.15,3.17-1.07,7.4-1.16,1,.62-1.53-.29-.41.77.86,2.5-.85.72.36.44.11.58-.4,1,1.7.47.7-.72h2.32l.3-.93-1.71-1.57L309,539l-1.7-2.8,2.72-.48,14.36,8.18,4.87,4.94L341.41,558l3.15,3.68-1.07.61-2.19-2-1.9-3.51-4-2.82-.63.58.84,1.63-1.18.27,1.22,1.44-2-.63-.76,1-.8-.26-.11,1.19,1.82,1.45.05,2.15.94,1.48,1.23.36.57,1.2-1.54,1-1.16-.57-.77,1.32,1.16.6.28,1.19-4.37-1.06-.51.51.06,2-1.5-.31-.71,2.46.66.75-.88.43-.43,2.34.25.77-1.51,3.26.27.51.83-.65,1.5.59,1.85-1.7,2.22,1.36,1.23-1.5,1.24-.51,1-1.57-.85-1.78-.72.36.24.69-1.17-.33.21-1.13.62.69.68-.46-1.15-2.94L339.2,574l1.07-.57,1.24-2,1.79,1.21.84-.11,0-.87,2.13-.44.83-1.34,2.45-.43,1.89,1.43,1.74-2.1.34-.87-1-1.33,0-2-4-2.21-2.84-.74-.53-.8.11-1.08,1.43-1.43,1.45-.49,1.06.38.94,2.19,1.63,1.08,1,.3.93-.9.13-.93-1.56-1.7.33-3.72-2.06-3.23-.13-2.77-1.18-3.42,1-2.49.31.65-.42.19-.74,1.54,1.78,3.76,2.25,2.8.77-1.48-.23-.62.66-.29L353,547.7l.06-.48,1.27.12-.53-3.6-1.06-1.36-.63-3.17-.89-.09-.39.9-2.6-2,.36-1.82,1.07,1.78ZM290,529.63l2.82.87.26,1.46-1.37,1.68,0,3.63.8,1.53-.7,1-.62-1.07.29-4.66-2-2.39-.51-2.11ZM170.22,458.34l1.28.15.53,1.17,1.4-.37.86.88.5-.68h0l.51-.54h0l1.37,0-.7-.38h0v-.07h0l.67-.33,2,1.79,3,1.21h0l.45,1.35-.41.24,10.2,14.1-2.77,2,2.14.93-1.14,3.77,5,.49-.06,1.32,2.88.07.47,4.12,1.81,6,2.86.51-.22,2.54,5.56-.36.86-1.62,1.52,2.06-1.64,2.18,2.39,3,3.1-1.54,3.23,1.09.57-1.4,4.09,2.48.42,3.33-1.73,5.82h0l-9.52,1.8-.63-.62-2.63.74-1.79-.42-.29-.78-.91-.33-.37,1.12.55.5-.41,1.21,4.37,2.22,7.94-1,1.4,1.05,1.66-1.2,2.57,2.93.34,1.72,2.22,2.62,1.09-.34,3.53,2,1.21,6.24.65,1.61,1.13.85,5.44-.71,1.11-.62,7.35.81-1.7,2.11-7.27,5.32-.69,3-2.8,3.37-.27,3.11-1.7-.78-1.61.35-1-.35-.49.39-.68,1.44.18,2.15,1.71,4.6L230.7,561l-2.31.12-4-1.76-2.94-.56-4.57,4.54-1.9-1.12-1.18.78H212.4l-.42-2.28-.55.24L207,558.8l-.66.84,1,1.61.68.22.87-.7.94.16v.46l-1.63,1.4L206,561.38l-.62.51,3.23,1.24.43,3.1-1.43-.51-4.41.67-2.7-.31-1-.8L195,568l1.91.12,2.5,1.44,1.88-1,5.76-1.25,1,1.36,1.37.32,2.32-2.71,1,.43,2.12-.89,9.37,9.19-.85,1.71L218.69,581l-2.82,1.47-2.84.12-1.95.9-.79,1.84,2.82,5.57,1.17,1,.05,1.22-.93,3.51-1.88,2.74-.34-1.28L210,597l-2.43-.83-1.29.55.72.21.84,2.17,1.06.42,1.09-.33.31.49.67-.39.41,1.09,3.24.13,3.15,3.54.44,3.54-2.49,3.6,1.45-.08,4.06,6.65-.75-.57-2.12.35-1.5-1-1.66.25-2.39,3.75-3.76,1-.15,2.78-1.52.15-1,1.62-.13.71.62.21.39-1.17,2.54-1.26-.48-1.65.48-1,3-.66,2.31-3.24,1-.2,1.45,1.15,1.63-.65,3.61,3.08,3.94,2,.9,2.75-.94,1.88.51,1.33-2.5,2.59-.9,1.78.69,4.7-.36,1.29-8.87,5L214.21,643l.7-2,.72,1.08-.43.15.13,2,1,0,.25-.53-1.25-2.81-5.48-1-3.89,3.8-1.93.75-3,2.63-3.74,1.66-.28,1,.77.79.41,3.37,2.06,1.49-.11.54-2.83.07L193.9,655l-1.42,1.64.2.69.53-.18-.11,1.44-.82,0,.08-.83-.79,1.43,1.23.09,1.64-1.13.55.92,1.25-1.14.85.13,1.35,1.93,1.79.35,1.88,2.28.8,2,1.62.55-.06,3.43-6.93,7.26-.65-.58-4.06-.15-.83,1-2.54.8-1.85-.5-.31-1,.16,1-.62.19.63.08-.61.27.55,0,.16.72-.8-.15.35.72-.49.37.49,2.09,1.27.78.14-.72.81-.16,1.74,2.18,3.71-.37,1.62.73,2-.44,1.7-1.89,4-1.71,3.53-.68.09-1.91,1.17-.4,3.34,2,1.56,3.92,1.71,2.15,3.2,1,4.11,2.69,1.45,1.66L227,689l3.36.67.22,3.21,1.73,1.93-.32,1.7.72,7.24,1.25.8.49,2.33,2.07,1.18-.62,1.82-3,1.52-6.43-1.53-1.17,1.83.22,1.27,1.16.62,1.87-.25,2.07,1.86.37,2.82,2.19,1.88.39,2.71-1.2,2.43-3.53,1.26-.77-1.42-2.35-1.37.25-1.36-3.6-1.15-3.1.5-2.66-1.38-.34-1.42,2-1.39.86-2-1.22-.18-.81-.82-.74-2-2-.47-1.78-2-1.47-.5,1-1.11,4.34-1.22,1.55.12,1,1.59,1.84-.24.74-.89-.57-1.43-2.28-1.8-2-1.36-2.44-.56-.91,1.24-.49,3.35-.53.29-.66-1.18-1.12.29-.78,1,1.16,0,.6,1.12-3.82,2.12.68.68-.2,1.91-1.59,2.54-1.29.77-2.51-1.3-.37,1.19-1.68-.06-.57,1.18-1.44.14-1.55,2.54-1,.53-.91,2.3-2,.73-1.17,1.44-2,.23L188,726.89h-2v-1.4l-1.29-1.07-.85.49-2.72.3-.56,1.48-.65,2.84-2.45,1.42L176.14,733l-.38,1.54-2-1.28-5-.79.19,1.73-1.18-.62-.3-1.28-1.9-.6-2.82.6-2-5.17-.06-1,1.31-2-.64-1.47-4.87-2.17-1.45-.05-5.74-2.87-5.91-.67-2.72.91-5.94-.43-4.62-3.48-4.2-1.35-5-2.48-4.84.12-2.92-.69-4.52,2-1.51-.14L105.15,709h-1.26l-.78.69-1-.48-1.71.3V710l-3.12,1.75.06.64-3-1-3.75,1-6.48-4.23-1.73-.22-1.21.62-3.36-.68,3.09-12.41.16-5.58L77.25,677l2-11.94.51.07,1.29-2.4,2-6.55,1.2-1-.61-1.22,1.14-2L82.94,651l-2.88-.18-6,.88-7.23-1.17-.8,1.85.65,4,.58.7-1.16,5.09,2.57,3.91-.77.09-.9,1.58-1.41.8-3.07-.34,1.08.8-.64.59L64.14,671l-1.45.69-1,.31-1.9.58-1-.86-4.32-7-.43.2-.28-2,.22-.44,1.45.13.17-.48-1.56,0,1.7-10,.43-8.33,1.05-1.8,1.41.92.38-.4,0-.6-1.65-.62L58.2,638l1.48-1.45.3.36,2.62-.84L62,638l4.29-.08,3,.71.46.57,2,1.54.23.79-1,1.8-1.9,1.79L68.63,647l.66.56-.85,2L77.12,651l4.7-.7-.08-.63,1-1,1-.1.49.88.75,0-.3-.61.71-.68-.83-.75L82,633l-.49,1.34-.88-.27,0-1.58.87,0-.37-1.77.8-1-1.07-.54-.15-1.26.72-.94-.52-.67,1-1L80.64,625l-.23-1,1.25-.44-.26-.85-1.07.22-.27-.89-.83,0-.34-.59.85-.65.23-1.55.5.72.71-.19-.82-4.13.73-2.74-2.18-.73-4.11,2.38-1,1.28-2.7,1L68.78,622l-1.71.68-1.82-.16-1.72-1.84,0-2.1,2.12-2.8,1.94-.66,4.09.6,7.12-4.29,2.4.75,1.35-3.67.14-2.21-.81-1.06.15-1.13-1.23-1.76-4.7-18.74-2.53-1.36-2.57-2.37-3-1.3-1.65-1.92-1.25-.39L61.9,577.4l-6.57-1.6-.82,1.69L51.05,576l1.14-.09-.18-.64-1.59-.44-.2.92-.64-.54.76-1.39-1-1.32-1.22-1.85-.55-.94L33.8,554.26l-3.28-5,.47-1.84,2.57-1.27,0-.92-1-1.4-2.58-1.43-3-.25-2.78,3.63-.43,1.82-1.18,1.64,0,2.87.74,2.18,1.38,2,2.45,1L26,559.71l1.22,2L29.35,563l2.95,3.44.07,3.69-1.76,1.05L16.48,558.94.26,551.28l.07-1.5L3,543.21l9-29.56,2.24-14.9-.75-10.52h0l2.6-.48h0l-.38-1.23-1-.69.06-1.32h0l1.31-.3,4.88,1.31-.12,2.11,2.88,1.57,3.67,3.54,1.07-.06.72-1,5.22.12,4-5.24,4,5.1,6.1.61-1.24.88L50.82,495l1.2,2.86,6.27-.08L61,495.1l-.16-5.58,3.33-.68,1.31-2.28-1.94-4.63,5.21-1.6,3.2,3.15,11.51-3.3,4.4,2.59,2,5.88,5,1.91,9.39-3.27-4.47-4.52,4-2.38L106,472l2.21.38,1.32-3.73,1.94.4.33-.48,11.63,2.67-1.07,9.69,7.12,3.66,2.86-2.44,2.24,1,1.73-3.51,1.67,1.53,1.94-5.53,1.72-2.53,2.8,1.95,4.48-3.51,6.33-8.18-.08-3.44,3.35-5.91,5.23.3L167,458Zm49.05,176.34-.55.09.46,1,3.55-.62-.51-1-.07-.49-1.07-1.88-1.76,1.06Z" style="fill:#c19945;stroke:#fff;stroke-width:0.5px"/><polygon points="137.47 242.13 143.83 246.45 143.08 248.3 143.58 250.58 146.41 257.88 151.99 264.53 152.47 265.99 148.58 268.34 146.85 270.47 144.92 273.62 144.54 276.34 141.69 276.1 142.08 281.31 142.8 282.25 140.82 281.89 139.8 282.43 135.8 286.34 134.55 290.38 134.14 294.9 134.44 296.82 135.34 299.13 135.86 300.63 135.47 301.45 136.08 302.45 135.16 302.81 136.23 304.08 138.79 304.06 140.97 300.96 141.67 298.48 140.64 295.82 141.41 292.47 144.16 291.22 145.39 292.95 146.98 293.27 149.21 290.74 149.23 288.49 145.75 289.19 143.51 288.12 147.29 284.73 149.21 279.36 149.87 280.21 149.83 281.82 149.16 282.5 149.04 284.33 150.22 286.63 151.87 287.79 153.94 287.95 157.38 285.7 159.28 286.39 164.77 286.11 163.94 286.47 164.55 287.45 165.87 286.84 167.6 287.68 169.09 290.89 168.41 290.84 167.99 292.1 168.36 292.6 164.43 295.29 163.76 294.94 163.48 297.52 162.18 299.73 163.54 300.34 164.27 304.32 166.21 307.18 169.14 309.83 170.92 309.88 169.84 311.34 169.76 313.13 170.77 312.82 170.71 311.97 174.81 308.07 177.22 308.74 178.53 309.76 179.4 309.45 178.84 305.36 179.17 302.79 180.07 301.58 179.15 301.24 177.72 301.69 175.06 303.82 170.98 305.27 169.26 304.97 167.92 302.21 169.37 294.29 169.45 292.72 168.61 291.8 170.05 291.16 171.24 289.13 171.7 286.96 171.37 284.61 172.53 283.18 173.17 280.11 172.43 275.1 172.43 275.1 177.2 275.3 178.76 277.5 183 276.81 182.84 279.8 187.8 283.33 191.23 283.96 194.23 274.49 196.35 274.33 196.77 272.54 200.9 272.98 201.42 273.3 200.55 275.24 201.14 275.78 201.97 275.39 202.15 276.5 202.7 276.38 203.15 277.32 201.35 279.02 201.74 280.47 206.84 281.08 206.28 284.44 210.86 286 214.83 285.23 221.01 286.11 221.77 289.65 217.4 291.14 217.27 298.28 221.94 295.73 226.88 296.98 232.1 304.43 238.34 302.87 243.46 305.67 249.85 304.26 250.33 300.82 251.16 299.7 253.29 299.86 259.52 297.99 260.98 294.07 263.65 295.5 272.4 292.82 278.69 288.45 282.63 287.29 283.83 284.04 283.65 281.61 288.52 280.16 288.29 277.04 293.82 273.52 293.47 272.03 293.47 272.03 294.96 272.66 301.41 268.57 303.51 268.52 305.92 269.78 308.33 268.9 309.42 267.85 313.42 267.75 315.42 269.92 316.82 277.74 315.29 277.9 314.99 278.65 316.43 281.78 316.28 283.44 314.11 287.42 307.84 290.91 305.67 295.39 303.2 296.18 300.69 298.73 300.27 301.05 299.18 303.58 298.34 304.59 297.17 304.5 296.33 307.51 298.09 317.39 296.08 324.16 295.26 324.75 291.91 325.17 284.38 328.56 283.07 328.08 282.72 326.61 278.72 326.16 276.9 326.66 277.08 327.16 274.08 327.52 272.41 328.7 271.45 329.11 265.86 328.76 262.75 331.72 263.73 331.41 264.99 329.93 266.01 328.92 271.51 329.41 275.67 327.63 278.99 327.06 282.05 327.92 284.85 329.12 292.38 325.45 294.08 325.41 296.97 324.48 301.16 326.23 307.32 325.81 307.03 325.35 303.42 324.91 301.2 325.18 299.72 324.57 298.84 323.17 298.73 321.8 298.95 317.84 298.86 317.01 298.99 313.98 298.49 313.05 299.3 307.79 300.1 306.13 301.59 305.35 301.64 303.36 304.41 299.03 306.38 297.99 308.5 295.29 308.47 291.31 309.61 291.48 310.69 292.89 311.86 292.9 314.11 294.23 314.58 298.78 315.56 301.09 318.92 306.05 322.79 309.88 325.77 311.9 336.86 314.94 344.12 314.57 359.51 310.75 365.56 310.48 369.25 309.97 372.81 308.68 376.79 308.82 378.86 309.89 382.42 310.52 385.84 313.78 388.03 321.42 391.04 322.99 393.32 325.3 394.64 325.7 398.09 329.1 398.47 331.19 399.22 331.93 398.79 333.98 397.4 333.94 396.03 335.07 394.65 338.11 395.22 338.7 394.84 340.62 394.98 341.32 394 342.05 394.12 345.03 393.2 348.47 393.17 357.23 387.34 365.29 386.11 368.12 382.8 370.21 381.73 371.75 378.88 378.77 376.16 382.01 372.84 383.04 370.58 385.15 368.94 388.12 368.23 391.34 369.02 397.9 365.47 407.36 362 407.52 360.75 406.36 360.43 404.1 359.29 403.35 355.91 400.52 354.87 398.14 354.84 396.13 355.62 395.91 357.3 397.14 358.53 396.63 359.26 395.5 359.13 394.25 360.35 391.94 359.94 389.6 358.52 387.46 357.33 386.56 351.7 385.98 349.85 386.41 347.73 388.09 346.39 390.97 346.49 392.28 344.5 393.69 341.78 397.55 340.44 401.89 341.84 404.86 343.06 405.97 343.99 411.76 343.74 414.47 342.1 417.28 337.59 419.11 333.24 407.94 334.59 406.35 338.16 406.63 339.8 400.94 338.69 399.79 336.48 400.41 336.61 400.96 334.77 400.3 331.58 397.92 329.37 397.53 327.21 398.57 326.7 400.44 324.7 402.34 321.21 402.36 318.97 400.77 318.11 396.46 316.21 394.85 314.91 395.05 314.59 394.49 314.94 392.68 316.45 393.25 322.91 391.14 323.65 389.96 323.31 388.66 324.28 388.12 325.63 388.54 325.76 387.86 327.55 388.17 325.49 390.67 326.78 392.61 329.24 392.91 330.05 393.65 331.15 393.17 333.2 391.21 331.47 387.84 331.87 386.7 331.3 385.84 330.07 385.56 328.78 387.04 328.54 386.03 330.87 382.92 332.43 381.97 333.59 380.01 333.8 378.06 334.78 377.55 336.88 377.76 337.06 376.68 336.13 375.74 336.6 374.45 333.22 372.49 332.16 374.94 331.19 374.62 332.34 373.11 330.19 373.04 329.5 372.42 329.89 369.88 329.39 369.37 328.39 370.37 325.93 369.28 324.3 370.75 324.45 370.38 323.31 369.96 322.31 370.41 320.7 370 319.64 370.82 319.46 371.79 320.56 373.58 318.7 375.69 316.72 375.17 314.53 377.42 314.67 380.11 315.55 381.13 314.25 382.26 313.61 381.6 313.37 384.41 309.03 386.66 306.34 390.78 305.56 393.04 302.5 394.35 300.26 396.32 298.14 400.89 298.88 401.61 296.96 403.56 296.51 403.19 296.44 404.92 298.28 403.53 297.08 407.5 300.21 405.71 300.68 404.89 300.04 404.34 300.85 403.38 301.45 404.43 301.05 404.82 301.49 405.54 298.21 408.07 296.3 408.13 295.7 409 296.39 410.78 298.21 412.81 299.67 417.24 301.09 419.48 302.67 427.33 304.25 430.66 304.26 432.49 303.75 436.5 302.19 437.3 302 436.03 300.62 436.46 298.25 439.47 296.38 440.24 297.16 440.8 299.72 440.16 301.48 437.31 302.34 437.56 303.07 436.92 304.83 436.78 305.72 437.52 304.18 439 301.84 444.31 301.74 447.6 303.6 452.95 302.43 459.92 302.42 464.54 299.7 465.35 295.5 470.5 293.38 470.73 293.66 474.5 294.86 475.97 295.12 477.31 294.77 477.57 293.41 479 294.25 481.67 293.46 482.69 288.83 480.48 286.47 477.74 286.04 476.66 286.77 473.85 285.19 471.95 284.66 473.39 283.25 474.43 282.8 476.1 283.46 476.48 283.3 477.13 281.22 476.7 278.06 479.82 274.27 480.19 272.13 481.35 271.93 479.16 274.91 474.74 282.55 476.09 283.06 474.36 282.22 473.17 282.06 471.57 276.71 471.19 275.48 472.27 271.87 473.24 269.08 473.33 266.59 472.1 263.28 472.19 262.44 472.39 261.55 475.37 262.26 476.21 262.19 477.37 257.5 476.74 255.21 477.63 251.91 474.67 252.09 473.42 253.28 473.3 252.84 472.75 250.32 472.16 249.01 472.94 248.42 472.22 246.62 472.2 246.82 473.2 249.25 473.87 251.7 473.3 251.51 474.26 252.37 475.95 250.31 476.52 249.48 477.9 249.51 478.89 249.92 480.17 250.29 480.39 251.89 481.43 259.43 483.75 262.46 484 263.33 484.85 266.79 485.66 267.94 485.46 269.53 483.3 269.94 484.2 269.05 485.29 269.75 485.74 268.76 487.59 271.05 486.07 273.78 486.08 274.19 486.56 274.2 487.81 275.95 489.85 269.56 496.62 269.06 497.86 269.23 500.3 270.31 502.01 277.48 503.44 278.2 505.24 274.28 505.17 271.84 507.91 269.11 508.23 266.99 509.53 266.79 511.75 269.02 512.99 269.48 512.54 270.94 517.18 268.57 516.01 263.44 517.53 255.93 518.09 250.49 519.62 247.82 520.85 245.47 522.87 241.78 523.97 240.29 521.75 236.85 520.87 231.72 521.14 227.97 517.04 227.44 515.71 225.24 515.61 224.43 514.6 221.43 513.38 221.43 513.38 223.16 507.56 222.75 504.23 218.66 501.75 218.09 503.15 214.87 502.07 211.77 503.61 209.38 500.65 211.02 498.47 209.5 496.41 208.64 498.03 203.08 498.39 203.31 495.85 200.45 495.34 198.64 489.31 198.17 485.19 195.29 485.12 195.35 483.8 190.36 483.31 191.51 479.54 189.37 478.61 192.14 476.62 181.94 462.53 182.35 462.3 181.9 460.95 181.9 460.95 181.95 460.43 176.73 457.6 176.23 458.28 176.23 458.28 176.25 458.35 176.25 458.35 175.58 458.75 175.58 458.75 175.07 459.29 175.07 459.29 172.86 458.72 171.38 457.62 170.5 458.15 170.5 458.15 167.34 457.81 164.08 454.06 158.85 453.76 155.5 459.67 155.58 463.12 149.25 471.3 144.77 474.81 141.97 472.86 140.25 475.39 138.31 480.92 136.64 479.39 134.91 482.9 132.67 481.88 129.81 484.32 122.69 480.66 123.76 470.98 112.13 468.31 111.8 468.79 109.86 468.39 108.54 472.12 106.33 471.74 104.05 480.18 100.08 482.56 104.55 487.08 95.17 490.35 90.12 488.44 88.13 482.56 83.73 479.97 72.22 483.27 69.02 480.13 63.82 481.73 65.76 486.36 64.45 488.64 61.12 489.33 61.29 494.91 58.63 497.56 52.36 497.64 51.16 494.78 47.62 492.97 48.86 492.09 42.76 491.48 38.72 486.38 34.71 491.62 29.5 491.5 28.78 492.5 27.71 492.56 24.04 489.02 21.16 487.45 21.28 485.34 16.4 484.03 15.09 484.34 15.09 484.34 16.09 480.46 15.67 480.44 15.85 479.38 17.48 479.01 19.12 476.5 18.68 475.8 18.49 475.17 18.95 474.25 17.15 472.61 17.6 472.01 18.12 472.4 19.61 472.04 18.6 470.34 19.12 469.89 18.66 468.63 19.44 467.91 22.31 468.44 22.37 469.56 21.06 469.43 22.77 471.62 22.54 472.05 23.87 472.92 24.58 472.74 24.54 471.56 26.01 471.17 27.12 471.73 27.55 471.27 28.88 472.53 26.26 475.56 26.63 478.45 25.91 480.35 27.55 481.55 28.33 479.74 29 479.45 31.26 478.21 32.07 477.07 35.48 474.85 36.42 472.9 39.6 469.27 42.95 466.8 43.28 465.93 42.68 463.99 41.38 462.79 42.29 461.65 42.14 459.99 42.2 457.8 42.26 456.02 41.3 455.29 41.12 454.3 40.51 453.31 39.33 452.09 37.82 450.19 36.25 448.48 33.51 443.52 32.65 439.12 32.95 435.85 32.05 433.11 32.73 429.66 32.3 428.24 28.46 425.54 24.37 421.6 22.14 419.64 13.44 416.5 12.43 416.65 12.08 415.84 7.75 413.29 9.51 415.32 9.54 416.7 10.45 418.07 8.63 420.47 8.38 421.67 7.77 428.11 8.1 429.9 7.37 433.27 8.84 440.3 10.17 440.74 8.05 441.67 6.94 441.19 7.17 441.98 6.04 442.73 3.83 431.7 4.62 416.49 8.01 390.51 8.24 380.58 6 350.34 6.48 350.33 8.22 350.41 8.67 350.97 7.24 350.8 6.88 351.51 8.51 351.27 9.22 352.17 8.18 353.9 8.3 355.71 7.56 356.05 7.95 361.14 10.27 360.5 10.72 360.17 12.75 358.95 13.23 362.37 16.39 361.45 18.63 363.12 22.84 362.79 22.47 364.58 23.7 367.7 22.24 368.48 23.67 370.69 24.68 371.12 27.42 368.89 28.32 368.76 30.25 364.71 31.7 363.3 31.72 362.51 30.22 363.88 29.27 362.93 26.03 361.98 25.56 361.72 25.21 360.92 24.33 360.73 24.71 359.79 25.73 359.56 24.84 356.5 23.43 355.64 23.42 354.56 22.61 353.66 20.11 351.61 17.64 350.51 15.66 348.26 14.95 345.8 13.12 343.18 13.14 340.31 12.38 339.95 13.33 338.96 12.63 334.31 10.24 335.17 8.09 333.38 7.88 334.81 7.08 334.61 7.91 335.85 8.14 337.74 7.7 338.74 6.92 338.86 7.67 341.01 6.85 341.38 7.99 342.1 6.81 343.23 8.03 343.32 8.63 345.78 7.09 345.52 8.09 346.86 6.73 348.18 7.98 348.55 7.88 349.6 5.78 350.02 7.17 324.82 5.88 316.25 5.82 312.04 6.97 303.55 13.25 278.09 17.97 267.48 19.35 265.83 20.63 266.32 20.65 267.27 20.03 267.65 20.76 268.36 21.16 268.77 20.92 270.68 20.6 270.83 20.94 272.05 21.73 272.35 18.16 276.75 20.01 279.38 18.39 280.11 16.97 279.25 15.78 285.12 17.45 284.64 21.82 286.74 21.94 287.72 21.35 288.07 21.91 288.63 21.77 291.55 22.66 291.51 23.68 292.69 27.42 293.73 30.23 293.45 31.58 294.37 32.16 296.25 29.57 296.38 29.03 297.05 29.29 298.7 31.31 301.93 30.6 302.71 30.91 304.86 31.81 305.65 32.48 305.46 32.48 300.26 35.34 298.72 38.55 299.38 43.53 298.46 57.38 305.1 60 307.63 61.09 307.89 63.69 306.41 66.62 302.65 68.2 297.97 68.39 302.63 69.62 304.6 69.26 307.4 70.87 308.6 73.44 313.63 72.37 314.49 70.56 318.24 70.86 319.4 70.26 319.36 69.98 317.31 68.38 316.84 66.06 317.59 65.01 319.12 65.52 320.09 64.84 321.68 63.03 321.45 62.32 322.24 63.23 322.88 65.72 322.4 65.81 320.47 66.93 318.7 68.75 319.78 71.62 319.57 72.68 320.11 73.23 319.68 72.7 319.29 74.49 318.23 74.5 321.92 75.96 324.64 79.65 326.45 80.95 326.44 91.04 323.64 91.89 322.77 92.75 318.23 92.31 312.89 91.43 310.34 93.25 307.19 94.64 306.42 95.28 305.05 93.88 301.91 90.41 299.83 86.65 296.08 85.41 291.47 83.21 290.57 84.05 286.74 85.68 286.27 87.8 287.32 90.45 287.29 94.67 283.14 96.98 279.44 98.38 274.47 102.34 269.47 103.52 269.35 105.61 271.32 106.82 271.12 107.7 269.7 110.06 270.21 110.03 268.54 111.71 267.53 113.27 269.95 115.3 269.74 116.97 268.34 116.51 266.12 114.65 265.38 112.92 266.09 112.23 263.78 111.08 266.75 109.23 265.07 107.57 266.21 104.24 266.79 104 266.3 108 257.15 110.4 254.49 109.23 251.92 111.04 252.21 112.12 251.75 116.26 248.93 118.07 245.97 123.26 242.42 129.3 245.46 131.28 246.14 132.66 246.83 133.67 246.46 133.81 245.45 132.66 244.94 132.91 243.94 131.72 242.83 134.33 242.43 135.83 242.91 137.47 242.13" style="fill:#c19945;stroke:#fff;stroke-width:0.5px"/><path d="M65.2,269.51l-2.24-.6.35-1.05,1.44-.42ZM141,222.57l-2-.94-1.3-1.84,1.93-2.89.7-.06,2,3.9-.57,2.16ZM115.85,204l-.42,2.46,2.09,7-1.9,2.59-2.38,10.7-1,1.25.51-1.88-.24-3.27-1.08-.25-1.08.66.25,1.16-1.51-1.37.4-1-.7-.6-2.17.37-.38,1.26-1.73,2.64-.13,1.37,1.5,2.94.51,4.92,1.42,3.47,3,3.31.67,3-.23,2.35-.89-2.43-1-.16-.44.91-.82-.08-.14,1.23,1.5,1.37-2.93,1.85-.51,1.17-.56,2,.6.26-.34,1.1.42,1.74-.94,0-.63.72.16,2-2,1.18-.85,1.34-1.54.58-4.3,5.77,1,2.46-6.11,3-.18.56-3.61-.6-8.52,3.46-.13-1.37-.94-1.31-.59-1,.62-2.42L74.5,267l.19-2.2,1.84-.59v-.66l-.52-.34L74,263.9l-.81.79-1.22-.55.54-1.46-.82-1.93-1.82.07-.24,1,.06,1.06,1.87.24-1.32,1.18,1.25,2.15-3.78,1.48-.16-1.18-1-2.75.08-.62,2.81-.55-.64-1.35-4.18-3-3.47,3.67-1.66.81.5-2.12-.38-1.91.88-2.07,2.05-.44,2.42-2.18,1.44.49.75-.81-1.5-6.15-1-1.08,1.6-1,.62,1.25.91.09,1.66-2.32,1.65-.28,4.67,1.15,6.17-3.5.2-2.19-.59-.7-7.31-1.27v-1l1.7-2,2.52.83,1-.66.08-1.51-2.33,0,2.38-3.95-.16-3.74-.65-1.38.38-1.05L78,222.06l4.47-1.45,2.52.75,5.25-1,1.42.65,2.84-2.3,3-.16,2-1.11,3.31-.17,1.16-2.13.69-4.75L107.6,207l1.16-3,1.18,1.48,2.75-.55,1.32.46L117,202l.33-2.69.82.06-.23,2.37ZM246.9,178.78l-2,.4-2.62-1.2-1-1-.45-2.36,4-.82,2.13.5.86,1.35,1.5.88,0,.67ZM270,173.42l1.76,4,3.92,3.11-.32,1.13,4.14,2.24,4,3.68,2.05,3,7.49,5.47,5.54,2.1,9.65-1-.3,4.35h-1.27l-1,1.69,1,.42.19.67-2.68,4.25-1.41,11.21.6,2.18.71,14.39.67,6.2,3,12.32,4.92,7.81-.07,3.83-1.13,1-3.4-1.7-6.49-.47L298,263.54l-1.07.09-2.17,2-.55,1.51-2.16.69-2.55-1.31-.64-1.57.22-1.28-1.4,0-1.26-.3L281.11,266l-.63,2.4L278,269.5l-.08.59-1,0-.46-1.31-1.47-.78-2.58.83-.51,1-2,.1-1.57,2,.24,1.32-4.06.64-3.08,3.27-2-.27,1.06,2.24-1.18-.56-1.64.88-.24.75-.69-.34-1.86,1-2.76-.26-1.23.66h-4.61l-1.12,1-3.33-.13L238.85,284l1.09.28,1.28-.65,4.21.73,1.77-1.82,3.24.06,2.93-.78.35.51,2.52-.08,2-1.08,1.18.58,1.58-.56,1.15-1.39,2,.6.51-1-.55-.34,1.45-1.72,1.22,0,1.22-1.52,1.21.48,1.69-.81.11-1.3,2.53-3.22,1.16-.22,2.46,2.3,1.44-.13,3.46-3.44.24-2.8.71-1.29.81.83,1.71-.12,2.24,1.39,1.51-.39,4.16,5.46h0l.35,1.49-5.53,3.53.23,3.12-4.87,1.45.18,2.43-1.2,3.25-3.94,1.16-6.28,4.37L263.66,296,261,294.54l-1.46,3.92-6.23,1.87-2.13-.16-.83,1.12-.48,3.44-6.39,1.41-5.12-2.8-6.23,1.56-5.22-7.45L222,296.2l-4.67,2.55.13-7.14,4.38-1.49-.76-3.54-6.18-.88-4,.77-4.58-1.56.56-3.36-5.1-.61-.39-1.45,1.8-1.7-.45-.94-.55.12-.18-1.11-.83.39-.59-.53.87-1.94-.52-.32-4.12-.44-.42,1.8-2.12.16-3,9.47-3.43-.63-5-3.53.16-3-4.24.69-1.56-2.2-4.77-.2h0l-2-5.11-1.62-1.41-1.62-.18-2.48.88-1.68,1.56-2.26.11-1.61,1.81-3.52,1.59-2.3,2.33-.84.21-1.83-1.94-.42-1.29.08-1.2,2.05-1,2.36-3.63.66,0,3.17-3.27,2.43-4.1.9-3.76-.37-2.55-1.23-1.4-4.53-1.63-1.79.7-.26-.48.49-5.08-1.9-4.57-.82-.29,2.85-3.92,2.7-5.15.35-4.9-1.56-3.09-4.42-3-.31-1.71,1.76-6.3,2.59-3,.24-1.67,2.17-1.14,2-2.38,1.93-4.33,4.83-1.5.84-1.15.64-3.9,1.1-1.39.79.27,7.2-2.77,10.24-2.31,8.52.35,2.91.7,7.56,4,2.56,2.33-2,2.34-.51,2.12,1,2.63-1,1.21-1.15-2.47-1-.16-1.66,2.5,2,4.86,1,.72,1.11,2.11.49-.16.91-5.77-.4-2.29,2.56-1.7,1.77,0,1.88-1.28,1.57-4.48,1.32-.4,4.21-5.62-.12-3.24.5-1.46.75-1.24,2.65-1.64,6.38-1.24,4.7-1.62,9,2.28,3.49-2.81,1.45-.53,2-.37,2,.13,3,2.1,2-.15,2-.81,2.19-4,3.18-2.46ZM404,141.1l-.62-.12v-1l1.74-.8Zm5.79-2.45.57.73-.63,1.47-4.19.63-.93.62-.53-.7.27-1.31,1.24-1,3.17-.75Zm-16.26-7.1-2.53.13-.93-1.44.48-.31Zm-7.63-5.22.36.72.44-.11.25.3,4.36,5.35-.93-.13-4.74-5.71-.29-1.17,1.12.27Zm46.77-15.08-.8,8.94-.53-.22.56-1.92-.29-1.23-1.39-.74.61-2.06-2.09,1.9-.1.88-3.11-.6-3.19.91-1.22-.28-5.27,2.59-.75,1.34.43.7,2.46.38-.27,4.1-.82,2.27-2.73,3-6.13-.53-1.23.46,7.55.49-1.11,1.52-7.54,4.23-2.06-.5-1.79,1-1-3.35-.51-.25.21-.86-2.85-.67.27-.94-1-1.23-2.58-.57-1.67.75-4.52-2.26-.91-1.17.06-1.91,4.6-3.7,2.17-3.73,3.64-2.17h2.42l1.38-1,3.18.43,1.71-.47,1.54-2.44,1.15-.68,4.27.28,8.11-.59L423,111l2.35-1.76,3.23,1.09,3.79.13ZM350.1,8.33l-1.1,1-1-.71-.84.7.67.46-1.38-.15-3.64,3.1-8.6,10.76L327.9,34.38l-1.43,3.84L325.37,45l1.15,6.05,2,5.24,7.84,10L336.26,68l2.81,4,1.55,1.12,1.54,4.8.69.46.76-.38.6.68-.76,2-1-1.09-.41.5.88,1.52-1.22-.91-.57,1,1,.55-1.4,0-.12.74-.85,0-.34.71.3,3-.53.68.05,2.28-1.36,5.76,1,9.82,1.73,3.12-.82.75-.23,1.29,2.53,13,.64,6.08-.42,5.67-.78.24-2,2.55-2.09,1.77-2.62,1.08-3.47,3.76-3.6,5.1-3.28,6.81-2.29,5.93-3.57,16.14-.07,2L315.39,190l-3,5.71-2.55-.75-1.68-.58-3.83.67-2,1.28-5-.83-5.75-4.42-1.29-2L281.74,181l-2.15-1.66-2.15-.48-4.65-4L269,170.73l-1.91-.62-3.16,1.3-3.52,3.6,0,3.21-2.78,1.05-1.65-.5-2.48-1.94-1.22,0-3.22-1.72-1-1.71-3.93-3.71-1.41-.34-5.54-3.82-1.3-.23-.1,1.43.51.48-.6,1.45L233,174l.26.65L231.32,176l-5.92,1-5-3-2.08.81,0-2.86,2.6-.69,1.53-1.95.06-.72-2.12.19-3.88,1.7-1.79,1.72-1.94,1.67,1.66,1.58,2-.28.65.42-2.49,1.72-1.74,3-3.23-.19-1.78,2.41-4.16-1h-5.2l-1.6.73-1.11-1-4.36,1.8-3.79.45-7.43,3.38-3.08,0-6.25,2.9-1.37,1.15-1.36,1.51-3.38,1.42,0,.61-1.05.39-3.05-.44L159,194.1l-1.77-1.2L151,186.58l-4.33-3.76-9.89,4.25-.32,1.4-2.16,2.32-1.41-.16,0-2.52-.93-1-3.49.33-2.35.95L123.56,192l-2.93-.74-2.57,1.44-2,4.86h-2l-1.1-2.44-3.38-1-1.47,1.78-.29-1.93-1,.19-1.05.33-1.11.12L104,195l.47,1.24,2.46,1.77.1,1.68-2,.66-.61.91-1.71.08L99.45,203l-.88,2-3.31,1.38-1.73.14-2.7-1.13-1.41.27-1.84-.92-1.83.16L83,204.79l-.78.61-1.45,4.06.71,2.65-3.07,3,0,3.09-2,2.86.8,3-1,1.4.1.72,1.24.87-3.18,4.77v1l-4.88,5.85-5.61.31-.36.57.45,2.36-2.15-.19-4.43,2.67-2.54,3.7,1.17,2.62,3.15,4-1.54,1.9L56,262.86l-2.71,2.52,3.4-.95,2,.49,2.47.06.6,1.14-1.33,2.75,1.72-1,.74.56-2.11,2.66.27,2.7-3.39-1.17-1.36-2-3.74-1.4-3.82,1.94.17.73-1.27,1.18-1.28-.55-.64.31-.58,1.73.77.06h0l-.16,1.38h0L39,274.33,38,270.44l-1-.93-1.23-2.87-2.06-1.91-1.09-3L31.21,254l-2.37-2.84-3.53-2.12-1.26,18.32v1.09l-.28.55-1-.71v-2.75l-1.49-2.67-1-.06.54-2.24.5-12.35,1.27-5.82,4.84-13.69L39.85,203.4l2.64-1.51,4.1-5.22,5.23-8.11L54.43,183l1.26-1.32,2.05.19,1.62-.86,4-4.67,8.29-13.87-.17-.62.42-.31.44.24.38.63,3.09-1.69.83.84,7.31,2.37,8.36,3.73h2.09l9.4-2.32,5.69-2.27,4.52-2.51,8.15-6.29,3.47-1.48,3.24.59,3.55-.8,10.12,4,6.25,1.12,5.28.22,9.35-1,3.61-.8,5.63-2.37,6.41-.5,4.45-1.81L201,137.65l1.92-2.1,13.78-20.66,9-16.69,1.72-2L238.2,71.32l9.55-10.08L251,56.65l6.57-12.72,3.25-3.46-.6,1.27,3.19-.65,0-.67,1.23,1,2.23.44,3.69.34,3.17-.5,4.76.8,3,0,7.19-1.24,11.8-4.58,10.83-6.49L338.88,6l4.85-3.37,2.63-1.26L350.94.25l2.22.19,3,1.77-4.61,4.06Z" style="fill:#c19945;stroke:#fff;stroke-width:0.5px"/><line x1="256" y1="403.85" x2="256" y2="416.98" style="fill:none"/><g style="clip-path:url(#a)"><polygon points="169.89 361.14 171.64 380.79 173.39 361.14 169.89 361.14" style="fill:gray"/><g style="clip-path:url(#b)"><path d="M179.29,354.31a7.65,7.65,0,1,1-7.65-7.65,7.65,7.65,0,0,1,7.65,7.65" style="fill:#712c1d"/></g></g><g style="clip-path:url(#c)"><polygon points="185.89 351.14 187.64 370.79 189.39 351.14 185.89 351.14" style="fill:gray"/><g style="clip-path:url(#d)"><path d="M195.29,344.31a7.65,7.65,0,1,1-7.65-7.65,7.65,7.65,0,0,1,7.65,7.65" style="fill:#712c1d"/></g></g><g style="clip-path:url(#e)"><polygon points="37.89 349.14 39.64 368.79 41.39 349.14 37.89 349.14" style="fill:gray"/><g style="clip-path:url(#f)"><path d="M47.29,342.31a7.65,7.65,0,1,1-7.65-7.65,7.65,7.65,0,0,1,7.65,7.65" style="fill:#712c1d"/></g></g><g style="clip-path:url(#g)"><polygon points="165.75 190.19 167.5 209.84 169.25 190.19 165.75 190.19" style="fill:gray"/><g style="clip-path:url(#g)"><path d="M175.15,183.36a7.65,7.65,0,1,1-7.65-7.65,7.64,7.64,0,0,1,7.65,7.65" style="fill:#712c1d"/></g></g><g style="clip-path:url(#i)"><polygon points="439.61 557.54 441.36 577.2 443.11 557.54 439.61 557.54" style="fill:gray"/><g style="clip-path:url(#j)"><path d="M449,550.72a7.65,7.65,0,1,1-7.65-7.65,7.65,7.65,0,0,1,7.65,7.65" style="fill:#712c1d"/></g></g><g style="clip-path:url(#k)"><polygon points="495.61 573.24 497.36 592.89 499.11 573.24 495.61 573.24" style="fill:gray"/><g style="clip-path:url(#l)"><path d="M505,566.41a7.65,7.65,0,1,1-7.65-7.65,7.65,7.65,0,0,1,7.65,7.65" style="fill:#712c1d"/></g></g><g style="clip-path:url(#m)"><polygon points="517.61 564.86 519.36 584.51 521.11 564.86 517.61 564.86" style="fill:gray"/><g style="clip-path:url(#m)"><path d="M527,558a7.65,7.65,0,1,1-7.65-7.65A7.64,7.64,0,0,1,527,558" style="fill:#712c1d"/></g></g><g style="clip-path:url(#o)"><polygon points="533.61 515.24 535.36 534.89 537.11 515.24 533.61 515.24" style="fill:gray"/><g style="clip-path:url(#p)"><path d="M543,508.41a7.65,7.65,0,1,1-7.65-7.65,7.65,7.65,0,0,1,7.65,7.65" style="fill:#712c1d"/></g></g><g style="clip-path:url(#q)"><polygon points="486.61 462.54 488.36 482.19 490.11 462.54 486.61 462.54" style="fill:gray"/><g style="clip-path:url(#r)"><path d="M496,455.72a7.65,7.65,0,1,1-7.65-7.65,7.65,7.65,0,0,1,7.65,7.65" style="fill:#712c1d"/></g></g><g style="clip-path:url(#s)"><polygon points="601.95 479.61 603.7 499.26 605.45 479.61 601.95 479.61" style="fill:gray"/><g style="clip-path:url(#s)"><path d="M611.35,472.78a7.65,7.65,0,1,1-7.65-7.65,7.65,7.65,0,0,1,7.65,7.65" style="fill:#712c1d"/></g></g><g style="clip-path:url(#u)"><polygon points="608.95 469.83 610.7 489.49 612.45 469.83 608.95 469.83" style="fill:gray"/><g style="clip-path:url(#v)"><path d="M618.35,463a7.65,7.65,0,1,1-7.65-7.65,7.65,7.65,0,0,1,7.65,7.65" style="fill:#4e1a0e"/></g></g><g style="clip-path:url(#w)"><polygon points="195.54 612.11 197.29 631.76 199.04 612.11 195.54 612.11" style="fill:gray"/><g style="clip-path:url(#x)"><path d="M205,605.29a7.66,7.66,0,1,1-7.66-7.66,7.66,7.66,0,0,1,7.66,7.66" style="fill:#712c1d"/></g></g><g style="clip-path:url(#y)"><polygon points="60.32 523.74 62.07 543.39 63.82 523.74 60.32 523.74" style="fill:gray"/><g style="clip-path:url(#y)"><path d="M69.72,516.91a7.65,7.65,0,1,1-7.65-7.65,7.65,7.65,0,0,1,7.65,7.65" style="fill:#712c1d"/></g></g><g style="clip-path:url(#aa)"><polygon points="282.89 433.14 284.64 452.79 286.39 433.14 282.89 433.14" style="fill:gray"/><g style="clip-path:url(#ab)"><path d="M292.29,426.31a7.65,7.65,0,1,1-7.65-7.65,7.65,7.65,0,0,1,7.65,7.65" style="fill:#712c1d"/></g></g><g style="clip-path:url(#ac)"><polygon points="275.89 437.44 277.64 457.1 279.39 437.44 275.89 437.44" style="fill:gray"/><g style="clip-path:url(#ad)"><path d="M285.29,430.62a7.65,7.65,0,1,1-7.65-7.65,7.65,7.65,0,0,1,7.65,7.65" style="fill:#4e1a0e"/></g></g><g style="clip-path:url(#ae)"><polygon points="248.89 407.14 250.64 426.79 252.39 407.14 248.89 407.14" style="fill:gray"/><g style="clip-path:url(#af)"><path d="M258.29,400.31a7.65,7.65,0,1,1-7.65-7.65,7.65,7.65,0,0,1,7.65,7.65" style="fill:#712c1d"/></g></g><g style="clip-path:url(#ag)"><polygon points="237.89 398.76 239.64 418.41 241.39 398.76 237.89 398.76" style="fill:gray"/><g style="clip-path:url(#ag)"><path d="M247.29,391.93a7.65,7.65,0,1,1-7.65-7.65,7.64,7.64,0,0,1,7.65,7.65" style="fill:#4e1a0e"/></g></g><g style="clip-path:url(#ai)"><polygon points="227.89 407.82 229.64 427.48 231.39 407.82 227.89 407.82" style="fill:gray"/><g style="clip-path:url(#ai)"><path d="M237.29,401a7.65,7.65,0,1,1-7.65-7.65,7.65,7.65,0,0,1,7.65,7.65" style="fill:#712c1d"/></g></g></svg>